gabion.ufo
<glyph name="exclam" format="2">
  <advance width="286"/>
  <unicode hex="0021"/>
  <outline>
    <contour>
      <point x="151" y="235" type="line"/>
      <point x="209" y="710" type="line"/>
      <point x="77" y="710" type="line"/>
      <point x="135" y="235" type="line"/>
    </contour>
    <contour>
      <point x="138" y="-14" type="curve" smooth="yes"/>
      <point x="178" y="-14"/>
      <point x="208" y="18"/>
      <point x="208" y="56" type="curve" smooth="yes"/>
      <point x="208" y="94"/>
      <point x="178" y="126"/>
      <point x="138" y="126" type="curve" smooth="yes"/>
      <point x="99" y="126"/>
      <point x="68" y="94"/>
      <point x="68" y="56" type="curve" smooth="yes"/>
      <point x="68" y="18"/>
      <point x="99" y="-14"/>
    </contour>
  </outline>
</glyph>
<glyph name="quotedbl" format="2">
  <advance width="406"/>
  <unicode hex="0022"/>
  <outline>
    <contour>
      <point x="90" y="414" type="line"/>
      <point x="106" y="414" type="line"/>
      <point x="170" y="740" type="line"/>
      <point x="26" y="740" type="line"/>
    </contour>
    <contour>
      <point x="290" y="414" type="line"/>
      <point x="306" y="414" type="line"/>
      <point x="370" y="740" type="line"/>
      <point x="226" y="740" type="line"/>
    </contour>
  </outline>
</glyph>
<glyph name="numbersign" format="2">
  <advance width="583"/>
  <unicode hex="0023"/>
  <outline>
    <contour>
      <point x="201" y="355" type="line"/>
      <point x="227" y="442" type="line"/>
      <point x="406" y="442" type="line"/>
      <point x="392" y="355" type="line"/>
      <point x="366" y="268" type="line"/>
      <point x="187" y="268" type="line"/>
    </contour>
    <contour>
      <point x="309" y="710" type="line"/>
      <point x="209" y="710" type="line"/>
      <point x="175" y="500" type="line"/>
      <point x="30" y="500" type="line"/>
      <point x="30" y="442" type="line"/>
      <point x="165" y="442" type="line"/>
      <point x="151" y="355" type="line"/>
      <point x="125" y="268" type="line"/>
      <point x="30" y="268" type="line"/>
      <point x="30" y="210" type="line"/>
      <point x="107" y="210" type="line"/>
      <point x="43" y="0" type="line"/>
      <point x="143" y="0" type="line"/>
      <point x="177" y="210" type="line"/>
      <point x="348" y="210" type="line"/>
      <point x="284" y="0" type="line"/>
      <point x="384" y="0" type="line"/>
      <point x="418" y="210" type="line"/>
      <point x="563" y="210" type="line"/>
      <point x="563" y="268" type="line"/>
      <point x="428" y="268" type="line"/>
      <point x="442" y="355" type="line"/>
      <point x="468" y="442" type="line"/>
      <point x="563" y="442" type="line"/>
      <point x="563" y="500" type="line"/>
      <point x="486" y="500" type="line"/>
      <point x="550" y="710" type="line"/>
      <point x="450" y="710" type="line"/>
      <point x="416" y="500" type="line"/>
      <point x="245" y="500" type="line"/>
    </contour>
  </outline>
</glyph>
<glyph name="dollar" format="2">
  <advance width="543"/>
  <unicode hex="0024"/>
  <outline>
    <contour>
      <point x="249" y="-100" type="line"/>
      <point x="309" y="-100" type="line"/>
      <point x="309" y="-6" type="line"/>
      <point x="414" y="15"/>
      <point x="484" y="75"/>
      <point x="484" y="178" type="curve" smooth="yes"/>
      <point x="484" y="227"/>
      <point x="460" y="267"/>
      <point x="436" y="291" type="curve" smooth="yes"/>
      <point x="410" y="317"/>
      <point x="359" y="342"/>
      <point x="309" y="365" type="curve"/>
      <point x="309" y="605" type="line"/>
      <point x="326" y="606"/>
      <point x="343" y="606"/>
      <point x="361" y="606" type="curve"/>
      <point x="405" y="452" type="line"/>
      <point x="424" y="452" type="line"/>
      <point x="484" y="640" type="line"/>
      <point x="423" y="654"/>
      <point x="369" y="663"/>
      <point x="309" y="664" type="curve"/>
      <point x="309" y="749" type="line"/>
      <point x="249" y="749" type="line"/>
      <point x="249" y="661" type="line"/>
      <point x="144" y="646"/>
      <point x="61" y="579"/>
      <point x="61" y="480" type="curve" smooth="yes"/>
      <point x="61" y="430"/>
      <point x="81" y="395"/>
      <point x="111" y="366" type="curve" smooth="yes"/>
      <point x="139" y="338"/>
      <point x="196" y="312"/>
      <point x="249" y="288" type="curve"/>
      <point x="249" y="46" type="line"/>
      <point x="226" y="45"/>
      <point x="199" y="44"/>
      <point x="165" y="44" type="curve"/>
      <point x="124" y="207" type="line"/>
      <point x="104" y="207" type="line"/>
      <point x="43" y="5" type="line"/>
      <point x="102" y="-5"/>
      <point x="160" y="-14"/>
      <point x="221" y="-14" type="curve" smooth="yes"/>
      <point x="231" y="-14"/>
      <point x="240" y="-14"/>
      <point x="249" y="-13" type="curve"/>
    </contour>
    <contour>
      <point x="360" y="231" type="curve"/>
      <point x="384" y="207"/>
      <point x="391" y="181"/>
      <point x="391" y="153" type="curve" smooth="yes"/>
      <point x="391" y="121"/>
      <point x="381" y="96"/>
      <point x="362" y="77" type="curve" smooth="yes"/>
      <point x="351" y="66"/>
      <point x="337" y="58"/>
      <point x="309" y="52" type="curve"/>
      <point x="309" y="261" type="line"/>
      <point x="332" y="250"/>
      <point x="350" y="240"/>
    </contour>
    <contour>
      <point x="183" y="434" type="curve" smooth="yes"/>
      <point x="160" y="457"/>
      <point x="154" y="480"/>
      <point x="154" y="505" type="curve" smooth="yes"/>
      <point x="154" y="533"/>
      <point x="164" y="554"/>
      <point x="181" y="571" type="curve" smooth="yes"/>
      <point x="195" y="585"/>
      <point x="219" y="593"/>
      <point x="249" y="599" type="curve"/>
      <point x="249" y="393" type="line"/>
      <point x="220" y="407"/>
      <point x="196" y="421"/>
    </contour>
  </outline>
</glyph>
<glyph name="percent" format="2">
  <advance width="733"/>
  <unicode hex="0025"/>
  <outline>
    <contour>
      <point x="35" y="471" type="curve" smooth="yes"/>
      <point x="35" y="579"/>
      <point x="118" y="665"/>
      <point x="214" y="665" type="curve" smooth="yes"/>
      <point x="303" y="665"/>
      <point x="353" y="590"/>
      <point x="353" y="507" type="curve" smooth="yes"/>
      <point x="353" y="399"/>
      <point x="271" y="314"/>
      <point x="175" y="314" type="curve" smooth="yes"/>
      <point x="84" y="314"/>
      <point x="35" y="388"/>
    </contour>
    <contour>
      <point x="282" y="478" type="curve" smooth="yes"/>
      <point x="282" y="519"/>
      <point x="274" y="558"/>
      <point x="254" y="578" type="curve" smooth="yes"/>
      <point x="235" y="597"/>
      <point x="212" y="606"/>
      <point x="189" y="606" type="curve" smooth="yes"/>
      <point x="163" y="606"/>
      <point x="146" y="598"/>
      <point x="131" y="585" type="curve"/>
      <point x="114" y="568"/>
      <point x="106" y="538"/>
      <point x="106" y="500" type="curve" smooth="yes"/>
      <point x="106" y="458"/>
      <point x="114" y="421"/>
      <point x="135" y="400" type="curve" smooth="yes"/>
      <point x="154" y="381"/>
      <point x="177" y="373"/>
      <point x="199" y="373" type="curve" smooth="yes"/>
      <point x="226" y="373"/>
      <point x="242" y="380"/>
      <point x="257" y="394" type="curve" smooth="yes"/>
      <point x="274" y="411"/>
      <point x="282" y="440"/>
    </contour>
    <contour>
      <point x="380" y="143" type="curve" smooth="yes"/>
      <point x="380" y="250"/>
      <point x="462" y="337"/>
      <point x="558" y="337" type="curve" smooth="yes"/>
      <point x="648" y="337"/>
      <point x="698" y="262"/>
      <point x="698" y="179" type="curve" smooth="yes"/>
      <point x="698" y="71"/>
      <point x="615" y="-15"/>
      <point x="519" y="-15" type="curve" smooth="yes"/>
      <point x="429" y="-15"/>
      <point x="380" y="60"/>
    </contour>
    <contour>
      <point x="626" y="150" type="curve" smooth="yes"/>
      <point x="626" y="191"/>
      <point x="619" y="230"/>
      <point x="598" y="251" type="curve" smooth="yes"/>
      <point x="579" y="269"/>
      <point x="556" y="277"/>
      <point x="533" y="277" type="curve" smooth="yes"/>
      <point x="507" y="277"/>
      <point x="491" y="270"/>
      <point x="476" y="256" type="curve" smooth="yes"/>
      <point x="459" y="239"/>
      <point x="450" y="210"/>
      <point x="450" y="172" type="curve" smooth="yes"/>
      <point x="450" y="130"/>
      <point x="459" y="93"/>
      <point x="479" y="73" type="curve" smooth="yes"/>
      <point x="498" y="53"/>
      <point x="521" y="45"/>
      <point x="544" y="45" type="curve" smooth="yes"/>
      <point x="571" y="45"/>
      <point x="587" y="52"/>
      <point x="602" y="65" type="curve"/>
      <point x="619" y="82"/>
      <point x="626" y="112"/>
    </contour>
    <contour>
      <point x="59" y="0" type="line"/>
      <point x="59" y="10" type="line"/>
      <point x="352" y="340" type="line"/>
      <point x="554" y="650" type="line"/>
      <point x="674" y="650" type="line"/>
      <point x="674" y="640" type="line"/>
      <point x="386" y="310" type="line"/>
      <point x="179" y="0" type="line"/>
    </contour>
  </outline>
</glyph>
<glyph name="ampersand" format="2">
  <advance width="637"/>
  <unicode hex="0026"/>
  <outline>
    <contour>
      <point x="234" y="430" type="line" smooth="yes"/>
      <point x="194" y="480"/>
      <point x="174" y="530"/>
      <point x="174" y="580" type="curve" smooth="yes"/>
      <point x="174" y="622"/>
      <point x="203" y="664"/>
      <point x="248" y="664" type="curve" smooth="yes"/>
      <point x="310" y="664"/>
      <point x="340" y="620"/>
      <point x="340" y="572" type="curve" smooth="yes"/>
      <point x="340" y="513"/>
      <point x="302" y="457"/>
      <point x="253" y="406" type="curve"/>
    </contour>
    <contour>
      <point x="377" y="78" type="curve" smooth="yes"/>
      <point x="381" y="82"/>
      <point x="385" y="86"/>
      <point x="388" y="90" type="curve"/>
      <point x="449" y="0" type="line"/>
      <point x="621" y="0" type="line"/>
      <point x="621" y="25" type="line"/>
      <point x="551" y="57"/>
      <point x="512" y="88"/>
      <point x="449" y="164" type="curve"/>
      <point x="482" y="212"/>
      <point x="506" y="266"/>
      <point x="537" y="348" type="curve"/>
      <point x="621" y="385" type="line"/>
      <point x="621" y="399" type="line"/>
      <point x="448" y="440" type="line"/>
      <point x="448" y="334"/>
      <point x="434" y="266"/>
      <point x="409" y="214" type="curve"/>
      <point x="288" y="364" type="line"/>
      <point x="345" y="420"/>
      <point x="432" y="501"/>
      <point x="432" y="591" type="curve" smooth="yes"/>
      <point x="432" y="671"/>
      <point x="382" y="724"/>
      <point x="281" y="724" type="curve" smooth="yes"/>
      <point x="183" y="724"/>
      <point x="101" y="642"/>
      <point x="101" y="538" type="curve" smooth="yes"/>
      <point x="101" y="494"/>
      <point x="110" y="436"/>
      <point x="167" y="364" type="curve"/>
      <point x="89" y="305"/>
      <point x="16" y="230"/>
      <point x="16" y="136" type="curve" smooth="yes"/>
      <point x="16" y="47"/>
      <point x="84" y="-14"/>
      <point x="172" y="-14" type="curve" smooth="yes"/>
      <point x="222" y="-14"/>
      <point x="302" y="3"/>
    </contour>
    <contour>
      <point x="114" y="161" type="curve" smooth="yes"/>
      <point x="114" y="227"/>
      <point x="151" y="273"/>
      <point x="203" y="320" type="curve"/>
      <point x="354" y="137" type="line"/>
      <point x="351" y="134"/>
      <point x="348" y="131"/>
      <point x="345" y="128" type="curve" smooth="yes"/>
      <point x="296" y="79"/>
      <point x="259" y="53"/>
      <point x="198" y="53" type="curve" smooth="yes"/>
      <point x="148" y="53"/>
      <point x="114" y="87"/>
    </contour>
  </outline>
</glyph>
<glyph name="quotesingle" format="2">
  <advance width="216"/>
  <unicode hex="0027"/>
  <outline>
    <contour>
      <point x="100" y="414" type="line"/>
      <point x="116" y="414" type="line"/>
      <point x="180" y="740" type="line"/>
      <point x="36" y="740" type="line"/>
    </contour>
  </outline>
</glyph>
<glyph name="parenleft" format="2">
  <advance width="290"/>
  <unicode hex="0028"/>
  <outline>
    <contour>
      <point x="278" y="-264" type="line"/>
      <point x="212" y="-143"/>
      <point x="162" y="100"/>
      <point x="162" y="267" type="curve" smooth="yes"/>
      <point x="162" y="444"/>
      <point x="211" y="596"/>
      <point x="280" y="746" type="curve"/>
      <point x="260" y="756" type="line"/>
      <point x="152" y="607"/>
      <point x="54" y="469"/>
      <point x="54" y="229" type="curve" smooth="yes"/>
      <point x="54" y="-11"/>
      <point x="157" y="-159"/>
      <point x="258" y="-274" type="curve"/>
    </contour>
  </outline>
</glyph>
<glyph name="parenright" format="2">
  <advance width="290"/>
  <unicode hex="0029"/>
  <outline>
    <contour>
      <point x="12" y="746" type="line"/>
      <point x="78" y="625"/>
      <point x="128" y="382"/>
      <point x="128" y="215" type="curve" smooth="yes"/>
      <point x="128" y="38"/>
      <point x="79" y="-114"/>
      <point x="10" y="-264" type="curve"/>
      <point x="30" y="-274" type="line"/>
      <point x="138" y="-125"/>
      <point x="236" y="13"/>
      <point x="236" y="253" type="curve" smooth="yes"/>
      <point x="236" y="493"/>
      <point x="133" y="641"/>
      <point x="32" y="756" type="curve"/>
    </contour>
  </outline>
</glyph>
<glyph name="asterisk" format="2">
  <advance width="350"/>
  <unicode hex="002A"/>
  <outline>
    <contour>
      <point x="314" y="423" type="line"/>
      <point x="185" y="535" type="line"/>
      <point x="346" y="535" type="line"/>
      <point x="317" y="634" type="line"/>
      <point x="179" y="552" type="line"/>
      <point x="227" y="710" type="line"/>
      <point x="113" y="710" type="line"/>
      <point x="161" y="552" type="line"/>
      <point x="19" y="634" type="line"/>
      <point x="-6" y="535" type="line"/>
      <point x="155" y="535" type="line"/>
      <point x="26" y="423" type="line"/>
      <point x="112" y="368" type="line"/>
      <point x="170" y="525" type="line"/>
      <point x="228" y="368" type="line"/>
    </contour>
  </outline>
</glyph>
<glyph name="plus" format="2">
  <advance width="520"/>
  <unicode hex="002B"/>
  <outline>
    <contour>
      <point x="215" y="38" type="line"/>
      <point x="306" y="38" type="line"/>
      <point x="280" y="249" type="line"/>
      <point x="477" y="249" type="line"/>
      <point x="477" y="309" type="line"/>
      <point x="280" y="309" type="line"/>
      <point x="306" y="520" type="line"/>
      <point x="215" y="520" type="line"/>
      <point x="240" y="309" type="line"/>
      <point x="43" y="309" type="line"/>
      <point x="43" y="249" type="line"/>
      <point x="240" y="249" type="line"/>
    </contour>
  </outline>
</glyph>
<glyph name="period" format="2">
  <advance width="276"/>
  <unicode hex="002E"/>
  <outline>
    <contour>
      <point x="138" y="-14" type="curve" smooth="yes"/>
      <point x="178" y="-14"/>
      <point x="208" y="18"/>
      <point x="208" y="56" type="curve" smooth="yes"/>
      <point x="208" y="94"/>
      <point x="178" y="126"/>
      <point x="138" y="126" type="curve" smooth="yes"/>
      <point x="99" y="126"/>
      <point x="68" y="94"/>
      <point x="68" y="56" type="curve" smooth="yes"/>
      <point x="68" y="18"/>
      <point x="99" y="-14"/>
    </contour>
  </outline>
</glyph>
<glyph name="slash" format="2">
  <advance width="267"/>
  <unicode hex="002F"/>
  <outline>
    <contour>
      <point x="-21" y="-260" type="line"/>
      <point x="-21" y="-250" type="line"/>
      <point x="124" y="255" type="line"/>
      <point x="203" y="740" type="line"/>
      <point x="303" y="740" type="line"/>
      <point x="303" y="730" type="line"/>
      <point x="158" y="225" type="line"/>
      <point x="79" y="-260" type="line"/>
    </contour>
  </outline>
</glyph>
<glyph name="one" format="2">
  <advance width="305"/>
  <unicode hex="0031"/>
  <outline>
    <contour>
      <point x="115" y="53" type="line"/>
      <point x="34" y="22" type="line"/>
      <point x="34" y="0" type="line"/>
      <point x="286" y="0" type="line"/>
      <point x="286" y="25" type="line"/>
      <point x="259" y="30"/>
      <point x="241" y="39"/>
      <point x="228" y="52" type="curve" smooth="yes"/>
      <point x="211" y="69"/>
      <point x="205" y="97"/>
      <point x="205" y="227" type="curve" smooth="yes"/>
      <point x="205" y="342" type="line"/>
      <point x="215" y="514" type="line"/>
      <point x="37" y="449" type="line"/>
      <point x="37" y="434" type="line"/>
      <point x="62" y="427"/>
      <point x="79" y="416"/>
      <point x="90" y="403" type="curve" smooth="yes"/>
      <point x="113" y="377"/>
      <point x="115" y="342"/>
      <point x="115" y="288" type="curve" smooth="yes"/>
    </contour>
  </outline>
</glyph>
<glyph name="two" format="2">
  <advance width="510"/>
  <unicode hex="0032"/>
  <outline>
    <contour>
      <point x="60" y="0" type="line"/>
      <point x="485" y="0" type="line"/>
      <point x="433" y="171" type="line"/>
      <point x="417" y="171" type="line"/>
      <point x="377" y="75" type="line"/>
      <point x="190" y="75" type="line"/>
      <point x="288" y="151"/>
      <point x="448" y="285"/>
      <point x="448" y="390" type="curve" smooth="yes"/>
      <point x="448" y="452"/>
      <point x="404" y="514"/>
      <point x="286" y="514" type="curve" smooth="yes"/>
      <point x="216" y="514"/>
      <point x="130" y="479"/>
      <point x="50" y="438" type="curve"/>
      <point x="111" y="264" type="line"/>
      <point x="127" y="264" type="line"/>
      <point x="173" y="446" type="line"/>
      <point x="242" y="446"/>
      <point x="311" y="446"/>
      <point x="337" y="420" type="curve" smooth="yes"/>
      <point x="348" y="409"/>
      <point x="354" y="394"/>
      <point x="354" y="376" type="curve" smooth="yes"/>
      <point x="354" y="291"/>
      <point x="170" y="134"/>
      <point x="50" y="13" type="curve"/>
    </contour>
  </outline>
</glyph>
<glyph name="three" format="2">
  <advance width="500"/>
  <unicode hex="0033"/>
  <outline>
    <contour>
      <point x="192" y="-170" type="curve" smooth="yes"/>
      <point x="344" y="-170"/>
      <point x="452" y="-82"/>
      <point x="452" y="52" type="curve" smooth="yes"/>
      <point x="452" y="119"/>
      <point x="409" y="178"/>
      <point x="309" y="194" type="curve"/>
      <point x="413" y="233"/>
      <point x="447" y="314"/>
      <point x="447" y="374" type="curve" smooth="yes"/>
      <point x="447" y="458"/>
      <point x="373" y="514"/>
      <point x="247" y="514" type="curve" smooth="yes"/>
      <point x="166" y="514"/>
      <point x="84" y="487"/>
      <point x="15" y="458" type="curve"/>
      <point x="77" y="294" type="line"/>
      <point x="93" y="294" type="line"/>
      <point x="146" y="452" type="line"/>
      <point x="242" y="452"/>
      <point x="297" y="447"/>
      <point x="327" y="417" type="curve" smooth="yes"/>
      <point x="342" y="402"/>
      <point x="355" y="380"/>
      <point x="355" y="343" type="curve" smooth="yes"/>
      <point x="355" y="259"/>
      <point x="273" y="201"/>
      <point x="136" y="201" type="curve"/>
      <point x="136" y="141" type="line"/>
      <point x="223" y="141" type="line" smooth="yes"/>
      <point x="308" y="141"/>
      <point x="360" y="87"/>
      <point x="360" y="8" type="curve" smooth="yes"/>
      <point x="360" y="-69"/>
      <point x="318" y="-110"/>
      <point x="247" y="-110" type="curve" smooth="yes"/>
      <point x="199" y="-110"/>
      <point x="164" y="-101"/>
      <point x="139" y="-92" type="curve"/>
      <point x="92" y="30" type="line"/>
      <point x="76" y="30" type="line"/>
      <point x="16" y="-150" type="line"/>
      <point x="76" y="-163"/>
      <point x="124" y="-170"/>
    </contour>
  </outline>
</glyph>
<glyph name="four" format="2">
  <advance width="512"/>
  <unicode hex="0034"/>
  <outline>
    <contour>
      <point x="336" y="503" type="line"/>
      <point x="120" y="85" type="line"/>
      <point x="297" y="85" type="line"/>
      <point x="331" y="247" type="line"/>
      <point x="347" y="247" type="line"/>
      <point x="381" y="85" type="line"/>
      <point x="496" y="85" type="line"/>
      <point x="496" y="0" type="line"/>
      <point x="369" y="0" type="line"/>
      <point x="369" y="-155" type="line"/>
      <point x="309" y="-155" type="line"/>
      <point x="309" y="0" type="line"/>
      <point x="27" y="0" type="line"/>
      <point x="182" y="448" type="line"/>
      <point x="325" y="514" type="line"/>
    </contour>
  </outline>
</glyph>
<glyph name="five" format="2">
  <advance width="534"/>
  <unicode hex="0035"/>
  <outline>
    <contour>
      <point x="31" y="-151" type="line"/>
      <point x="90" y="-163"/>
      <point x="146" y="-170"/>
      <point x="215" y="-170" type="curve" smooth="yes"/>
      <point x="361" y="-170"/>
      <point x="482" y="-88"/>
      <point x="482" y="44" type="curve" smooth="yes"/>
      <point x="482" y="158"/>
      <point x="347" y="237"/>
      <point x="142" y="243" type="curve"/>
      <point x="158" y="415" type="line"/>
      <point x="351" y="415" type="line"/>
      <point x="405" y="279" type="line"/>
      <point x="421" y="279" type="line"/>
      <point x="494" y="500" type="line"/>
      <point x="109" y="500" type="line"/>
      <point x="72" y="163" type="line"/>
      <point x="294" y="163"/>
      <point x="389" y="101"/>
      <point x="389" y="4" type="curve" smooth="yes"/>
      <point x="389" y="-30"/>
      <point x="377" y="-57"/>
      <point x="353" y="-80" type="curve" smooth="yes"/>
      <point x="331" y="-100"/>
      <point x="301" y="-110"/>
      <point x="256" y="-110" type="curve" smooth="yes"/>
      <point x="230" y="-110"/>
      <point x="195" y="-107"/>
      <point x="160" y="-100" type="curve"/>
      <point x="106" y="32" type="line"/>
      <point x="90" y="32" type="line"/>
    </contour>
  </outline>
</glyph>
<glyph name="six" format="2">
  <advance width="536"/>
  <unicode hex="0036"/>
  <outline>
    <contour>
      <point x="137" y="311" type="curve"/>
      <point x="180" y="330"/>
      <point x="223" y="345"/>
      <point x="276" y="345" type="curve" smooth="yes"/>
      <point x="348" y="345"/>
      <point x="399" y="304"/>
      <point x="399" y="201" type="curve" smooth="yes"/>
      <point x="399" y="98"/>
      <point x="359" y="58"/>
      <point x="291" y="58" type="curve" smooth="yes"/>
      <point x="193" y="58"/>
      <point x="137" y="144"/>
    </contour>
    <contour>
      <point x="449" y="460" type="line"/>
      <point x="505" y="646" type="line"/>
      <point x="479" y="653"/>
      <point x="441" y="664"/>
      <point x="379" y="664" type="curve" smooth="yes"/>
      <point x="182" y="664"/>
      <point x="46" y="497"/>
      <point x="46" y="262" type="curve" smooth="yes"/>
      <point x="46" y="103"/>
      <point x="129" y="-14"/>
      <point x="255" y="-14" type="curve" smooth="yes"/>
      <point x="384" y="-14"/>
      <point x="491" y="105"/>
      <point x="490" y="243" type="curve" smooth="yes"/>
      <point x="490" y="354"/>
      <point x="406" y="421"/>
      <point x="315" y="421" type="curve" smooth="yes"/>
      <point x="253" y="421"/>
      <point x="192" y="397"/>
      <point x="144" y="367" type="curve"/>
      <point x="144" y="438"/>
      <point x="167" y="506"/>
      <point x="207" y="546" type="curve" smooth="yes"/>
      <point x="231" y="570"/>
      <point x="267" y="598"/>
      <point x="327" y="598" type="curve" smooth="yes"/>
      <point x="347" y="598"/>
      <point x="368" y="596"/>
      <point x="392" y="589" type="curve"/>
      <point x="433" y="460" type="line"/>
    </contour>
  </outline>
</glyph>
<glyph name="seven" format="2">
  <advance width="489"/>
  <unicode hex="0037"/>
  <outline>
    <contour>
      <point x="59" y="-158" type="line"/>
      <point x="380" y="410" type="line"/>
      <point x="140" y="410" type="line"/>
      <point x="79" y="251" type="line"/>
      <point x="63" y="251" type="line"/>
      <point x="6" y="500" type="line"/>
      <point x="461" y="500" type="line"/>
      <point x="477" y="484" type="line"/>
      <point x="211" y="-105" type="line"/>
      <point x="71" y="-170" type="line"/>
    </contour>
  </outline>
</glyph>
<glyph name="eight" format="2">
  <advance width="515"/>
  <unicode hex="0038"/>
  <outline>
    <contour>
      <point x="175" y="422" type="curve" smooth="yes"/>
      <point x="155" y="442"/>
      <point x="142" y="468"/>
      <point x="142" y="504" type="curve" smooth="yes"/>
      <point x="142" y="526"/>
      <point x="150" y="547"/>
      <point x="165" y="562" type="curve" smooth="yes"/>
      <point x="184" y="581"/>
      <point x="210" y="595"/>
      <point x="247" y="595" type="curve" smooth="yes"/>
      <point x="329" y="595"/>
      <point x="372" y="548"/>
      <point x="372" y="490" type="curve" smooth="yes"/>
      <point x="372" y="436"/>
      <point x="346" y="392"/>
      <point x="305" y="353" type="curve"/>
      <point x="252" y="376"/>
      <point x="199" y="398"/>
    </contour>
    <contour>
      <point x="462" y="515" type="curve" smooth="yes"/>
      <point x="462" y="593"/>
      <point x="394" y="664"/>
      <point x="287" y="664" type="curve" smooth="yes"/>
      <point x="159" y="664"/>
      <point x="60" y="557"/>
      <point x="60" y="461" type="curve" smooth="yes"/>
      <point x="60" y="422"/>
      <point x="77" y="389"/>
      <point x="100" y="366" type="curve" smooth="yes"/>
      <point x="113" y="353"/>
      <point x="132" y="341"/>
      <point x="156" y="329" type="curve"/>
      <point x="93" y="276"/>
      <point x="41" y="204"/>
      <point x="41" y="135" type="curve" smooth="yes"/>
      <point x="41" y="57"/>
      <point x="111" y="-14"/>
      <point x="226" y="-14" type="curve" smooth="yes"/>
      <point x="363" y="-14"/>
      <point x="471" y="88"/>
      <point x="471" y="189" type="curve" smooth="yes"/>
      <point x="471" y="231"/>
      <point x="454" y="261"/>
      <point x="431" y="284" type="curve" smooth="yes"/>
      <point x="413" y="302"/>
      <point x="383" y="319"/>
      <point x="349" y="334" type="curve"/>
      <point x="408" y="380"/>
      <point x="462" y="443"/>
    </contour>
    <contour>
      <point x="133" y="163" type="curve" smooth="yes"/>
      <point x="133" y="225"/>
      <point x="158" y="269"/>
      <point x="196" y="310" type="curve"/>
      <point x="258" y="283"/>
      <point x="329" y="256"/>
      <point x="356" y="229" type="curve" smooth="yes"/>
      <point x="377" y="208"/>
      <point x="389" y="183"/>
      <point x="389" y="146" type="curve" smooth="yes"/>
      <point x="389" y="125"/>
      <point x="382" y="105"/>
      <point x="367" y="90" type="curve" smooth="yes"/>
      <point x="346" y="69"/>
      <point x="315" y="55"/>
      <point x="266" y="55" type="curve" smooth="yes"/>
      <point x="176" y="55"/>
      <point x="133" y="105"/>
    </contour>
  </outline>
</glyph>
<glyph name="nine" format="2">
  <advance width="537"/>
  <unicode hex="0039"/>
  <outline>
    <contour>
      <point x="429" y="189" type="curve"/>
      <point x="386" y="170"/>
      <point x="343" y="155"/>
      <point x="290" y="155" type="curve" smooth="yes"/>
      <point x="218" y="155"/>
      <point x="167" y="196"/>
      <point x="167" y="299" type="curve" smooth="yes"/>
      <point x="167" y="402"/>
      <point x="207" y="442"/>
      <point x="275" y="442" type="curve" smooth="yes"/>
      <point x="373" y="442"/>
      <point x="429" y="356"/>
    </contour>
    <contour>
      <point x="117" y="40" type="line"/>
      <point x="61" y="-146" type="line"/>
      <point x="87" y="-153"/>
      <point x="125" y="-164"/>
      <point x="187" y="-164" type="curve" smooth="yes"/>
      <point x="384" y="-164"/>
      <point x="520" y="3"/>
      <point x="520" y="238" type="curve" smooth="yes"/>
      <point x="520" y="397"/>
      <point x="437" y="514"/>
      <point x="311" y="514" type="curve" smooth="yes"/>
      <point x="182" y="514"/>
      <point x="75" y="395"/>
      <point x="76" y="257" type="curve" smooth="yes"/>
      <point x="76" y="146"/>
      <point x="160" y="79"/>
      <point x="251" y="79" type="curve" smooth="yes"/>
      <point x="313" y="79"/>
      <point x="374" y="103"/>
      <point x="422" y="133" type="curve"/>
      <point x="422" y="62"/>
      <point x="399" y="-6"/>
      <point x="359" y="-46" type="curve" smooth="yes"/>
      <point x="335" y="-70"/>
      <point x="299" y="-98"/>
      <point x="239" y="-98" type="curve" smooth="yes"/>
      <point x="219" y="-98"/>
      <point x="198" y="-96"/>
      <point x="174" y="-89" type="curve"/>
      <point x="133" y="40" type="line"/>
    </contour>
  </outline>
</glyph>
<glyph name="colon" format="2">
  <advance width="286"/>
  <unicode hex="003A"/>
  <outline>
    <contour>
      <point x="138" y="-14" type="curve" smooth="yes"/>
      <point x="178" y="-14"/>
      <point x="208" y="18"/>
      <point x="208" y="56" type="curve" smooth="yes"/>
      <point x="208" y="94"/>
      <point x="178" y="126"/>
      <point x="138" y="126" type="curve" smooth="yes"/>
      <point x="99" y="126"/>
      <point x="68" y="94"/>
      <point x="68" y="56" type="curve" smooth="yes"/>
      <point x="68" y="18"/>
      <point x="99" y="-14"/>
    </contour>
    <contour>
      <point x="138" y="358" type="curve" smooth="yes"/>
      <point x="178" y="358"/>
      <point x="208" y="390"/>
      <point x="208" y="428" type="curve" smooth="yes"/>
      <point x="208" y="466"/>
      <point x="178" y="498"/>
      <point x="138" y="498" type="curve" smooth="yes"/>
      <point x="99" y="498"/>
      <point x="68" y="466"/>
      <point x="68" y="428" type="curve" smooth="yes"/>
      <point x="68" y="390"/>
      <point x="99" y="358"/>
    </contour>
  </outline>
</glyph>
<glyph name="semicolon" format="2">
  <advance width="292"/>
  <unicode hex="003B"/>
  <outline>
    <contour>
      <point x="53" y="-155" type="line"/>
      <point x="69" y="-158" type="line"/>
      <point x="220" y="119" type="line"/>
      <point x="73" y="149" type="line"/>
    </contour>
    <contour>
      <point x="138" y="376" type="curve" smooth="yes"/>
      <point x="178" y="376"/>
      <point x="208" y="408"/>
      <point x="208" y="446" type="curve" smooth="yes"/>
      <point x="208" y="484"/>
      <point x="178" y="516"/>
      <point x="138" y="516" type="curve" smooth="yes"/>
      <point x="99" y="516"/>
      <point x="68" y="484"/>
      <point x="68" y="446" type="curve" smooth="yes"/>
      <point x="68" y="408"/>
      <point x="99" y="376"/>
    </contour>
  </outline>
</glyph>
<glyph name="equal" format="2">
  <advance width="446"/>
  <unicode hex="003D"/>
  <outline>
    <contour>
      <point x="43" y="350" type="line"/>
      <point x="403" y="350" type="line"/>
      <point x="403" y="410" type="line"/>
      <point x="43" y="410" type="line"/>
    </contour>
    <contour>
      <point x="43" y="150" type="line"/>
      <point x="403" y="150" type="line"/>
      <point x="403" y="210" type="line"/>
      <point x="43" y="210" type="line"/>
    </contour>
  </outline>
</glyph>
<glyph name="question" format="2">
  <advance width="382"/>
  <unicode hex="003F"/>
  <outline>
    <contour>
      <point x="167" y="235" type="line"/>
      <point x="212" y="415" type="line"/>
      <point x="319" y="488"/>
      <point x="379" y="556"/>
      <point x="379" y="618" type="curve" smooth="yes"/>
      <point x="379" y="677"/>
      <point x="332" y="724"/>
      <point x="216" y="724" type="curve" smooth="yes"/>
      <point x="143" y="724"/>
      <point x="60" y="700"/>
      <point x="-6" y="686" type="curve"/>
      <point x="41" y="506" type="line"/>
      <point x="57" y="506" type="line"/>
      <point x="114" y="661" type="line"/>
      <point x="222" y="657"/>
      <point x="247" y="648"/>
      <point x="269" y="626" type="curve" smooth="yes"/>
      <point x="280" y="615"/>
      <point x="285" y="602"/>
      <point x="285" y="584" type="curve" smooth="yes"/>
      <point x="285" y="525"/>
      <point x="223" y="476"/>
      <point x="105" y="410" type="curve"/>
      <point x="151" y="235" type="line"/>
    </contour>
    <contour>
      <point x="161" y="-14" type="curve" smooth="yes"/>
      <point x="201" y="-14"/>
      <point x="231" y="18"/>
      <point x="231" y="56" type="curve" smooth="yes"/>
      <point x="231" y="94"/>
      <point x="201" y="126"/>
      <point x="161" y="126" type="curve" smooth="yes"/>
      <point x="122" y="126"/>
      <point x="91" y="94"/>
      <point x="91" y="56" type="curve" smooth="yes"/>
      <point x="91" y="18"/>
      <point x="122" y="-14"/>
    </contour>
  </outline>
</glyph>
<glyph name="at" format="2">
  <advance width="843"/>
  <unicode hex="0040"/>
  <outline>
    <contour>
      <point x="490" y="85" type="line"/>
      <point x="468" y="76"/>
      <point x="426" y="61"/>
      <point x="393" y="61" type="curve" smooth="yes"/>
      <point x="338" y="61"/>
      <point x="317" y="93"/>
      <point x="317" y="137" type="curve" smooth="yes"/>
      <point x="317" y="156"/>
      <point x="319" y="165"/>
      <point x="323" y="181" type="curve"/>
      <point x="490" y="225" type="line"/>
    </contour>
    <contour>
      <point x="600" y="36" type="line"/>
      <point x="587" y="68"/>
      <point x="580" y="102"/>
      <point x="580" y="162" type="curve" smooth="yes"/>
      <point x="580" y="376" type="line" smooth="yes"/>
      <point x="580" y="465"/>
      <point x="542" y="514"/>
      <point x="444" y="514" type="curve" smooth="yes"/>
      <point x="211" y="514"/>
      <point x="50" y="327"/>
      <point x="50" y="123" type="curve" smooth="yes"/>
      <point x="50" y="-28"/>
      <point x="158" y="-190"/>
      <point x="374" y="-190" type="curve" smooth="yes"/>
      <point x="617" y="-190"/>
      <point x="790" y="13"/>
      <point x="790" y="293" type="curve" smooth="yes"/>
      <point x="790" y="563"/>
      <point x="654" y="704"/>
      <point x="397" y="704" type="curve" smooth="yes"/>
      <point x="291" y="704"/>
      <point x="120" y="668"/>
      <point x="44" y="645" type="curve"/>
      <point x="88" y="454" type="line"/>
      <point x="104" y="454" type="line"/>
      <point x="160" y="615" type="line"/>
      <point x="231" y="631"/>
      <point x="278" y="634"/>
      <point x="353" y="634" type="curve" smooth="yes"/>
      <point x="568" y="634"/>
      <point x="705" y="527"/>
      <point x="705" y="247" type="curve" smooth="yes"/>
      <point x="705" y="-4"/>
      <point x="590" y="-120"/>
      <point x="401" y="-120" type="curve" smooth="yes"/>
      <point x="230" y="-120"/>
      <point x="135" y="-3"/>
      <point x="135" y="165" type="curve" smooth="yes"/>
      <point x="135" y="292"/>
      <point x="213" y="438"/>
      <point x="386" y="438" type="curve" smooth="yes"/>
      <point x="463" y="438"/>
      <point x="490" y="408"/>
      <point x="490" y="350" type="curve" smooth="yes"/>
      <point x="490" y="287" type="line"/>
      <point x="386" y="259" type="line" smooth="yes"/>
      <point x="344" y="248"/>
      <point x="289" y="225"/>
      <point x="263" y="199" type="curve" smooth="yes"/>
      <point x="234" y="170"/>
      <point x="225" y="142"/>
      <point x="225" y="105" type="curve" smooth="yes"/>
      <point x="225" y="37"/>
      <point x="277" y="-14"/>
      <point x="358" y="-14" type="curve" smooth="yes"/>
      <point x="408" y="-14"/>
      <point x="450" y="15"/>
      <point x="490" y="39" type="curve"/>
      <point x="492" y="-15" type="line"/>
      <point x="600" y="22" type="line"/>
    </contour>
  </outline>
</glyph>
<glyph name="B" format="2">
  <advance width="631"/>
  <unicode hex="0042"/>
  <outline>
    <contour>
      <point x="340" y="652" type="line" smooth="yes"/>
      <point x="423" y="652"/>
      <point x="480" y="613"/>
      <point x="480" y="537" type="curve" smooth="yes"/>
      <point x="480" y="498"/>
      <point x="464" y="462"/>
      <point x="438" y="436" type="curve" smooth="yes"/>
      <point x="412" y="410"/>
      <point x="375" y="385"/>
      <point x="201" y="385" type="curve"/>
      <point x="201" y="652" type="line"/>
    </contour>
    <contour>
      <point x="26" y="710" type="line"/>
      <point x="26" y="685" type="line"/>
      <point x="53" y="680"/>
      <point x="71" y="671"/>
      <point x="84" y="658" type="curve" smooth="yes"/>
      <point x="101" y="641"/>
      <point x="107" y="613"/>
      <point x="107" y="483" type="curve" smooth="yes"/>
      <point x="107" y="53" type="line"/>
      <point x="26" y="22" type="line"/>
      <point x="26" y="0" type="line"/>
      <point x="286" y="0" type="line" smooth="yes"/>
      <point x="482" y="0"/>
      <point x="589" y="111"/>
      <point x="589" y="242" type="curve" smooth="yes"/>
      <point x="589" y="333"/>
      <point x="520" y="387"/>
      <point x="455" y="392" type="curve"/>
      <point x="530" y="422"/>
      <point x="576" y="493"/>
      <point x="576" y="570" type="curve" smooth="yes"/>
      <point x="576" y="653"/>
      <point x="500" y="710"/>
      <point x="390" y="710" type="curve" smooth="yes"/>
    </contour>
    <contour>
      <point x="201" y="341" type="line"/>
      <point x="377" y="341"/>
      <point x="433" y="322"/>
      <point x="462" y="293" type="curve" smooth="yes"/>
      <point x="483" y="272"/>
      <point x="493" y="242"/>
      <point x="493" y="207" type="curve" smooth="yes"/>
      <point x="493" y="166"/>
      <point x="481" y="128"/>
      <point x="454" y="101" type="curve" smooth="yes"/>
      <point x="428" y="75"/>
      <point x="388" y="60"/>
      <point x="333" y="60" type="curve" smooth="yes"/>
      <point x="281" y="60"/>
      <point x="248" y="68"/>
      <point x="201" y="84" type="curve"/>
    </contour>
  </outline>
</glyph>
<glyph name="C" format="2">
  <advance width="666"/>
  <unicode hex="0043"/>
  <outline>
    <contour>
      <point x="635" y="25" type="curve"/>
      <point x="564" y="256" type="line"/>
      <point x="549" y="256" type="line"/>
      <point x="495" y="49" type="line"/>
      <point x="332" y="52"/>
      <point x="275" y="70"/>
      <point x="219" y="126" type="curve" smooth="yes"/>
      <point x="167" y="178"/>
      <point x="142" y="256"/>
      <point x="142" y="354" type="curve" smooth="yes"/>
      <point x="142" y="440"/>
      <point x="162" y="525"/>
      <point x="219" y="582" type="curve" smooth="yes"/>
      <point x="260" y="623"/>
      <point x="321" y="652"/>
      <point x="396" y="652" type="curve" smooth="yes"/>
      <point x="432" y="652"/>
      <point x="469" y="645"/>
      <point x="499" y="638" type="curve"/>
      <point x="549" y="464" type="line"/>
      <point x="564" y="464" type="line"/>
      <point x="628" y="699" type="line"/>
      <point x="567" y="716"/>
      <point x="506" y="724"/>
      <point x="444" y="724" type="curve" smooth="yes"/>
      <point x="337" y="724"/>
      <point x="240" y="680"/>
      <point x="168" y="608" type="curve" smooth="yes"/>
      <point x="93" y="533"/>
      <point x="46" y="428"/>
      <point x="46" y="308" type="curve" smooth="yes"/>
      <point x="46" y="219"/>
      <point x="74" y="135"/>
      <point x="134" y="75" type="curve" smooth="yes"/>
      <point x="189" y="20"/>
      <point x="269" y="-14"/>
      <point x="378" y="-14" type="curve" smooth="yes"/>
      <point x="464" y="-14"/>
      <point x="543" y="-2"/>
    </contour>
  </outline>
</glyph>
<glyph name="F" format="2">
  <advance width="591"/>
  <unicode hex="0046"/>
  <outline>
    <contour>
      <point x="26" y="0" type="line"/>
      <point x="26" y="22" type="line"/>
      <point x="107" y="53" type="line"/>
      <point x="107" y="483" type="line" smooth="yes"/>
      <point x="107" y="613"/>
      <point x="101" y="641"/>
      <point x="84" y="658" type="curve" smooth="yes"/>
      <point x="71" y="671"/>
      <point x="53" y="680"/>
      <point x="26" y="685" type="curve"/>
      <point x="26" y="710" type="line"/>
      <point x="594" y="710" type="line"/>
      <point x="531" y="471" type="line"/>
      <point x="515" y="471" type="line"/>
      <point x="453" y="639" type="line"/>
      <point x="201" y="650" type="line"/>
      <point x="201" y="354" type="line"/>
      <point x="439" y="402" type="line"/>
      <point x="439" y="276" type="line"/>
      <point x="201" y="324" type="line"/>
      <point x="201" y="227" type="line" smooth="yes"/>
      <point x="201" y="97"/>
      <point x="207" y="69"/>
      <point x="224" y="52" type="curve" smooth="yes"/>
      <point x="237" y="39"/>
      <point x="255" y="30"/>
      <point x="282" y="25" type="curve"/>
      <point x="282" y="0" type="line"/>
    </contour>
  </outline>
</glyph>
<glyph name="H" format="2">
  <advance width="772"/>
  <unicode hex="0048"/>
  <outline>
    <contour>
      <point x="571" y="53" type="line"/>
      <point x="490" y="22" type="line"/>
      <point x="490" y="0" type="line"/>
      <point x="746" y="0" type="line"/>
      <point x="746" y="25" type="line"/>
      <point x="719" y="30"/>
      <point x="701" y="39"/>
      <point x="688" y="52" type="curve" smooth="yes"/>
      <point x="671" y="69"/>
      <point x="665" y="97"/>
      <point x="665" y="227" type="curve" smooth="yes"/>
      <point x="665" y="657" type="line"/>
      <point x="746" y="688" type="line"/>
      <point x="746" y="710" type="line"/>
      <point x="490" y="710" type="line"/>
      <point x="490" y="685" type="line"/>
      <point x="517" y="680"/>
      <point x="535" y="671"/>
      <point x="548" y="658" type="curve" smooth="yes"/>
      <point x="565" y="641"/>
      <point x="571" y="613"/>
      <point x="571" y="483" type="curve" smooth="yes"/>
      <point x="571" y="390" type="line"/>
      <point x="201" y="390" type="line"/>
      <point x="201" y="657" type="line"/>
      <point x="282" y="688" type="line"/>
      <point x="282" y="710" type="line"/>
      <point x="26" y="710" type="line"/>
      <point x="26" y="685" type="line"/>
      <point x="53" y="680"/>
      <point x="71" y="671"/>
      <point x="84" y="658" type="curve" smooth="yes"/>
      <point x="101" y="641"/>
      <point x="107" y="613"/>
      <point x="107" y="483" type="curve" smooth="yes"/>
      <point x="107" y="53" type="line"/>
      <point x="26" y="22" type="line"/>
      <point x="26" y="0" type="line"/>
      <point x="282" y="0" type="line"/>
      <point x="282" y="25" type="line"/>
      <point x="255" y="30"/>
      <point x="237" y="39"/>
      <point x="224" y="52" type="curve" smooth="yes"/>
      <point x="207" y="69"/>
      <point x="201" y="97"/>
      <point x="201" y="227" type="curve" smooth="yes"/>
      <point x="201" y="330" type="line"/>
      <point x="571" y="330" type="line"/>
    </contour>
  </outline>
</glyph>
<glyph name="J" format="2">
  <advance width="352"/>
  <unicode hex="004A"/>
  <outline>
    <contour>
      <point x="255" y="657" type="line"/>
      <point x="255" y="160" type="line"/>
      <point x="164" y="-16" type="line"/>
      <point x="-1" y="31" type="line"/>
      <point x="-1" y="51" type="line"/>
      <point x="161" y="96" type="line"/>
      <point x="161" y="483" type="line" smooth="yes"/>
      <point x="161" y="613"/>
      <point x="155" y="641"/>
      <point x="138" y="658" type="curve" smooth="yes"/>
      <point x="125" y="671"/>
      <point x="107" y="680"/>
      <point x="80" y="685" type="curve"/>
      <point x="80" y="710" type="line"/>
      <point x="336" y="710" type="line"/>
      <point x="336" y="688" type="line"/>
    </contour>
  </outline>
</glyph>
<glyph name="L" format="2">
  <advance width="581"/>
  <unicode hex="004C"/>
  <outline>
    <contour>
      <point x="201" y="50" type="line"/>
      <point x="433" y="70" type="line"/>
      <point x="485" y="239" type="line"/>
      <point x="501" y="239" type="line"/>
      <point x="554" y="0" type="line"/>
      <point x="26" y="0" type="line"/>
      <point x="26" y="20" type="line"/>
      <point x="107" y="53" type="line"/>
      <point x="107" y="483" type="line" smooth="yes"/>
      <point x="107" y="613"/>
      <point x="101" y="641"/>
      <point x="84" y="658" type="curve" smooth="yes"/>
      <point x="71" y="671"/>
      <point x="53" y="680"/>
      <point x="26" y="685" type="curve"/>
      <point x="26" y="710" type="line"/>
      <point x="282" y="710" type="line"/>
      <point x="282" y="685" type="line"/>
      <point x="201" y="657" type="line"/>
    </contour>
  </outline>
</glyph>
<glyph name="M" format="2">
  <advance width="830"/>
  <unicode hex="004D"/>
  <outline>
    <contour>
      <point x="133" y="735" type="line"/>
      <point x="75" y="60" type="line"/>
      <point x="15" y="22" type="line"/>
      <point x="15" y="0" type="line"/>
      <point x="233" y="0" type="line"/>
      <point x="233" y="25" type="line"/>
      <point x="200" y="36"/>
      <point x="178" y="49"/>
      <point x="165" y="62" type="curve" smooth="yes"/>
      <point x="148" y="79"/>
      <point x="139" y="111"/>
      <point x="149" y="227" type="curve" smooth="yes"/>
      <point x="172" y="493" type="line"/>
      <point x="389" y="71" type="line"/>
      <point x="404" y="71" type="line"/>
      <point x="624" y="498" type="line"/>
      <point x="663" y="53" type="line"/>
      <point x="582" y="22" type="line"/>
      <point x="582" y="0" type="line"/>
      <point x="815" y="0" type="line"/>
      <point x="815" y="25" type="line"/>
      <point x="803" y="30"/>
      <point x="789" y="40"/>
      <point x="780" y="49" type="curve" smooth="yes"/>
      <point x="762" y="67"/>
      <point x="753" y="95"/>
      <point x="745" y="185" type="curve" smooth="yes"/>
      <point x="697" y="735" type="line"/>
      <point x="681" y="735" type="line"/>
      <point x="415" y="219" type="line"/>
      <point x="149" y="735" type="line"/>
    </contour>
  </outline>
</glyph>
<glyph name="P" format="2">
  <advance width="590"/>
  <unicode hex="0050"/>
  <outline>
    <contour>
      <point x="289" y="650" type="line" smooth="yes"/>
      <point x="397" y="650"/>
      <point x="462" y="595"/>
      <point x="462" y="480" type="curve" smooth="yes"/>
      <point x="462" y="421"/>
      <point x="449" y="377"/>
      <point x="421" y="349" type="curve" smooth="yes"/>
      <point x="395" y="323"/>
      <point x="355" y="311"/>
      <point x="300" y="307" type="curve" smooth="yes"/>
      <point x="201" y="300" type="line"/>
      <point x="201" y="650" type="line"/>
    </contour>
    <contour>
      <point x="282" y="0" type="line"/>
      <point x="282" y="25" type="line"/>
      <point x="255" y="30"/>
      <point x="237" y="39"/>
      <point x="224" y="52" type="curve" smooth="yes"/>
      <point x="207" y="69"/>
      <point x="201" y="97"/>
      <point x="201" y="227" type="curve" smooth="yes"/>
      <point x="201" y="260" type="line"/>
      <point x="275" y="254" type="line" smooth="yes"/>
      <point x="370" y="246"/>
      <point x="443" y="274"/>
      <point x="493" y="324" type="curve" smooth="yes"/>
      <point x="539" y="370"/>
      <point x="560" y="432"/>
      <point x="560" y="497" type="curve" smooth="yes"/>
      <point x="560" y="625"/>
      <point x="480" y="710"/>
      <point x="334" y="710" type="curve" smooth="yes"/>
      <point x="26" y="710" type="line"/>
      <point x="26" y="685" type="line"/>
      <point x="53" y="680"/>
      <point x="71" y="671"/>
      <point x="84" y="658" type="curve" smooth="yes"/>
      <point x="101" y="641"/>
      <point x="107" y="613"/>
      <point x="107" y="483" type="curve" smooth="yes"/>
      <point x="107" y="53" type="line"/>
      <point x="26" y="22" type="line"/>
      <point x="26" y="0" type="line"/>
    </contour>
  </outline>
</glyph>
<glyph name="Q" format="2">
  <advance width="772"/>
  <unicode hex="0051"/>
  <outline>
    <contour>
      <point x="801" y="-147" type="curve"/>
      <point x="750" y="123" type="line"/>
      <point x="735" y="123" type="line"/>
      <point x="676" y="-65" type="line"/>
      <point x="644" y="-72"/>
      <point x="604" y="-81"/>
      <point x="580" y="-81" type="curve" smooth="yes"/>
      <point x="506" y="-81"/>
      <point x="420" y="-66"/>
      <point x="324" y="-14" type="curve"/>
      <point x="348" y="-14" type="line" smooth="yes"/>
      <point x="435" y="-14"/>
      <point x="523" y="27"/>
      <point x="589" y="93" type="curve" smooth="yes"/>
      <point x="665" y="169"/>
      <point x="716" y="278"/>
      <point x="716" y="396" type="curve" smooth="yes"/>
      <point x="716" y="585"/>
      <point x="591" y="724"/>
      <point x="411" y="724" type="curve" smooth="yes"/>
      <point x="225" y="724"/>
      <point x="46" y="537"/>
      <point x="46" y="317" type="curve" smooth="yes"/>
      <point x="46" y="217"/>
      <point x="81" y="124"/>
      <point x="172" y="33" type="curve" smooth="yes"/>
      <point x="298" y="-93"/>
      <point x="445" y="-170"/>
      <point x="622" y="-170" type="curve" smooth="yes"/>
      <point x="682" y="-170"/>
      <point x="737" y="-160"/>
    </contour>
    <contour>
      <point x="620" y="350" type="curve" smooth="yes"/>
      <point x="620" y="251"/>
      <point x="598" y="179"/>
      <point x="552" y="132" type="curve" smooth="yes"/>
      <point x="511" y="91"/>
      <point x="453" y="56"/>
      <point x="374" y="56" type="curve" smooth="yes"/>
      <point x="242" y="56"/>
      <point x="142" y="159"/>
      <point x="142" y="360" type="curve" smooth="yes"/>
      <point x="142" y="458"/>
      <point x="164" y="531"/>
      <point x="210" y="578" type="curve" smooth="yes"/>
      <point x="251" y="619"/>
      <point x="308" y="647"/>
      <point x="381" y="647" type="curve" smooth="yes"/>
      <point x="519" y="647"/>
      <point x="620" y="541"/>
    </contour>
  </outline>
</glyph>
<glyph name="V" format="2">
  <advance width="726"/>
  <unicode hex="0056"/>
  <outline>
    <contour>
      <point x="632" y="549" type="line"/>
      <point x="718" y="685" type="line"/>
      <point x="718" y="710" type="line"/>
      <point x="571" y="710" type="line"/>
      <point x="571" y="601"/>
      <point x="541" y="499"/>
      <point x="489" y="387" type="curve" smooth="yes"/>
      <point x="381" y="154" type="line"/>
      <point x="215" y="548" type="line"/>
      <point x="169" y="710" type="line"/>
      <point x="20" y="710" type="line"/>
      <point x="20" y="685" type="line"/>
      <point x="58" y="649"/>
      <point x="85" y="607"/>
      <point x="119" y="528" type="curve" smooth="yes"/>
      <point x="351" y="-14" type="line"/>
      <point x="367" y="-14" type="line"/>
    </contour>
  </outline>
</glyph>
<glyph name="X" format="2">
  <advance width="666"/>
  <unicode hex="0058"/>
  <outline>
    <contour>
      <point x="447" y="119" type="line"/>
      <point x="503" y="0" type="line"/>
      <point x="656" y="0" type="line"/>
      <point x="656" y="25" type="line"/>
      <point x="607" y="68"/>
      <point x="574" y="101"/>
      <point x="504" y="200" type="curve" smooth="yes"/>
      <point x="386" y="363" type="line"/>
      <point x="559" y="602" type="line"/>
      <point x="647" y="685" type="line"/>
      <point x="647" y="710" type="line"/>
      <point x="472" y="710" type="line"/>
      <point x="472" y="622"/>
      <point x="435" y="535"/>
      <point x="381" y="460" type="curve" smooth="yes"/>
      <point x="349" y="415" type="line"/>
      <point x="215" y="601" type="line"/>
      <point x="167" y="710" type="line"/>
      <point x="14" y="710" type="line"/>
      <point x="14" y="685" type="line"/>
      <point x="63" y="642"/>
      <point x="94" y="610"/>
      <point x="166" y="510" type="curve" smooth="yes"/>
      <point x="277" y="355" type="line"/>
      <point x="98" y="108" type="line"/>
      <point x="10" y="25" type="line"/>
      <point x="10" y="0" type="line"/>
      <point x="185" y="0" type="line"/>
      <point x="185" y="88"/>
      <point x="222" y="175"/>
      <point x="276" y="250" type="curve" smooth="yes"/>
      <point x="315" y="303" type="line"/>
    </contour>
  </outline>
</glyph>
<glyph name="Y" format="2">
  <advance width="664"/>
  <unicode hex="0059"/>
  <outline>
    <contour>
      <point x="285" y="53" type="line"/>
      <point x="204" y="22" type="line"/>
      <point x="204" y="0" type="line"/>
      <point x="460" y="0" type="line"/>
      <point x="460" y="25" type="line"/>
      <point x="433" y="30"/>
      <point x="415" y="39"/>
      <point x="402" y="52" type="curve" smooth="yes"/>
      <point x="385" y="69"/>
      <point x="379" y="97"/>
      <point x="379" y="227" type="curve" smooth="yes"/>
      <point x="379" y="280" type="line"/>
      <point x="556" y="567" type="line"/>
      <point x="653" y="685" type="line"/>
      <point x="653" y="710" type="line"/>
      <point x="501" y="710" type="line"/>
      <point x="501" y="635"/>
      <point x="471" y="550"/>
      <point x="423" y="470" type="curve" smooth="yes"/>
      <point x="351" y="350" type="line"/>
      <point x="223" y="567" type="line"/>
      <point x="170" y="710" type="line"/>
      <point x="17" y="710" type="line"/>
      <point x="17" y="685" type="line"/>
      <point x="52" y="655"/>
      <point x="79" y="627"/>
      <point x="110" y="574" type="curve" smooth="yes"/>
      <point x="285" y="278" type="line"/>
    </contour>
  </outline>
</glyph>
<glyph name="Z" format="2">
  <advance width="632"/>
  <unicode hex="005A"/>
  <outline>
    <contour>
      <point x="581" y="710" type="line"/>
      <point x="54" y="710" type="line"/>
      <point x="99" y="461" type="line"/>
      <point x="118" y="461" type="line"/>
      <point x="179" y="645" type="line"/>
      <point x="458" y="660" type="line"/>
      <point x="48" y="14" type="line"/>
      <point x="58" y="0" type="line"/>
      <point x="601" y="0" type="line"/>
      <point x="556" y="253" type="line"/>
      <point x="537" y="253" type="line"/>
      <point x="476" y="65" type="line"/>
      <point x="181" y="50" type="line"/>
      <point x="591" y="696" type="line"/>
    </contour>
  </outline>
</glyph>
<glyph name="bracketleft" format="2">
  <advance width="370"/>
  <unicode hex="005B"/>
  <outline>
    <contour>
      <point x="109" y="756" type="line"/>
      <point x="362" y="720" type="line"/>
      <point x="362" y="706" type="line"/>
      <point x="199" y="657" type="line"/>
      <point x="199" y="-175" type="line"/>
      <point x="362" y="-224" type="line"/>
      <point x="362" y="-238" type="line"/>
      <point x="109" y="-274" type="line"/>
    </contour>
  </outline>
</glyph>
<glyph name="backslash" format="2">
  <advance width="267"/>
  <unicode hex="005C"/>
  <outline>
    <contour>
      <point x="302" y="-260" type="line"/>
      <point x="302" y="-250" type="line"/>
      <point x="157" y="255" type="line"/>
      <point x="78" y="740" type="line"/>
      <point x="-22" y="740" type="line"/>
      <point x="-22" y="730" type="line"/>
      <point x="123" y="225" type="line"/>
      <point x="202" y="-260" type="line"/>
    </contour>
  </outline>
</glyph>
<glyph name="bracketright" format="2">
  <advance width="370"/>
  <unicode hex="005D"/>
  <outline>
    <contour>
      <point x="261" y="-274" type="line"/>
      <point x="8" y="-238" type="line"/>
      <point x="8" y="-224" type="line"/>
      <point x="171" y="-175" type="line"/>
      <point x="171" y="657" type="line"/>
      <point x="8" y="706" type="line"/>
      <point x="8" y="720" type="line"/>
      <point x="261" y="756" type="line"/>
    </contour>
  </outline>
</glyph>
<glyph name="grave" format="2">
  <advance width="184"/>
  <unicode hex="0060"/>
  <outline>
    <contour>
      <point x="182" y="568" type="line"/>
      <point x="-7" y="678" type="line"/>
      <point x="88" y="770" type="line"/>
      <point x="104" y="770" type="line"/>
      <point x="194" y="578" type="line"/>
    </contour>
  </outline>
</glyph>
<glyph name="b" format="2">
  <advance width="595"/>
  <unicode hex="0062"/>
  <outline>
    <contour>
      <point x="231" y="-14" type="curve" smooth="yes"/>
      <point x="309" y="-14"/>
      <point x="391" y="13"/>
      <point x="457" y="79" type="curve" smooth="yes"/>
      <point x="507" y="129"/>
      <point x="543" y="202"/>
      <point x="543" y="303" type="curve" smooth="yes"/>
      <point x="543" y="429"/>
      <point x="465" y="514"/>
      <point x="353" y="514" type="curve" smooth="yes"/>
      <point x="284" y="514"/>
      <point x="233" y="487"/>
      <point x="194" y="459" type="curve"/>
      <point x="194" y="535" type="line"/>
      <point x="203" y="748" type="line"/>
      <point x="193" y="758" type="line"/>
      <point x="28" y="691" type="line"/>
      <point x="28" y="676" type="line"/>
      <point x="53" y="669"/>
      <point x="69" y="659"/>
      <point x="81" y="647" type="curve" smooth="yes"/>
      <point x="102" y="626"/>
      <point x="106" y="594"/>
      <point x="106" y="540" type="curve" smooth="yes"/>
      <point x="106" y="85" type="line"/>
      <point x="27" y="48" type="line"/>
      <point x="27" y="34" type="line"/>
      <point x="90" y="4"/>
      <point x="160" y="-14"/>
    </contour>
    <contour>
      <point x="196" y="71" type="curve"/>
      <point x="196" y="410" type="line"/>
      <point x="230" y="427"/>
      <point x="274" y="439"/>
      <point x="320" y="439" type="curve" smooth="yes"/>
      <point x="354" y="439"/>
      <point x="383" y="430"/>
      <point x="405" y="408" type="curve" smooth="yes"/>
      <point x="435" y="378"/>
      <point x="451" y="330"/>
      <point x="451" y="265" type="curve" smooth="yes"/>
      <point x="451" y="184"/>
      <point x="432" y="131"/>
      <point x="401" y="100" type="curve" smooth="yes"/>
      <point x="375" y="74"/>
      <point x="342" y="55"/>
      <point x="295" y="55" type="curve" smooth="yes"/>
      <point x="269" y="55"/>
      <point x="227" y="60"/>
    </contour>
  </outline>
</glyph>
<glyph name="c" format="2">
  <advance width="512"/>
  <unicode hex="0063"/>
  <outline>
    <contour>
      <point x="266" y="-14" type="curve" smooth="yes"/>
      <point x="142" y="-14"/>
      <point x="52" y="68"/>
      <point x="52" y="220" type="curve" smooth="yes"/>
      <point x="52" y="386"/>
      <point x="188" y="514"/>
      <point x="337" y="514" type="curve" smooth="yes"/>
      <point x="384" y="514"/>
      <point x="429" y="510"/>
      <point x="490" y="488" type="curve"/>
      <point x="424" y="306" type="line"/>
      <point x="408" y="306" type="line"/>
      <point x="358" y="432" type="line"/>
      <point x="334" y="439"/>
      <point x="309" y="443"/>
      <point x="285" y="443" type="curve" smooth="yes"/>
      <point x="245" y="443"/>
      <point x="214" y="429"/>
      <point x="191" y="406" type="curve" smooth="yes"/>
      <point x="158" y="373"/>
      <point x="146" y="319"/>
      <point x="146" y="254" type="curve" smooth="yes"/>
      <point x="146" y="126"/>
      <point x="201" y="67"/>
      <point x="281" y="67" type="curve" smooth="yes"/>
      <point x="367" y="67"/>
      <point x="427" y="122"/>
      <point x="463" y="185" type="curve"/>
      <point x="480" y="178" type="line"/>
      <point x="454" y="66"/>
      <point x="373" y="-14"/>
    </contour>
  </outline>
</glyph>
<glyph name="f" format="2">
  <advance width="343"/>
  <unicode hex="0066"/>
  <outline>
    <contour>
      <point x="115" y="435" type="line"/>
      <point x="37" y="435" type="line"/>
      <point x="37" y="500" type="line"/>
      <point x="108" y="500" type="line"/>
      <point x="180" y="754" type="line"/>
      <point x="397" y="713" type="line"/>
      <point x="397" y="699" type="line"/>
      <point x="207" y="645" type="line"/>
      <point x="207" y="500" type="line"/>
      <point x="319" y="500" type="line"/>
      <point x="319" y="435" type="line"/>
      <point x="205" y="435" type="line"/>
      <point x="205" y="227" type="line" smooth="yes"/>
      <point x="205" y="97"/>
      <point x="211" y="69"/>
      <point x="228" y="52" type="curve" smooth="yes"/>
      <point x="241" y="39"/>
      <point x="259" y="30"/>
      <point x="286" y="25" type="curve"/>
      <point x="286" y="0" type="line"/>
      <point x="34" y="0" type="line"/>
      <point x="34" y="22" type="line"/>
      <point x="115" y="53" type="line"/>
    </contour>
  </outline>
</glyph>
<glyph name="i" format="2">
  <advance width="305"/>
  <unicode hex="0069"/>
  <outline>
    <contour>
      <point x="115" y="53" type="line"/>
      <point x="34" y="22" type="line"/>
      <point x="34" y="0" type="line"/>
      <point x="286" y="0" type="line"/>
      <point x="286" y="25" type="line"/>
      <point x="259" y="30"/>
      <point x="241" y="39"/>
      <point x="228" y="52" type="curve" smooth="yes"/>
      <point x="211" y="69"/>
      <point x="205" y="97"/>
      <point x="205" y="227" type="curve" smooth="yes"/>
      <point x="205" y="342" type="line"/>
      <point x="215" y="514" type="line"/>
      <point x="37" y="449" type="line"/>
      <point x="37" y="434" type="line"/>
      <point x="62" y="427"/>
      <point x="79" y="416"/>
      <point x="90" y="403" type="curve" smooth="yes"/>
      <point x="113" y="377"/>
      <point x="115" y="342"/>
      <point x="115" y="288" type="curve" smooth="yes"/>
    </contour>
    <contour>
      <point x="152" y="600" type="curve" smooth="yes"/>
      <point x="194" y="600"/>
      <point x="227" y="634"/>
      <point x="227" y="675" type="curve" smooth="yes"/>
      <point x="227" y="716"/>
      <point x="194" y="750"/>
      <point x="152" y="750" type="curve" smooth="yes"/>
      <point x="111" y="750"/>
      <point x="76" y="716"/>
      <point x="76" y="675" type="curve" smooth="yes"/>
      <point x="76" y="634"/>
      <point x="111" y="600"/>
    </contour>
  </outline>
</glyph>
<glyph name="j" format="2">
  <advance width="290"/>
  <unicode hex="006A"/>
  <outline>
    <contour>
      <point x="110" y="290" type="line" smooth="yes"/>
      <point x="110" y="344"/>
      <point x="108" y="379"/>
      <point x="85" y="405" type="curve" smooth="yes"/>
      <point x="74" y="418"/>
      <point x="57" y="429"/>
      <point x="32" y="436" type="curve"/>
      <point x="32" y="451" type="line"/>
      <point x="210" y="516" type="line"/>
      <point x="200" y="342" type="line"/>
      <point x="200" y="-71" type="line"/>
      <point x="106" y="-274" type="line"/>
      <point x="-85" y="-221" type="line"/>
      <point x="-85" y="-201" type="line"/>
      <point x="110" y="-152" type="line"/>
    </contour>
    <contour>
      <point x="150" y="600" type="curve" smooth="yes"/>
      <point x="192" y="600"/>
      <point x="225" y="634"/>
      <point x="225" y="675" type="curve" smooth="yes"/>
      <point x="225" y="716"/>
      <point x="192" y="750"/>
      <point x="150" y="750" type="curve" smooth="yes"/>
      <point x="109" y="750"/>
      <point x="74" y="716"/>
      <point x="74" y="675" type="curve" smooth="yes"/>
      <point x="74" y="634"/>
      <point x="109" y="600"/>
    </contour>
  </outline>
</glyph>
<glyph name="k" format="2">
  <advance width="571"/>
  <unicode hex="006B"/>
  <outline>
    <contour>
      <point x="104" y="53" type="line"/>
      <point x="23" y="22" type="line"/>
      <point x="23" y="0" type="line"/>
      <point x="275" y="0" type="line"/>
      <point x="275" y="25" type="line"/>
      <point x="248" y="30"/>
      <point x="230" y="39"/>
      <point x="217" y="52" type="curve" smooth="yes"/>
      <point x="200" y="69"/>
      <point x="194" y="97"/>
      <point x="194" y="227" type="curve" smooth="yes"/>
      <point x="194" y="253" type="line"/>
      <point x="283" y="231" type="line"/>
      <point x="385" y="46" type="line" smooth="yes"/>
      <point x="411" y="-2"/>
      <point x="437" y="-14"/>
      <point x="471" y="-14" type="curve" smooth="yes"/>
      <point x="503" y="-14"/>
      <point x="535" y="0"/>
      <point x="574" y="37" type="curve"/>
      <point x="574" y="51" type="line"/>
      <point x="469" y="79" type="line"/>
      <point x="350" y="291" type="line"/>
      <point x="553" y="486" type="line"/>
      <point x="553" y="500" type="line"/>
      <point x="401" y="500" type="line"/>
      <point x="391" y="428"/>
      <point x="360" y="373"/>
      <point x="329" y="342" type="curve" smooth="yes"/>
      <point x="298" y="311"/>
      <point x="253" y="295"/>
      <point x="194" y="284" type="curve"/>
      <point x="194" y="535" type="line"/>
      <point x="203" y="748" type="line"/>
      <point x="193" y="758" type="line"/>
      <point x="26" y="691" type="line"/>
      <point x="26" y="676" type="line"/>
      <point x="51" y="669"/>
      <point x="67" y="659"/>
      <point x="79" y="647" type="curve" smooth="yes"/>
      <point x="100" y="626"/>
      <point x="104" y="594"/>
      <point x="104" y="540" type="curve" smooth="yes"/>
    </contour>
  </outline>
</glyph>
<glyph name="m" format="2">
  <advance width="931"/>
  <unicode hex="006D"/>
  <outline>
    <contour>
      <point x="741" y="53" type="line"/>
      <point x="660" y="22" type="line"/>
      <point x="660" y="0" type="line"/>
      <point x="912" y="0" type="line"/>
      <point x="912" y="25" type="line"/>
      <point x="885" y="30"/>
      <point x="867" y="39"/>
      <point x="854" y="52" type="curve" smooth="yes"/>
      <point x="837" y="69"/>
      <point x="831" y="97"/>
      <point x="831" y="227" type="curve" smooth="yes"/>
      <point x="831" y="350" type="line" smooth="yes"/>
      <point x="831" y="462"/>
      <point x="787" y="514"/>
      <point x="701" y="514" type="curve" smooth="yes"/>
      <point x="630" y="514"/>
      <point x="568" y="484"/>
      <point x="502" y="444" type="curve"/>
      <point x="481" y="491"/>
      <point x="445" y="514"/>
      <point x="388" y="514" type="curve" smooth="yes"/>
      <point x="315" y="514"/>
      <point x="251" y="482"/>
      <point x="205" y="450" type="curve"/>
      <point x="205" y="514" type="line"/>
      <point x="37" y="449" type="line"/>
      <point x="37" y="434" type="line"/>
      <point x="62" y="427"/>
      <point x="79" y="416"/>
      <point x="90" y="403" type="curve" smooth="yes"/>
      <point x="113" y="377"/>
      <point x="115" y="342"/>
      <point x="115" y="288" type="curve" smooth="yes"/>
      <point x="115" y="53" type="line"/>
      <point x="34" y="22" type="line"/>
      <point x="34" y="0" type="line"/>
      <point x="286" y="0" type="line"/>
      <point x="286" y="25" type="line"/>
      <point x="259" y="30"/>
      <point x="241" y="39"/>
      <point x="228" y="52" type="curve" smooth="yes"/>
      <point x="211" y="69"/>
      <point x="205" y="97"/>
      <point x="205" y="227" type="curve" smooth="yes"/>
      <point x="205" y="400" type="line"/>
      <point x="240" y="418"/>
      <point x="280" y="434"/>
      <point x="337" y="434" type="curve" smooth="yes"/>
      <point x="393" y="434"/>
      <point x="428" y="395"/>
      <point x="428" y="308" type="curve" smooth="yes"/>
      <point x="428" y="53" type="line"/>
      <point x="347" y="22" type="line"/>
      <point x="347" y="0" type="line"/>
      <point x="599" y="0" type="line"/>
      <point x="599" y="25" type="line"/>
      <point x="572" y="30"/>
      <point x="554" y="39"/>
      <point x="541" y="52" type="curve" smooth="yes"/>
      <point x="524" y="69"/>
      <point x="518" y="97"/>
      <point x="518" y="227" type="curve" smooth="yes"/>
      <point x="518" y="399" type="line"/>
      <point x="563" y="421"/>
      <point x="599" y="434"/>
      <point x="650" y="434" type="curve" smooth="yes"/>
      <point x="706" y="434"/>
      <point x="741" y="395"/>
      <point x="741" y="308" type="curve" smooth="yes"/>
    </contour>
  </outline>
</glyph>
<glyph name="n" format="2">
  <advance width="628"/>
  <unicode hex="006E"/>
  <outline>
    <contour>
      <point x="115" y="298" type="curve" smooth="yes"/>
      <point x="115" y="53" type="line"/>
      <point x="34" y="22" type="line"/>
      <point x="34" y="0" type="line"/>
      <point x="286" y="0" type="line"/>
      <point x="286" y="25" type="line"/>
      <point x="259" y="30"/>
      <point x="241" y="39"/>
      <point x="228" y="52" type="curve" smooth="yes"/>
      <point x="211" y="69"/>
      <point x="205" y="97"/>
      <point x="205" y="227" type="curve" smooth="yes"/>
      <point x="205" y="400" type="line"/>
      <point x="241" y="419"/>
      <point x="283" y="435"/>
      <point x="342" y="435" type="curve" smooth="yes"/>
      <point x="401" y="435"/>
      <point x="438" y="410"/>
      <point x="438" y="343" type="curve" smooth="yes"/>
      <point x="438" y="53" type="line"/>
      <point x="357" y="22" type="line"/>
      <point x="357" y="0" type="line"/>
      <point x="609" y="0" type="line"/>
      <point x="609" y="25" type="line"/>
      <point x="582" y="30"/>
      <point x="564" y="39"/>
      <point x="551" y="52" type="curve" smooth="yes"/>
      <point x="534" y="69"/>
      <point x="528" y="97"/>
      <point x="528" y="227" type="curve" smooth="yes"/>
      <point x="528" y="350" type="line" smooth="yes"/>
      <point x="528" y="462"/>
      <point x="476" y="514"/>
      <point x="389" y="514" type="curve" smooth="yes"/>
      <point x="315" y="514"/>
      <point x="255" y="481"/>
      <point x="205" y="450" type="curve"/>
      <point x="205" y="514" type="line"/>
      <point x="37" y="449" type="line"/>
      <point x="37" y="434" type="line"/>
      <point x="62" y="429"/>
      <point x="79" y="424"/>
      <point x="92" y="411" type="curve" smooth="yes"/>
      <point x="112" y="391"/>
      <point x="115" y="352"/>
    </contour>
  </outline>
</glyph>
<glyph name="o" format="2">
  <advance width="581"/>
  <unicode hex="006F"/>
  <outline>
    <contour>
      <point x="52" y="223" type="curve" smooth="yes"/>
      <point x="52" y="385"/>
      <point x="176" y="514"/>
      <point x="320" y="514" type="curve" smooth="yes"/>
      <point x="454" y="514"/>
      <point x="529" y="401"/>
      <point x="529" y="277" type="curve" smooth="yes"/>
      <point x="529" y="115"/>
      <point x="405" y="-14"/>
      <point x="261" y="-14" type="curve" smooth="yes"/>
      <point x="127" y="-14"/>
      <point x="52" y="99"/>
    </contour>
    <contour>
      <point x="437" y="230" type="curve" smooth="yes"/>
      <point x="437" y="303"/>
      <point x="423" y="364"/>
      <point x="389" y="398" type="curve" smooth="yes"/>
      <point x="357" y="430"/>
      <point x="320" y="442"/>
      <point x="282" y="442" type="curve" smooth="yes"/>
      <point x="238" y="442"/>
      <point x="210" y="431"/>
      <point x="188" y="409" type="curve" smooth="yes"/>
      <point x="159" y="380"/>
      <point x="144" y="333"/>
      <point x="144" y="270" type="curve" smooth="yes"/>
      <point x="144" y="197"/>
      <point x="158" y="136"/>
      <point x="192" y="102" type="curve" smooth="yes"/>
      <point x="224" y="70"/>
      <point x="261" y="58"/>
      <point x="299" y="58" type="curve" smooth="yes"/>
      <point x="343" y="58"/>
      <point x="371" y="69"/>
      <point x="393" y="91" type="curve" smooth="yes"/>
      <point x="422" y="120"/>
      <point x="437" y="167"/>
    </contour>
  </outline>
</glyph>
<glyph name="p" format="2">
  <advance width="604"/>
  <unicode hex="0070"/>
  <outline>
    <contour>
      <point x="205" y="77" type="curve"/>
      <point x="205" y="410" type="line"/>
      <point x="239" y="427"/>
      <point x="283" y="439"/>
      <point x="329" y="439" type="curve" smooth="yes"/>
      <point x="363" y="439"/>
      <point x="392" y="430"/>
      <point x="414" y="408" type="curve" smooth="yes"/>
      <point x="444" y="378"/>
      <point x="460" y="330"/>
      <point x="460" y="265" type="curve" smooth="yes"/>
      <point x="460" y="184"/>
      <point x="440" y="131"/>
      <point x="410" y="101" type="curve" smooth="yes"/>
      <point x="384" y="75"/>
      <point x="350" y="63"/>
      <point x="313" y="63" type="curve" smooth="yes"/>
      <point x="277" y="63"/>
      <point x="239" y="69"/>
    </contour>
    <contour>
      <point x="34" y="-260" type="line"/>
      <point x="286" y="-260" type="line"/>
      <point x="286" y="-235" type="line"/>
      <point x="259" y="-230"/>
      <point x="241" y="-221"/>
      <point x="228" y="-208" type="curve" smooth="yes"/>
      <point x="211" y="-191"/>
      <point x="205" y="-163"/>
      <point x="205" y="-33" type="curve" smooth="yes"/>
      <point x="205" y="-13" type="line"/>
      <point x="214" y="-14"/>
      <point x="222" y="-14"/>
      <point x="231" y="-14" type="curve" smooth="yes"/>
      <point x="309" y="-14"/>
      <point x="400" y="13"/>
      <point x="466" y="79" type="curve" smooth="yes"/>
      <point x="516" y="129"/>
      <point x="552" y="202"/>
      <point x="552" y="303" type="curve" smooth="yes"/>
      <point x="552" y="429"/>
      <point x="474" y="514"/>
      <point x="362" y="514" type="curve" smooth="yes"/>
      <point x="293" y="514"/>
      <point x="242" y="487"/>
      <point x="203" y="459" type="curve"/>
      <point x="203" y="524" type="line"/>
      <point x="24" y="451" type="line"/>
      <point x="24" y="436" type="line"/>
      <point x="53" y="429"/>
      <point x="73" y="418"/>
      <point x="86" y="405" type="curve" smooth="yes"/>
      <point x="112" y="379"/>
      <point x="115" y="344"/>
      <point x="115" y="270" type="curve" smooth="yes"/>
      <point x="115" y="-207" type="line"/>
      <point x="34" y="-238" type="line"/>
    </contour>
  </outline>
</glyph>
<glyph name="q" format="2">
  <advance width="604"/>
  <unicode hex="0071"/>
  <outline>
    <contour>
      <point x="489" y="416" type="line"/>
      <point x="568" y="453" type="line"/>
      <point x="568" y="467" type="line"/>
      <point x="505" y="497"/>
      <point x="435" y="514"/>
      <point x="364" y="514" type="curve" smooth="yes"/>
      <point x="286" y="514"/>
      <point x="204" y="488"/>
      <point x="138" y="422" type="curve" smooth="yes"/>
      <point x="88" y="372"/>
      <point x="52" y="299"/>
      <point x="52" y="198" type="curve" smooth="yes"/>
      <point x="52" y="72"/>
      <point x="130" y="-13"/>
      <point x="242" y="-13" type="curve" smooth="yes"/>
      <point x="311" y="-13"/>
      <point x="362" y="14"/>
      <point x="401" y="42" type="curve"/>
      <point x="401" y="-63" type="line" smooth="yes"/>
      <point x="401" y="-163"/>
      <point x="396" y="-191"/>
      <point x="381" y="-208" type="curve" smooth="yes"/>
      <point x="368" y="-222"/>
      <point x="350" y="-229"/>
      <point x="323" y="-235" type="curve"/>
      <point x="323" y="-260" type="line"/>
      <point x="547" y="-260" type="line"/>
      <point x="557" y="-235" type="line"/>
      <point x="540" y="-229"/>
      <point x="522" y="-222"/>
      <point x="509" y="-208" type="curve" smooth="yes"/>
      <point x="494" y="-191"/>
      <point x="489" y="-163"/>
      <point x="489" y="-63" type="curve" smooth="yes"/>
    </contour>
    <contour>
      <point x="399" y="430" type="curve"/>
      <point x="399" y="91" type="line"/>
      <point x="365" y="74"/>
      <point x="321" y="62"/>
      <point x="275" y="62" type="curve" smooth="yes"/>
      <point x="241" y="62"/>
      <point x="212" y="71"/>
      <point x="190" y="93" type="curve" smooth="yes"/>
      <point x="160" y="123"/>
      <point x="144" y="171"/>
      <point x="144" y="236" type="curve" smooth="yes"/>
      <point x="144" y="317"/>
      <point x="163" y="370"/>
      <point x="194" y="401" type="curve" smooth="yes"/>
      <point x="220" y="427"/>
      <point x="253" y="446"/>
      <point x="300" y="446" type="curve" smooth="yes"/>
      <point x="326" y="446"/>
      <point x="368" y="441"/>
    </contour>
  </outline>
</glyph>
<glyph name="t" format="2">
  <advance width="373"/>
  <unicode hex="0074"/>
  <outline>
    <contour>
      <point x="165" y="687" type="line"/>
      <point x="149" y="687" type="line"/>
      <point x="43" y="480" type="line"/>
      <point x="43" y="465" type="line"/>
      <point x="90" y="450"/>
      <point x="98" y="420"/>
      <point x="98" y="349" type="curve" smooth="yes"/>
      <point x="98" y="84" type="line" smooth="yes"/>
      <point x="98" y="17"/>
      <point x="137" y="-14"/>
      <point x="182" y="-14" type="curve" smooth="yes"/>
      <point x="236" y="-14"/>
      <point x="302" y="15"/>
      <point x="353" y="38" type="curve"/>
      <point x="353" y="55" type="line"/>
      <point x="188" y="84" type="line"/>
      <point x="188" y="435" type="line"/>
      <point x="349" y="435" type="line"/>
      <point x="349" y="500" type="line"/>
      <point x="188" y="500" type="line"/>
    </contour>
  </outline>
</glyph>
<glyph name="v" format="2">
  <advance width="523"/>
  <unicode hex="0076"/>
  <outline>
    <contour>
      <point x="459" y="381" type="line"/>
      <point x="521" y="483" type="line"/>
      <point x="516" y="500" type="line"/>
      <point x="397" y="500" type="line"/>
      <point x="395" y="408"/>
      <point x="373" y="317"/>
      <point x="316" y="195" type="curve" smooth="yes"/>
      <point x="281" y="120" type="line"/>
      <point x="165" y="377" type="line"/>
      <point x="133" y="500" type="line"/>
      <point x="2" y="500" type="line"/>
      <point x="2" y="475" type="line"/>
      <point x="31" y="438"/>
      <point x="49" y="413"/>
      <point x="82" y="343" type="curve" smooth="yes"/>
      <point x="250" y="-14" type="line"/>
      <point x="276" y="-14" type="line"/>
    </contour>
  </outline>
</glyph>
<glyph name="x" format="2">
  <advance width="537"/>
  <unicode hex="0078"/>
  <outline>
    <contour>
      <point x="330" y="46" type="line" smooth="yes"/>
      <point x="358" y="1"/>
      <point x="386" y="-14"/>
      <point x="420" y="-14" type="curve" smooth="yes"/>
      <point x="452" y="-14"/>
      <point x="491" y="8"/>
      <point x="520" y="28" type="curve"/>
      <point x="520" y="42" type="line"/>
      <point x="414" y="80" type="line"/>
      <point x="318" y="235" type="line"/>
      <point x="508" y="486" type="line"/>
      <point x="508" y="500" type="line"/>
      <point x="370" y="500" type="line"/>
      <point x="361" y="393"/>
      <point x="340" y="340"/>
      <point x="296" y="272" type="curve"/>
      <point x="226" y="385" type="line"/>
      <point x="155" y="515" type="line"/>
      <point x="9" y="454" type="line"/>
      <point x="9" y="440" type="line"/>
      <point x="78" y="423"/>
      <point x="113" y="398"/>
      <point x="143" y="349" type="curve" smooth="yes"/>
      <point x="196" y="263" type="line"/>
      <point x="16" y="14" type="line"/>
      <point x="16" y="0" type="line"/>
      <point x="154" y="0" type="line"/>
      <point x="159" y="91"/>
      <point x="181" y="157"/>
      <point x="220" y="223" type="curve"/>
    </contour>
  </outline>
</glyph>
<glyph name="z" format="2">
  <advance width="508"/>
  <unicode hex="007A"/>
  <outline>
    <contour>
      <point x="464" y="487" type="line"/>
      <point x="179" y="56" type="line"/>
      <point x="367" y="74" type="line"/>
      <point x="426" y="175" type="line"/>
      <point x="440" y="175" type="line"/>
      <point x="480" y="0" type="line"/>
      <point x="53" y="0" type="line"/>
      <point x="43" y="13" type="line"/>
      <point x="328" y="447" type="line"/>
      <point x="153" y="426" type="line"/>
      <point x="94" y="325" type="line"/>
      <point x="80" y="325" type="line"/>
      <point x="40" y="500" type="line"/>
      <point x="454" y="500" type="line"/>
    </contour>
  </outline>
</glyph>
<glyph name="braceleft" format="2">
  <advance width="380"/>
  <unicode hex="007B"/>
  <outline>
    <contour>
      <point x="233" y="103" type="line" smooth="yes"/>
      <point x="233" y="208"/>
      <point x="182" y="261"/>
      <point x="117" y="265" type="curve"/>
      <point x="168" y="277"/>
      <point x="233" y="309"/>
      <point x="233" y="415" type="curve" smooth="yes"/>
      <point x="233" y="669" type="line"/>
      <point x="358" y="710" type="line"/>
      <point x="358" y="724" type="line"/>
      <point x="308" y="743"/>
      <point x="271" y="754"/>
      <point x="238" y="754" type="curve" smooth="yes"/>
      <point x="159" y="754"/>
      <point x="147" y="695"/>
      <point x="147" y="617" type="curve" smooth="yes"/>
      <point x="147" y="431" type="line" smooth="yes"/>
      <point x="147" y="311"/>
      <point x="119" y="290"/>
      <point x="13" y="261" type="curve"/>
      <point x="13" y="247" type="line"/>
      <point x="119" y="209"/>
      <point x="147" y="197"/>
      <point x="147" y="77" type="curve" smooth="yes"/>
      <point x="147" y="-137" type="line" smooth="yes"/>
      <point x="147" y="-215"/>
      <point x="159" y="-274"/>
      <point x="238" y="-274" type="curve" smooth="yes"/>
      <point x="271" y="-274"/>
      <point x="308" y="-263"/>
      <point x="358" y="-244" type="curve"/>
      <point x="358" y="-230" type="line"/>
      <point x="233" y="-189" type="line"/>
    </contour>
  </outline>
</glyph>
<glyph name="bar" format="2">
  <advance width="260"/>
  <unicode hex="007C"/>
  <outline>
    <contour>
      <point x="100" y="-260" type="line"/>
      <point x="160" y="-260" type="line"/>
      <point x="160" y="800" type="line"/>
      <point x="100" y="800" type="line"/>
    </contour>
  </outline>
</glyph>
<glyph name="braceright" format="2">
  <advance width="380"/>
  <unicode hex="007D"/>
  <outline>
    <contour>
      <point x="147" y="379" type="line" smooth="yes"/>
      <point x="147" y="274"/>
      <point x="198" y="221"/>
      <point x="263" y="217" type="curve"/>
      <point x="212" y="205"/>
      <point x="147" y="173"/>
      <point x="147" y="67" type="curve" smooth="yes"/>
      <point x="147" y="-187" type="line"/>
      <point x="22" y="-228" type="line"/>
      <point x="22" y="-242" type="line"/>
      <point x="72" y="-261"/>
      <point x="109" y="-272"/>
      <point x="142" y="-272" type="curve" smooth="yes"/>
      <point x="221" y="-272"/>
      <point x="233" y="-213"/>
      <point x="233" y="-135" type="curve" smooth="yes"/>
      <point x="233" y="51" type="line" smooth="yes"/>
      <point x="233" y="171"/>
      <point x="261" y="192"/>
      <point x="367" y="221" type="curve"/>
      <point x="367" y="235" type="line"/>
      <point x="261" y="273"/>
      <point x="233" y="285"/>
      <point x="233" y="405" type="curve" smooth="yes"/>
      <point x="233" y="619" type="line" smooth="yes"/>
      <point x="233" y="697"/>
      <point x="221" y="756"/>
      <point x="142" y="756" type="curve" smooth="yes"/>
      <point x="109" y="756"/>
      <point x="72" y="745"/>
      <point x="22" y="726" type="curve"/>
      <point x="22" y="712" type="line"/>
      <point x="147" y="671" type="line"/>
    </contour>
  </outline>
</glyph>
<glyph name="exclamdown" format="2">
  <advance width="286"/>
  <unicode hex="00A1"/>
  <outline>
    <contour>
      <point x="135" y="265" type="line"/>
      <point x="77" y="-210" type="line"/>
      <point x="209" y="-210" type="line"/>
      <point x="151" y="265" type="line"/>
    </contour>
    <contour>
      <point x="148" y="514" type="curve" smooth="yes"/>
      <point x="108" y="514"/>
      <point x="78" y="482"/>
      <point x="78" y="444" type="curve" smooth="yes"/>
      <point x="78" y="406"/>
      <point x="108" y="374"/>
      <point x="148" y="374" type="curve" smooth="yes"/>
      <point x="187" y="374"/>
      <point x="218" y="406"/>
      <point x="218" y="444" type="curve" smooth="yes"/>
      <point x="218" y="482"/>
      <point x="187" y="514"/>
    </contour>
  </outline>
</glyph>
<glyph name="sterling" format="2">
  <advance width="472"/>
  <unicode hex="00A3"/>
  <outline>
    <contour>
      <point x="179" y="481" type="curve" smooth="yes"/>
      <point x="179" y="521"/>
      <point x="190" y="545"/>
      <point x="208" y="563" type="curve" smooth="yes"/>
      <point x="241" y="596"/>
      <point x="279" y="606"/>
      <point x="338" y="606" type="curve"/>
      <point x="381" y="446" type="line"/>
      <point x="402" y="446" type="line"/>
      <point x="466" y="643" type="line"/>
      <point x="415" y="656"/>
      <point x="373" y="664"/>
      <point x="311" y="664" type="curve" smooth="yes"/>
      <point x="193" y="664"/>
      <point x="76" y="588"/>
      <point x="76" y="465" type="curve" smooth="yes"/>
      <point x="76" y="421"/>
      <point x="88" y="383"/>
      <point x="103" y="347" type="curve"/>
      <point x="37" y="347" type="line"/>
      <point x="37" y="287" type="line"/>
      <point x="127" y="287" type="line"/>
      <point x="140" y="256"/>
      <point x="149" y="225"/>
      <point x="149" y="192" type="curve" smooth="yes"/>
      <point x="149" y="171"/>
      <point x="146" y="151"/>
      <point x="141" y="131" type="curve"/>
      <point x="118" y="136"/>
      <point x="90" y="139"/>
      <point x="55" y="139" type="curve"/>
      <point x="45" y="129" type="line"/>
      <point x="96" y="-14" type="line"/>
      <point x="112" y="-14" type="line"/>
      <point x="134" y="9"/>
      <point x="152" y="34"/>
      <point x="166" y="59" type="curve"/>
      <point x="214" y="23"/>
      <point x="247" y="-14"/>
      <point x="310" y="-14" type="curve" smooth="yes"/>
      <point x="399" y="-14"/>
      <point x="449" y="66"/>
      <point x="471" y="127" type="curve"/>
      <point x="455" y="141" type="line"/>
      <point x="423" y="108"/>
      <point x="391" y="82"/>
      <point x="327" y="82" type="curve" smooth="yes"/>
      <point x="265" y="82"/>
      <point x="233" y="99"/>
      <point x="192" y="115" type="curve"/>
      <point x="206" y="153"/>
      <point x="212" y="191"/>
      <point x="212" y="227" type="curve" smooth="yes"/>
      <point x="212" y="250"/>
      <point x="210" y="270"/>
      <point x="208" y="287" type="curve"/>
      <point x="356" y="287" type="line"/>
      <point x="356" y="347" type="line"/>
      <point x="196" y="347" type="line"/>
      <point x="188" y="383"/>
      <point x="179" y="420"/>
    </contour>
  </outline>
</glyph>
<glyph name="dieresis" format="2">
  <advance width="431"/>
  <unicode hex="00A8"/>
  <outline>
    <contour>
      <point x="115" y="590" type="curve" smooth="yes"/>
      <point x="156" y="590"/>
      <point x="185" y="624"/>
      <point x="185" y="665" type="curve" smooth="yes"/>
      <point x="185" y="706"/>
      <point x="156" y="740"/>
      <point x="115" y="740" type="curve" smooth="yes"/>
      <point x="75" y="740"/>
      <point x="44" y="706"/>
      <point x="44" y="665" type="curve" smooth="yes"/>
      <point x="44" y="624"/>
      <point x="75" y="590"/>
    </contour>
    <contour>
      <point x="316" y="590" type="curve" smooth="yes"/>
      <point x="357" y="590"/>
      <point x="386" y="624"/>
      <point x="386" y="665" type="curve" smooth="yes"/>
      <point x="386" y="706"/>
      <point x="357" y="740"/>
      <point x="316" y="740" type="curve" smooth="yes"/>
      <point x="275" y="740"/>
      <point x="245" y="706"/>
      <point x="245" y="665" type="curve" smooth="yes"/>
      <point x="245" y="624"/>
      <point x="275" y="590"/>
    </contour>
  </outline>
</glyph>
<glyph name="macron" format="2">
  <advance width="298"/>
  <unicode hex="00AF"/>
  <outline>
    <contour>
      <point x="0" y="649" type="line"/>
      <point x="298" y="649" type="line"/>
      <point x="298" y="589" type="line"/>
      <point x="0" y="589" type="line"/>
    </contour>
  </outline>
</glyph>
<glyph name="acute" format="2">
  <advance width="184"/>
  <unicode hex="00B4"/>
  <outline>
    <contour>
      <point x="15" y="566" type="line"/>
      <point x="162" y="724" type="line"/>
      <point x="54" y="776" type="line"/>
      <point x="41" y="768" type="line"/>
      <point x="4" y="572" type="line"/>
    </contour>
  </outline>
</glyph>
<glyph name="paragraph" format="2">
  <advance width="576"/>
  <unicode hex="00B6"/>
  <outline>
    <contour>
      <point x="349" y="53" type="line"/>
      <point x="409" y="53" type="line"/>
      <point x="409" y="657" type="line"/>
      <point x="349" y="657" type="line"/>
    </contour>
    <contour>
      <point x="469" y="227" type="line" smooth="yes"/>
      <point x="469" y="97"/>
      <point x="475" y="69"/>
      <point x="492" y="52" type="curve" smooth="yes"/>
      <point x="505" y="39"/>
      <point x="523" y="30"/>
      <point x="550" y="25" type="curve"/>
      <point x="550" y="0" type="line"/>
      <point x="208" y="0" type="line"/>
      <point x="208" y="22" type="line"/>
      <point x="289" y="53" type="line"/>
      <point x="289" y="250" type="line"/>
      <point x="246" y="250" type="line" smooth="yes"/>
      <point x="103" y="250"/>
      <point x="20" y="328"/>
      <point x="20" y="450" type="curve" smooth="yes"/>
      <point x="20" y="598"/>
      <point x="132" y="710"/>
      <point x="305" y="710" type="curve" smooth="yes"/>
      <point x="550" y="710" type="line"/>
      <point x="550" y="688" type="line"/>
      <point x="469" y="657" type="line"/>
    </contour>
  </outline>
</glyph>
<glyph name="periodcentered" format="2">
  <advance width="176"/>
  <unicode hex="00B7"/>
  <outline>
    <contour>
      <point x="88" y="286" type="curve" smooth="yes"/>
      <point x="128" y="286"/>
      <point x="158" y="318"/>
      <point x="158" y="356" type="curve" smooth="yes"/>
      <point x="158" y="394"/>
      <point x="128" y="426"/>
      <point x="88" y="426" type="curve" smooth="yes"/>
      <point x="49" y="426"/>
      <point x="18" y="394"/>
      <point x="18" y="356" type="curve" smooth="yes"/>
      <point x="18" y="318"/>
      <point x="49" y="286"/>
    </contour>
  </outline>
</glyph>
<glyph name="cedilla" format="2">
  <advance width="259"/>
  <unicode hex="00B8"/>
  <outline>
    <contour>
      <point x="91" y="0" type="line"/>
      <point x="50" y="-134" type="line"/>
      <point x="93" y="-134"/>
      <point x="149" y="-141"/>
      <point x="149" y="-175" type="curve" smooth="yes"/>
      <point x="149" y="-207"/>
      <point x="131" y="-224"/>
      <point x="93" y="-259" type="curve"/>
      <point x="104" y="-276" type="line"/>
      <point x="199" y="-234"/>
      <point x="232" y="-194"/>
      <point x="232" y="-143" type="curve" smooth="yes"/>
      <point x="232" y="-94"/>
      <point x="181" y="-67"/>
      <point x="141" y="-65" type="curve"/>
      <point x="117" y="0" type="line"/>
    </contour>
  </outline>
</glyph>
<glyph name="questiondown" format="2">
  <advance width="382"/>
  <unicode hex="00BF"/>
  <outline>
    <contour>
      <point x="232" y="265" type="line"/>
      <point x="187" y="85" type="line"/>
      <point x="80" y="12"/>
      <point x="20" y="-56"/>
      <point x="20" y="-118" type="curve" smooth="yes"/>
      <point x="20" y="-177"/>
      <point x="67" y="-224"/>
      <point x="183" y="-224" type="curve" smooth="yes"/>
      <point x="256" y="-224"/>
      <point x="339" y="-200"/>
      <point x="405" y="-186" type="curve"/>
      <point x="358" y="-6" type="line"/>
      <point x="342" y="-6" type="line"/>
      <point x="285" y="-161" type="line"/>
      <point x="177" y="-157"/>
      <point x="152" y="-148"/>
      <point x="130" y="-126" type="curve" smooth="yes"/>
      <point x="119" y="-115"/>
      <point x="114" y="-102"/>
      <point x="114" y="-84" type="curve" smooth="yes"/>
      <point x="114" y="-25"/>
      <point x="176" y="24"/>
      <point x="294" y="90" type="curve"/>
      <point x="248" y="265" type="line"/>
    </contour>
    <contour>
      <point x="238" y="514" type="curve" smooth="yes"/>
      <point x="198" y="514"/>
      <point x="168" y="482"/>
      <point x="168" y="444" type="curve" smooth="yes"/>
      <point x="168" y="406"/>
      <point x="198" y="374"/>
      <point x="238" y="374" type="curve" smooth="yes"/>
      <point x="277" y="374"/>
      <point x="308" y="406"/>
      <point x="308" y="444" type="curve" smooth="yes"/>
      <point x="308" y="482"/>
      <point x="277" y="514"/>
    </contour>
  </outline>
</glyph>
<glyph name="Aacute" format="2">
  <advance width="733"/>
  <unicode hex="00C1"/>
  <outline>
    <contour>
      <point x="540" y="141" type="line"/>
      <point x="573" y="0" type="line"/>
      <point x="722" y="0" type="line"/>
      <point x="722" y="22" type="line"/>
      <point x="684" y="61"/>
      <point x="659" y="104"/>
      <point x="623" y="182" type="curve" smooth="yes"/>
      <point x="376" y="724" type="line"/>
      <point x="360" y="724" type="line"/>
      <point x="86" y="109" type="line"/>
      <point x="12" y="22" type="line"/>
      <point x="12" y="0" type="line"/>
      <point x="134" y="0" type="line"/>
      <point x="154" y="67"/>
      <point x="178" y="136"/>
      <point x="208" y="215" type="curve"/>
      <point x="506" y="215" type="line"/>
    </contour>
    <contour>
      <point x="346" y="757" type="line"/>
      <point x="626" y="811" type="line"/>
      <point x="570" y="930" type="line"/>
      <point x="551" y="930" type="line"/>
      <point x="341" y="773" type="line"/>
    </contour>
    <contour>
      <point x="263" y="355" type="curve" smooth="yes"/>
      <point x="348" y="562" type="line"/>
      <point x="479" y="275" type="line"/>
      <point x="231" y="275" type="line"/>
      <point x="241" y="301"/>
      <point x="252" y="327"/>
    </contour>
  </outline>
</glyph>
<glyph name="Acircumflex" format="2">
  <advance width="733"/>
  <unicode hex="00C2"/>
  <outline>
    <contour>
      <point x="540" y="141" type="line"/>
      <point x="573" y="0" type="line"/>
      <point x="722" y="0" type="line"/>
      <point x="722" y="22" type="line"/>
      <point x="684" y="61"/>
      <point x="659" y="104"/>
      <point x="623" y="182" type="curve" smooth="yes"/>
      <point x="376" y="724" type="line"/>
      <point x="360" y="724" type="line"/>
      <point x="86" y="109" type="line"/>
      <point x="12" y="22" type="line"/>
      <point x="12" y="0" type="line"/>
      <point x="134" y="0" type="line"/>
      <point x="154" y="67"/>
      <point x="178" y="136"/>
      <point x="208" y="215" type="curve"/>
      <point x="506" y="215" type="line"/>
    </contour>
    <contour>
      <point x="395" y="919" type="line"/>
      <point x="379" y="919" type="line"/>
      <point x="195" y="761" type="line"/>
      <point x="203" y="746" type="line"/>
      <point x="377" y="804" type="line"/>
      <point x="561" y="746" type="line"/>
      <point x="569" y="761" type="line"/>
    </contour>
    <contour>
      <point x="263" y="355" type="curve" smooth="yes"/>
      <point x="348" y="562" type="line"/>
      <point x="479" y="275" type="line"/>
      <point x="231" y="275" type="line"/>
      <point x="241" y="301"/>
      <point x="252" y="327"/>
    </contour>
  </outline>
</glyph>
<glyph name="Atilde" format="2">
  <advance width="733"/>
  <unicode hex="00C3"/>
  <outline>
    <contour>
      <point x="540" y="141" type="line"/>
      <point x="573" y="0" type="line"/>
      <point x="722" y="0" type="line"/>
      <point x="722" y="22" type="line"/>
      <point x="684" y="61"/>
      <point x="659" y="104"/>
      <point x="623" y="182" type="curve" smooth="yes"/>
      <point x="376" y="724" type="line"/>
      <point x="360" y="724" type="line"/>
      <point x="86" y="109" type="line"/>
      <point x="12" y="22" type="line"/>
      <point x="12" y="0" type="line"/>
      <point x="134" y="0" type="line"/>
      <point x="154" y="67"/>
      <point x="178" y="136"/>
      <point x="208" y="215" type="curve"/>
      <point x="506" y="215" type="line"/>
    </contour>
    <contour>
      <point x="492" y="849" type="curve" smooth="yes"/>
      <point x="445" y="849"/>
      <point x="359" y="903"/>
      <point x="289" y="903" type="curve" smooth="yes"/>
      <point x="232" y="903"/>
      <point x="206" y="842"/>
      <point x="206" y="758" type="curve"/>
      <point x="222" y="758" type="line"/>
      <point x="241" y="807"/>
      <point x="264" y="812"/>
      <point x="286" y="812" type="curve" smooth="yes"/>
      <point x="333" y="812"/>
      <point x="419" y="758"/>
      <point x="489" y="758" type="curve" smooth="yes"/>
      <point x="546" y="758"/>
      <point x="572" y="821"/>
      <point x="572" y="903" type="curve"/>
      <point x="556" y="903" type="line"/>
      <point x="537" y="854"/>
      <point x="514" y="849"/>
    </contour>
    <contour>
      <point x="263" y="355" type="curve" smooth="yes"/>
      <point x="348" y="562" type="line"/>
      <point x="479" y="275" type="line"/>
      <point x="231" y="275" type="line"/>
      <point x="241" y="301"/>
      <point x="252" y="327"/>
    </contour>
  </outline>
</glyph>
<glyph name="Adieresis" format="2">
  <advance width="733"/>
  <unicode hex="00C4"/>
  <outline>
    <contour>
      <point x="540" y="141" type="line"/>
      <point x="573" y="0" type="line"/>
      <point x="722" y="0" type="line"/>
      <point x="722" y="22" type="line"/>
      <point x="684" y="61"/>
      <point x="659" y="104"/>
      <point x="623" y="182" type="curve" smooth="yes"/>
      <point x="376" y="724" type="line"/>
      <point x="360" y="724" type="line"/>
      <point x="86" y="109" type="line"/>
      <point x="12" y="22" type="line"/>
      <point x="12" y="0" type="line"/>
      <point x="134" y="0" type="line"/>
      <point x="154" y="67"/>
      <point x="178" y="136"/>
      <point x="208" y="215" type="curve"/>
      <point x="506" y="215" type="line"/>
    </contour>
    <contour>
      <point x="268" y="758" type="curve" smooth="yes"/>
      <point x="309" y="758"/>
      <point x="338" y="792"/>
      <point x="338" y="833" type="curve" smooth="yes"/>
      <point x="338" y="874"/>
      <point x="309" y="908"/>
      <point x="268" y="908" type="curve" smooth="yes"/>
      <point x="228" y="908"/>
      <point x="197" y="874"/>
      <point x="197" y="833" type="curve" smooth="yes"/>
      <point x="197" y="792"/>
      <point x="228" y="758"/>
    </contour>
    <contour>
      <point x="499" y="758" type="curve" smooth="yes"/>
      <point x="540" y="758"/>
      <point x="569" y="792"/>
      <point x="569" y="833" type="curve" smooth="yes"/>
      <point x="569" y="874"/>
      <point x="540" y="908"/>
      <point x="499" y="908" type="curve" smooth="yes"/>
      <point x="458" y="908"/>
      <point x="428" y="874"/>
      <point x="428" y="833" type="curve" smooth="yes"/>
      <point x="428" y="792"/>
      <point x="458" y="758"/>
    </contour>
    <contour>
      <point x="263" y="355" type="curve" smooth="yes"/>
      <point x="348" y="562" type="line"/>
      <point x="479" y="275" type="line"/>
      <point x="231" y="275" type="line"/>
      <point x="241" y="301"/>
      <point x="252" y="327"/>
    </contour>
  </outline>
</glyph>
<glyph name="Aring" format="2">
  <advance width="733"/>
  <unicode hex="00C5"/>
  <outline>
    <contour>
      <point x="540" y="141" type="line"/>
      <point x="573" y="0" type="line"/>
      <point x="722" y="0" type="line"/>
      <point x="722" y="22" type="line"/>
      <point x="684" y="61"/>
      <point x="659" y="104"/>
      <point x="623" y="182" type="curve" smooth="yes"/>
      <point x="376" y="724" type="line"/>
      <point x="360" y="724" type="line"/>
      <point x="86" y="109" type="line"/>
      <point x="12" y="22" type="line"/>
      <point x="12" y="0" type="line"/>
      <point x="134" y="0" type="line"/>
      <point x="154" y="67"/>
      <point x="178" y="136"/>
      <point x="208" y="215" type="curve"/>
      <point x="506" y="215" type="line"/>
    </contour>
    <contour>
      <point x="383" y="779" type="curve" smooth="yes"/>
      <point x="347" y="779"/>
      <point x="317" y="801"/>
      <point x="317" y="844" type="curve" smooth="yes"/>
      <point x="317" y="887"/>
      <point x="347" y="909"/>
      <point x="383" y="909" type="curve" smooth="yes"/>
      <point x="421" y="909"/>
      <point x="450" y="887"/>
      <point x="450" y="844" type="curve" smooth="yes"/>
      <point x="450" y="801"/>
      <point x="421" y="779"/>
    </contour>
    <contour>
      <point x="383" y="732" type="curve" smooth="yes"/>
      <point x="485" y="732"/>
      <point x="548" y="785"/>
      <point x="548" y="847" type="curve" smooth="yes"/>
      <point x="548" y="909"/>
      <point x="485" y="956"/>
      <point x="383" y="956" type="curve" smooth="yes"/>
      <point x="280" y="956"/>
      <point x="219" y="903"/>
      <point x="219" y="841" type="curve" smooth="yes"/>
      <point x="219" y="781"/>
      <point x="280" y="732"/>
    </contour>
    <contour>
      <point x="263" y="355" type="curve" smooth="yes"/>
      <point x="348" y="562" type="line"/>
      <point x="479" y="275" type="line"/>
      <point x="231" y="275" type="line"/>
      <point x="241" y="301"/>
      <point x="252" y="327"/>
    </contour>
  </outline>
</glyph>
<glyph name="AE" format="2">
  <advance width="893"/>
  <unicode hex="00C6"/>
  <outline>
    <contour>
      <point x="242" y="323" type="curve" smooth="yes"/>
      <point x="342" y="557" type="line"/>
      <point x="454" y="275" type="line"/>
      <point x="222" y="275" type="line"/>
      <point x="229" y="291"/>
      <point x="235" y="307"/>
    </contour>
    <contour>
      <point x="826" y="217" type="line"/>
      <point x="788" y="217" type="line"/>
      <point x="757" y="63" type="line"/>
      <point x="650" y="50" type="line"/>
      <point x="525" y="350" type="line"/>
      <point x="782" y="306" type="line"/>
      <point x="782" y="432" type="line"/>
      <point x="510" y="386" type="line"/>
      <point x="397" y="659" type="line"/>
      <point x="697" y="647" type="line"/>
      <point x="746" y="491" type="line"/>
      <point x="762" y="491" type="line"/>
      <point x="817" y="710" type="line"/>
      <point x="347" y="710" type="line"/>
      <point x="99" y="161" type="line"/>
      <point x="13" y="25" type="line"/>
      <point x="13" y="0" type="line"/>
      <point x="160" y="0" type="line"/>
      <point x="160" y="73"/>
      <point x="175" y="143"/>
      <point x="200" y="215" type="curve"/>
      <point x="478" y="215" type="line"/>
      <point x="499" y="162" type="line"/>
      <point x="545" y="0" type="line"/>
      <point x="867" y="0" type="line"/>
    </contour>
  </outline>
</glyph>
<glyph name="Ccedilla" format="2">
  <advance width="666"/>
  <unicode hex="00C7"/>
  <outline>
    <contour>
      <point x="635" y="25" type="curve"/>
      <point x="564" y="256" type="line"/>
      <point x="549" y="256" type="line"/>
      <point x="495" y="49" type="line"/>
      <point x="332" y="52"/>
      <point x="275" y="70"/>
      <point x="219" y="126" type="curve" smooth="yes"/>
      <point x="167" y="178"/>
      <point x="142" y="256"/>
      <point x="142" y="354" type="curve" smooth="yes"/>
      <point x="142" y="440"/>
      <point x="162" y="525"/>
      <point x="219" y="582" type="curve" smooth="yes"/>
      <point x="260" y="623"/>
      <point x="321" y="652"/>
      <point x="396" y="652" type="curve" smooth="yes"/>
      <point x="432" y="652"/>
      <point x="469" y="645"/>
      <point x="499" y="638" type="curve"/>
      <point x="549" y="464" type="line"/>
      <point x="564" y="464" type="line"/>
      <point x="628" y="699" type="line"/>
      <point x="567" y="716"/>
      <point x="506" y="724"/>
      <point x="444" y="724" type="curve" smooth="yes"/>
      <point x="337" y="724"/>
      <point x="240" y="680"/>
      <point x="168" y="608" type="curve" smooth="yes"/>
      <point x="93" y="533"/>
      <point x="46" y="428"/>
      <point x="46" y="308" type="curve" smooth="yes"/>
      <point x="46" y="219"/>
      <point x="74" y="135"/>
      <point x="134" y="75" type="curve" smooth="yes"/>
      <point x="187" y="22"/>
      <point x="264" y="-12"/>
      <point x="368" y="-14" type="curve"/>
      <point x="331" y="-134" type="line"/>
      <point x="374" y="-134"/>
      <point x="430" y="-141"/>
      <point x="430" y="-175" type="curve" smooth="yes"/>
      <point x="430" y="-207"/>
      <point x="412" y="-224"/>
      <point x="374" y="-259" type="curve"/>
      <point x="385" y="-276" type="line"/>
      <point x="480" y="-234"/>
      <point x="513" y="-194"/>
      <point x="513" y="-143" type="curve" smooth="yes"/>
      <point x="513" y="-94"/>
      <point x="462" y="-67"/>
      <point x="422" y="-65" type="curve"/>
      <point x="403" y="-14" type="line"/>
      <point x="480" y="-12"/>
      <point x="552" y="1"/>
    </contour>
  </outline>
</glyph>
<glyph name="Eacute" format="2">
  <advance width="625"/>
  <unicode hex="00C9"/>
  <outline>
    <contour>
      <point x="26" y="710" type="line"/>
      <point x="587" y="710" type="line"/>
      <point x="532" y="491" type="line"/>
      <point x="516" y="491" type="line"/>
      <point x="467" y="647" type="line"/>
      <point x="201" y="660" type="line"/>
      <point x="201" y="374" type="line"/>
      <point x="422" y="422" type="line"/>
      <point x="422" y="296" type="line"/>
      <point x="201" y="344" type="line"/>
      <point x="201" y="50" type="line"/>
      <point x="467" y="63" type="line"/>
      <point x="516" y="219" type="line"/>
      <point x="532" y="219" type="line"/>
      <point x="587" y="0" type="line"/>
      <point x="26" y="0" type="line"/>
      <point x="26" y="22" type="line"/>
      <point x="107" y="53" type="line"/>
      <point x="107" y="483" type="line" smooth="yes"/>
      <point x="107" y="613"/>
      <point x="101" y="641"/>
      <point x="84" y="658" type="curve" smooth="yes"/>
      <point x="71" y="671"/>
      <point x="53" y="680"/>
      <point x="26" y="685" type="curve"/>
    </contour>
    <contour>
      <point x="299" y="757" type="line"/>
      <point x="579" y="811" type="line"/>
      <point x="523" y="930" type="line"/>
      <point x="504" y="930" type="line"/>
      <point x="294" y="773" type="line"/>
    </contour>
  </outline>
</glyph>
<glyph name="Ecircumflex" format="2">
  <advance width="625"/>
  <unicode hex="00CA"/>
  <outline>
    <contour>
      <point x="26" y="710" type="line"/>
      <point x="587" y="710" type="line"/>
      <point x="532" y="491" type="line"/>
      <point x="516" y="491" type="line"/>
      <point x="467" y="647" type="line"/>
      <point x="201" y="660" type="line"/>
      <point x="201" y="374" type="line"/>
      <point x="422" y="422" type="line"/>
      <point x="422" y="296" type="line"/>
      <point x="201" y="344" type="line"/>
      <point x="201" y="50" type="line"/>
      <point x="467" y="63" type="line"/>
      <point x="516" y="219" type="line"/>
      <point x="532" y="219" type="line"/>
      <point x="587" y="0" type="line"/>
      <point x="26" y="0" type="line"/>
      <point x="26" y="22" type="line"/>
      <point x="107" y="53" type="line"/>
      <point x="107" y="483" type="line" smooth="yes"/>
      <point x="107" y="613"/>
      <point x="101" y="641"/>
      <point x="84" y="658" type="curve" smooth="yes"/>
      <point x="71" y="671"/>
      <point x="53" y="680"/>
      <point x="26" y="685" type="curve"/>
    </contour>
    <contour>
      <point x="348" y="919" type="line"/>
      <point x="522" y="761" type="line"/>
      <point x="514" y="746" type="line"/>
      <point x="330" y="804" type="line"/>
      <point x="156" y="746" type="line"/>
      <point x="148" y="761" type="line"/>
      <point x="332" y="919" type="line"/>
    </contour>
  </outline>
</glyph>
<glyph name="Iacute" format="2">
  <advance width="308"/>
  <unicode hex="00CD"/>
  <outline>
    <contour>
      <point x="201" y="657" type="line"/>
      <point x="282" y="688" type="line"/>
      <point x="282" y="710" type="line"/>
      <point x="26" y="710" type="line"/>
      <point x="26" y="685" type="line"/>
      <point x="53" y="680"/>
      <point x="71" y="671"/>
      <point x="84" y="658" type="curve" smooth="yes"/>
      <point x="101" y="641"/>
      <point x="107" y="613"/>
      <point x="107" y="483" type="curve" smooth="yes"/>
      <point x="107" y="53" type="line"/>
      <point x="26" y="22" type="line"/>
      <point x="26" y="0" type="line"/>
      <point x="282" y="0" type="line"/>
      <point x="282" y="25" type="line"/>
      <point x="255" y="30"/>
      <point x="237" y="39"/>
      <point x="224" y="52" type="curve" smooth="yes"/>
      <point x="207" y="69"/>
      <point x="201" y="97"/>
      <point x="201" y="227" type="curve" smooth="yes"/>
    </contour>
    <contour>
      <point x="114" y="757" type="line"/>
      <point x="394" y="811" type="line"/>
      <point x="338" y="930" type="line"/>
      <point x="319" y="930" type="line"/>
      <point x="109" y="773" type="line"/>
    </contour>
  </outline>
</glyph>
<glyph name="Idieresis" format="2">
  <advance width="308"/>
  <unicode hex="00CF"/>
  <outline>
    <contour>
      <point x="201" y="657" type="line"/>
      <point x="282" y="688" type="line"/>
      <point x="282" y="710" type="line"/>
      <point x="26" y="710" type="line"/>
      <point x="26" y="685" type="line"/>
      <point x="53" y="680"/>
      <point x="71" y="671"/>
      <point x="84" y="658" type="curve" smooth="yes"/>
      <point x="101" y="641"/>
      <point x="107" y="613"/>
      <point x="107" y="483" type="curve" smooth="yes"/>
      <point x="107" y="53" type="line"/>
      <point x="26" y="22" type="line"/>
      <point x="26" y="0" type="line"/>
      <point x="282" y="0" type="line"/>
      <point x="282" y="25" type="line"/>
      <point x="255" y="30"/>
      <point x="237" y="39"/>
      <point x="224" y="52" type="curve" smooth="yes"/>
      <point x="207" y="69"/>
      <point x="201" y="97"/>
      <point x="201" y="227" type="curve" smooth="yes"/>
    </contour>
    <contour>
      <point x="36" y="758" type="curve" smooth="yes"/>
      <point x="77" y="758"/>
      <point x="106" y="792"/>
      <point x="106" y="833" type="curve" smooth="yes"/>
      <point x="106" y="874"/>
      <point x="77" y="908"/>
      <point x="36" y="908" type="curve" smooth="yes"/>
      <point x="-4" y="908"/>
      <point x="-35" y="874"/>
      <point x="-35" y="833" type="curve" smooth="yes"/>
      <point x="-35" y="792"/>
      <point x="-4" y="758"/>
    </contour>
    <contour>
      <point x="267" y="758" type="curve" smooth="yes"/>
      <point x="308" y="758"/>
      <point x="337" y="792"/>
      <point x="337" y="833" type="curve" smooth="yes"/>
      <point x="337" y="874"/>
      <point x="308" y="908"/>
      <point x="267" y="908" type="curve" smooth="yes"/>
      <point x="226" y="908"/>
      <point x="196" y="874"/>
      <point x="196" y="833" type="curve" smooth="yes"/>
      <point x="196" y="792"/>
      <point x="226" y="758"/>
    </contour>
  </outline>
</glyph>
<glyph name="Ntilde" format="2">
  <advance width="764"/>
  <unicode hex="00D1"/>
  <outline>
    <contour>
      <point x="11" y="685" type="line"/>
      <point x="107" y="579" type="line"/>
      <point x="107" y="73" type="line"/>
      <point x="16" y="22" type="line"/>
      <point x="16" y="0" type="line"/>
      <point x="264" y="0" type="line"/>
      <point x="264" y="25" type="line"/>
      <point x="231" y="36"/>
      <point x="209" y="49"/>
      <point x="196" y="62" type="curve" smooth="yes"/>
      <point x="179" y="79"/>
      <point x="173" y="97"/>
      <point x="173" y="227" type="curve" smooth="yes"/>
      <point x="173" y="506" type="line"/>
      <point x="645" y="-14" type="line"/>
      <point x="667" y="-14" type="line"/>
      <point x="667" y="637" type="line"/>
      <point x="758" y="688" type="line"/>
      <point x="758" y="710" type="line"/>
      <point x="510" y="710" type="line"/>
      <point x="510" y="685" type="line"/>
      <point x="543" y="674"/>
      <point x="565" y="661"/>
      <point x="578" y="648" type="curve" smooth="yes"/>
      <point x="595" y="631"/>
      <point x="601" y="613"/>
      <point x="601" y="483" type="curve" smooth="yes"/>
      <point x="601" y="173" type="line"/>
      <point x="111" y="710" type="line"/>
      <point x="11" y="710" type="line"/>
    </contour>
    <contour>
      <point x="478" y="849" type="curve" smooth="yes"/>
      <point x="431" y="849"/>
      <point x="345" y="903"/>
      <point x="275" y="903" type="curve" smooth="yes"/>
      <point x="218" y="903"/>
      <point x="192" y="842"/>
      <point x="192" y="758" type="curve"/>
      <point x="208" y="758" type="line"/>
      <point x="227" y="807"/>
      <point x="250" y="812"/>
      <point x="272" y="812" type="curve" smooth="yes"/>
      <point x="319" y="812"/>
      <point x="405" y="758"/>
      <point x="475" y="758" type="curve" smooth="yes"/>
      <point x="532" y="758"/>
      <point x="558" y="821"/>
      <point x="558" y="903" type="curve"/>
      <point x="542" y="903" type="line"/>
      <point x="523" y="854"/>
      <point x="500" y="849"/>
    </contour>
  </outline>
</glyph>
<glyph name="Ograve" format="2">
  <advance width="762"/>
  <unicode hex="00D2"/>
  <outline>
    <contour>
      <point x="716" y="396" type="curve" smooth="yes"/>
      <point x="716" y="176"/>
      <point x="537" y="-14"/>
      <point x="351" y="-14" type="curve" smooth="yes"/>
      <point x="171" y="-14"/>
      <point x="46" y="128"/>
      <point x="46" y="317" type="curve" smooth="yes"/>
      <point x="46" y="537"/>
      <point x="225" y="724"/>
      <point x="411" y="724" type="curve" smooth="yes"/>
      <point x="591" y="724"/>
      <point x="716" y="585"/>
    </contour>
    <contour>
      <point x="620" y="350" type="curve" smooth="yes"/>
      <point x="620" y="541"/>
      <point x="519" y="647"/>
      <point x="381" y="647" type="curve" smooth="yes"/>
      <point x="308" y="647"/>
      <point x="251" y="619"/>
      <point x="210" y="578" type="curve" smooth="yes"/>
      <point x="164" y="531"/>
      <point x="142" y="458"/>
      <point x="142" y="360" type="curve" smooth="yes"/>
      <point x="142" y="168"/>
      <point x="243" y="63"/>
      <point x="381" y="63" type="curve" smooth="yes"/>
      <point x="454" y="63"/>
      <point x="511" y="91"/>
      <point x="552" y="132" type="curve" smooth="yes"/>
      <point x="598" y="179"/>
      <point x="620" y="251"/>
    </contour>
    <contour>
      <point x="456" y="752" type="line"/>
      <point x="461" y="768" type="line"/>
      <point x="255" y="930" type="line"/>
      <point x="236" y="930" type="line"/>
      <point x="181" y="812" type="line"/>
    </contour>
  </outline>
</glyph>
<glyph name="Otilde" format="2">
  <advance width="762"/>
  <unicode hex="00D5"/>
  <outline>
    <contour>
      <point x="716" y="396" type="curve" smooth="yes"/>
      <point x="716" y="176"/>
      <point x="537" y="-14"/>
      <point x="351" y="-14" type="curve" smooth="yes"/>
      <point x="171" y="-14"/>
      <point x="46" y="128"/>
      <point x="46" y="317" type="curve" smooth="yes"/>
      <point x="46" y="537"/>
      <point x="225" y="724"/>
      <point x="411" y="724" type="curve" smooth="yes"/>
      <point x="591" y="724"/>
      <point x="716" y="585"/>
    </contour>
    <contour>
      <point x="620" y="350" type="curve" smooth="yes"/>
      <point x="620" y="541"/>
      <point x="519" y="647"/>
      <point x="381" y="647" type="curve" smooth="yes"/>
      <point x="308" y="647"/>
      <point x="251" y="619"/>
      <point x="210" y="578" type="curve" smooth="yes"/>
      <point x="164" y="531"/>
      <point x="142" y="458"/>
      <point x="142" y="360" type="curve" smooth="yes"/>
      <point x="142" y="168"/>
      <point x="243" y="63"/>
      <point x="381" y="63" type="curve" smooth="yes"/>
      <point x="454" y="63"/>
      <point x="511" y="91"/>
      <point x="552" y="132" type="curve" smooth="yes"/>
      <point x="598" y="179"/>
      <point x="620" y="251"/>
    </contour>
    <contour>
      <point x="511" y="849" type="curve" smooth="yes"/>
      <point x="464" y="849"/>
      <point x="378" y="903"/>
      <point x="308" y="903" type="curve" smooth="yes"/>
      <point x="251" y="903"/>
      <point x="225" y="842"/>
      <point x="225" y="758" type="curve"/>
      <point x="241" y="758" type="line"/>
      <point x="260" y="807"/>
      <point x="283" y="812"/>
      <point x="305" y="812" type="curve" smooth="yes"/>
      <point x="352" y="812"/>
      <point x="438" y="758"/>
      <point x="508" y="758" type="curve" smooth="yes"/>
      <point x="565" y="758"/>
      <point x="591" y="821"/>
      <point x="591" y="903" type="curve"/>
      <point x="575" y="903" type="line"/>
      <point x="556" y="854"/>
      <point x="533" y="849"/>
    </contour>
  </outline>
</glyph>
<glyph name="Odieresis" format="2">
  <advance width="762"/>
  <unicode hex="00D6"/>
  <outline>
    <contour>
      <point x="716" y="396" type="curve" smooth="yes"/>
      <point x="716" y="176"/>
      <point x="537" y="-14"/>
      <point x="351" y="-14" type="curve" smooth="yes"/>
      <point x="171" y="-14"/>
      <point x="46" y="128"/>
      <point x="46" y="317" type="curve" smooth="yes"/>
      <point x="46" y="537"/>
      <point x="225" y="724"/>
      <point x="411" y="724" type="curve" smooth="yes"/>
      <point x="591" y="724"/>
      <point x="716" y="585"/>
    </contour>
    <contour>
      <point x="620" y="350" type="curve" smooth="yes"/>
      <point x="620" y="541"/>
      <point x="519" y="647"/>
      <point x="381" y="647" type="curve" smooth="yes"/>
      <point x="308" y="647"/>
      <point x="251" y="619"/>
      <point x="210" y="578" type="curve" smooth="yes"/>
      <point x="164" y="531"/>
      <point x="142" y="458"/>
      <point x="142" y="360" type="curve" smooth="yes"/>
      <point x="142" y="168"/>
      <point x="243" y="63"/>
      <point x="381" y="63" type="curve" smooth="yes"/>
      <point x="454" y="63"/>
      <point x="511" y="91"/>
      <point x="552" y="132" type="curve" smooth="yes"/>
      <point x="598" y="179"/>
      <point x="620" y="251"/>
    </contour>
    <contour>
      <point x="287" y="758" type="curve" smooth="yes"/>
      <point x="328" y="758"/>
      <point x="357" y="792"/>
      <point x="357" y="833" type="curve" smooth="yes"/>
      <point x="357" y="874"/>
      <point x="328" y="908"/>
      <point x="287" y="908" type="curve" smooth="yes"/>
      <point x="247" y="908"/>
      <point x="216" y="874"/>
      <point x="216" y="833" type="curve" smooth="yes"/>
      <point x="216" y="792"/>
      <point x="247" y="758"/>
    </contour>
    <contour>
      <point x="518" y="758" type="curve" smooth="yes"/>
      <point x="559" y="758"/>
      <point x="588" y="792"/>
      <point x="588" y="833" type="curve" smooth="yes"/>
      <point x="588" y="874"/>
      <point x="559" y="908"/>
      <point x="518" y="908" type="curve" smooth="yes"/>
      <point x="477" y="908"/>
      <point x="447" y="874"/>
      <point x="447" y="833" type="curve" smooth="yes"/>
      <point x="447" y="792"/>
      <point x="477" y="758"/>
    </contour>
  </outline>
</glyph>
<glyph name="Oslash" format="2">
  <advance width="762"/>
  <unicode hex="00D8"/>
  <outline>
    <contour>
      <point x="695" y="790" type="line"/>
      <point x="594" y="665" type="line"/>
      <point x="544" y="703"/>
      <point x="482" y="724"/>
      <point x="411" y="724" type="curve" smooth="yes"/>
      <point x="225" y="724"/>
      <point x="46" y="537"/>
      <point x="46" y="317" type="curve" smooth="yes"/>
      <point x="46" y="226"/>
      <point x="75" y="146"/>
      <point x="125" y="87" type="curve"/>
      <point x="22" y="-40" type="line"/>
      <point x="67" y="-80" type="line"/>
      <point x="169" y="46" type="line"/>
      <point x="218" y="8"/>
      <point x="281" y="-14"/>
      <point x="351" y="-14" type="curve" smooth="yes"/>
      <point x="537" y="-14"/>
      <point x="716" y="176"/>
      <point x="716" y="396" type="curve" smooth="yes"/>
      <point x="716" y="486"/>
      <point x="687" y="565"/>
      <point x="638" y="623" type="curve"/>
      <point x="741" y="750" type="line"/>
    </contour>
    <contour>
      <point x="142" y="360" type="curve" smooth="yes"/>
      <point x="142" y="458"/>
      <point x="164" y="531"/>
      <point x="210" y="578" type="curve" smooth="yes"/>
      <point x="251" y="619"/>
      <point x="308" y="647"/>
      <point x="381" y="647" type="curve" smooth="yes"/>
      <point x="440" y="647"/>
      <point x="493" y="628"/>
      <point x="533" y="590" type="curve"/>
      <point x="190" y="167" type="line"/>
      <point x="159" y="215"/>
      <point x="142" y="280"/>
    </contour>
    <contour>
      <point x="620" y="350" type="curve" smooth="yes"/>
      <point x="620" y="251"/>
      <point x="598" y="179"/>
      <point x="552" y="132" type="curve" smooth="yes"/>
      <point x="511" y="91"/>
      <point x="454" y="63"/>
      <point x="381" y="63" type="curve" smooth="yes"/>
      <point x="322" y="63"/>
      <point x="270" y="82"/>
      <point x="229" y="120" type="curve"/>
      <point x="572" y="542" type="line"/>
      <point x="603" y="494"/>
      <point x="620" y="429"/>
    </contour>
  </outline>
</glyph>
<glyph name="Ugrave" format="2">
  <advance width="749"/>
  <unicode hex="00D9"/>
  <outline>
    <contour>
      <point x="649" y="375" type="line" smooth="yes"/>
      <point x="649" y="119"/>
      <point x="505" y="-14"/>
      <point x="343" y="-14" type="curve" smooth="yes"/>
      <point x="188" y="-14"/>
      <point x="100" y="94"/>
      <point x="100" y="257" type="curve" smooth="yes"/>
      <point x="100" y="483" type="line" smooth="yes"/>
      <point x="100" y="613"/>
      <point x="94" y="641"/>
      <point x="77" y="658" type="curve" smooth="yes"/>
      <point x="64" y="671"/>
      <point x="46" y="680"/>
      <point x="19" y="685" type="curve"/>
      <point x="19" y="710" type="line"/>
      <point x="275" y="710" type="line"/>
      <point x="275" y="688" type="line"/>
      <point x="194" y="657" type="line"/>
      <point x="194" y="276" type="line" smooth="yes"/>
      <point x="194" y="125"/>
      <point x="272" y="69"/>
      <point x="387" y="69" type="curve" smooth="yes"/>
      <point x="440" y="69"/>
      <point x="482" y="81"/>
      <point x="510" y="109" type="curve" smooth="yes"/>
      <point x="541" y="140"/>
      <point x="555" y="190"/>
      <point x="555" y="261" type="curve" smooth="yes"/>
      <point x="555" y="483" type="line" smooth="yes"/>
      <point x="555" y="613"/>
      <point x="549" y="641"/>
      <point x="532" y="658" type="curve" smooth="yes"/>
      <point x="519" y="671"/>
      <point x="501" y="680"/>
      <point x="474" y="685" type="curve"/>
      <point x="474" y="710" type="line"/>
      <point x="730" y="710" type="line"/>
      <point x="730" y="688" type="line"/>
      <point x="649" y="657" type="line"/>
    </contour>
    <contour>
      <point x="417" y="752" type="line"/>
      <point x="422" y="768" type="line"/>
      <point x="216" y="930" type="line"/>
      <point x="197" y="930" type="line"/>
      <point x="142" y="812" type="line"/>
    </contour>
  </outline>
</glyph>
<glyph name="Udieresis" format="2">
  <advance width="749"/>
  <unicode hex="00DC"/>
  <outline>
    <contour>
      <point x="649" y="375" type="line" smooth="yes"/>
      <point x="649" y="119"/>
      <point x="505" y="-14"/>
      <point x="343" y="-14" type="curve" smooth="yes"/>
      <point x="188" y="-14"/>
      <point x="100" y="94"/>
      <point x="100" y="257" type="curve" smooth="yes"/>
      <point x="100" y="483" type="line" smooth="yes"/>
      <point x="100" y="613"/>
      <point x="94" y="641"/>
      <point x="77" y="658" type="curve" smooth="yes"/>
      <point x="64" y="671"/>
      <point x="46" y="680"/>
      <point x="19" y="685" type="curve"/>
      <point x="19" y="710" type="line"/>
      <point x="275" y="710" type="line"/>
      <point x="275" y="688" type="line"/>
      <point x="194" y="657" type="line"/>
      <point x="194" y="276" type="line" smooth="yes"/>
      <point x="194" y="125"/>
      <point x="272" y="69"/>
      <point x="387" y="69" type="curve" smooth="yes"/>
      <point x="440" y="69"/>
      <point x="482" y="81"/>
      <point x="510" y="109" type="curve" smooth="yes"/>
      <point x="541" y="140"/>
      <point x="555" y="190"/>
      <point x="555" y="261" type="curve" smooth="yes"/>
      <point x="555" y="483" type="line" smooth="yes"/>
      <point x="555" y="613"/>
      <point x="549" y="641"/>
      <point x="532" y="658" type="curve" smooth="yes"/>
      <point x="519" y="671"/>
      <point x="501" y="680"/>
      <point x="474" y="685" type="curve"/>
      <point x="474" y="710" type="line"/>
      <point x="730" y="710" type="line"/>
      <point x="730" y="688" type="line"/>
      <point x="649" y="657" type="line"/>
    </contour>
    <contour>
      <point x="248" y="758" type="curve" smooth="yes"/>
      <point x="289" y="758"/>
      <point x="318" y="792"/>
      <point x="318" y="833" type="curve" smooth="yes"/>
      <point x="318" y="874"/>
      <point x="289" y="908"/>
      <point x="248" y="908" type="curve" smooth="yes"/>
      <point x="208" y="908"/>
      <point x="177" y="874"/>
      <point x="177" y="833" type="curve" smooth="yes"/>
      <point x="177" y="792"/>
      <point x="208" y="758"/>
    </contour>
    <contour>
      <point x="479" y="758" type="curve" smooth="yes"/>
      <point x="520" y="758"/>
      <point x="549" y="792"/>
      <point x="549" y="833" type="curve" smooth="yes"/>
      <point x="549" y="874"/>
      <point x="520" y="908"/>
      <point x="479" y="908" type="curve" smooth="yes"/>
      <point x="438" y="908"/>
      <point x="408" y="874"/>
      <point x="408" y="833" type="curve" smooth="yes"/>
      <point x="408" y="792"/>
      <point x="438" y="758"/>
    </contour>
  </outline>
</glyph>
<glyph name="Thorn" format="2">
  <advance width="590"/>
  <unicode hex="00DE"/>
  <outline>
    <contour>
      <point x="289" y="535" type="line" smooth="yes"/>
      <point x="397" y="535"/>
      <point x="462" y="480"/>
      <point x="462" y="365" type="curve" smooth="yes"/>
      <point x="462" y="306"/>
      <point x="449" y="262"/>
      <point x="421" y="234" type="curve" smooth="yes"/>
      <point x="395" y="208"/>
      <point x="355" y="196"/>
      <point x="300" y="192" type="curve" smooth="yes"/>
      <point x="201" y="185" type="line"/>
      <point x="201" y="535" type="line"/>
    </contour>
    <contour>
      <point x="201" y="657" type="line"/>
      <point x="282" y="688" type="line"/>
      <point x="282" y="710" type="line"/>
      <point x="26" y="710" type="line"/>
      <point x="26" y="685" type="line"/>
      <point x="53" y="680"/>
      <point x="71" y="671"/>
      <point x="84" y="658" type="curve" smooth="yes"/>
      <point x="101" y="641"/>
      <point x="107" y="613"/>
      <point x="107" y="483" type="curve" smooth="yes"/>
      <point x="107" y="53" type="line"/>
      <point x="26" y="22" type="line"/>
      <point x="26" y="0" type="line"/>
      <point x="282" y="0" type="line"/>
      <point x="282" y="25" type="line"/>
      <point x="255" y="30"/>
      <point x="237" y="39"/>
      <point x="224" y="52" type="curve" smooth="yes"/>
      <point x="207" y="69"/>
      <point x="201" y="90"/>
      <point x="201" y="145" type="curve"/>
      <point x="275" y="139" type="line" smooth="yes"/>
      <point x="370" y="131"/>
      <point x="443" y="159"/>
      <point x="493" y="209" type="curve" smooth="yes"/>
      <point x="539" y="255"/>
      <point x="560" y="317"/>
      <point x="560" y="382" type="curve" smooth="yes"/>
      <point x="560" y="444"/>
      <point x="541" y="494"/>
      <point x="505" y="530" type="curve" smooth="yes"/>
      <point x="467" y="568"/>
      <point x="409" y="590"/>
      <point x="304" y="590" type="curve" smooth="yes"/>
      <point x="201" y="590" type="line"/>
    </contour>
  </outline>
</glyph>
<glyph name="germandbls" format="2">
  <advance width="625"/>
  <unicode hex="00DF"/>
  <outline>
    <contour>
      <point x="398" y="756" type="curve" smooth="yes"/>
      <point x="233" y="756"/>
      <point x="115" y="600"/>
      <point x="115" y="430" type="curve" smooth="yes"/>
      <point x="115" y="53" type="line"/>
      <point x="34" y="22" type="line"/>
      <point x="34" y="0" type="line"/>
      <point x="205" y="0" type="line"/>
      <point x="205" y="430" type="line" smooth="yes"/>
      <point x="205" y="601"/>
      <point x="260" y="681"/>
      <point x="351" y="681" type="curve" smooth="yes"/>
      <point x="414" y="681"/>
      <point x="450" y="641"/>
      <point x="450" y="580" type="curve" smooth="yes"/>
      <point x="450" y="513"/>
      <point x="394" y="447"/>
      <point x="323" y="376" type="curve"/>
      <point x="445" y="254" type="line" smooth="yes"/>
      <point x="485" y="214"/>
      <point x="500" y="168"/>
      <point x="500" y="132" type="curve" smooth="yes"/>
      <point x="500" y="81"/>
      <point x="474" y="43"/>
      <point x="372" y="43" type="curve"/>
      <point x="327" y="192" type="line"/>
      <point x="311" y="192" type="line"/>
      <point x="271" y="5" type="line"/>
      <point x="327" y="-6"/>
      <point x="358" y="-14"/>
      <point x="406" y="-14" type="curve" smooth="yes"/>
      <point x="516" y="-14"/>
      <point x="590" y="57"/>
      <point x="590" y="159" type="curve" smooth="yes"/>
      <point x="590" y="210"/>
      <point x="564" y="261"/>
      <point x="506" y="319" type="curve" smooth="yes"/>
      <point x="422" y="403" type="line"/>
      <point x="467" y="448"/>
      <point x="540" y="535"/>
      <point x="540" y="625" type="curve" smooth="yes"/>
      <point x="540" y="701"/>
      <point x="491" y="756"/>
    </contour>
  </outline>
</glyph>
<glyph name="atilde" format="2">
  <advance width="536"/>
  <unicode hex="00E3"/>
  <outline>
    <contour>
      <point x="346" y="85" type="line"/>
      <point x="320" y="73"/>
      <point x="269" y="58"/>
      <point x="229" y="58" type="curve" smooth="yes"/>
      <point x="169" y="58"/>
      <point x="153" y="98"/>
      <point x="153" y="142" type="curve" smooth="yes"/>
      <point x="153" y="151"/>
      <point x="154" y="165"/>
      <point x="156" y="175" type="curve"/>
      <point x="346" y="220" type="line"/>
    </contour>
    <contour>
      <point x="523" y="50" type="line"/>
      <point x="523" y="64" type="line"/>
      <point x="494" y="71"/>
      <point x="474" y="82"/>
      <point x="461" y="95" type="curve" smooth="yes"/>
      <point x="437" y="119"/>
      <point x="436" y="156"/>
      <point x="436" y="230" type="curve" smooth="yes"/>
      <point x="436" y="396" type="line" smooth="yes"/>
      <point x="436" y="471"/>
      <point x="371" y="514"/>
      <point x="301" y="514" type="curve" smooth="yes"/>
      <point x="215" y="514"/>
      <point x="123" y="471"/>
      <point x="59" y="436" type="curve"/>
      <point x="104" y="298" type="line"/>
      <point x="120" y="298" type="line"/>
      <point x="175" y="446" type="line"/>
      <point x="261" y="446"/>
      <point x="301" y="443"/>
      <point x="328" y="416" type="curve" smooth="yes"/>
      <point x="342" y="402"/>
      <point x="346" y="383"/>
      <point x="346" y="357" type="curve" smooth="yes"/>
      <point x="346" y="282" type="line"/>
      <point x="274" y="263" type="line" smooth="yes"/>
      <point x="195" y="242"/>
      <point x="124" y="217"/>
      <point x="94" y="187" type="curve" smooth="yes"/>
      <point x="70" y="163"/>
      <point x="61" y="135"/>
      <point x="61" y="105" type="curve" smooth="yes"/>
      <point x="61" y="37"/>
      <point x="117" y="-14"/>
      <point x="194" y="-14" type="curve" smooth="yes"/>
      <point x="252" y="-14"/>
      <point x="302" y="12"/>
      <point x="346" y="39" type="curve"/>
      <point x="348" y="-15" type="line"/>
    </contour>
    <contour>
      <point x="340" y="666" type="curve" smooth="yes"/>
      <point x="300" y="666"/>
      <point x="227" y="720"/>
      <point x="167" y="720" type="curve" smooth="yes"/>
      <point x="110" y="720"/>
      <point x="84" y="648"/>
      <point x="84" y="580" type="curve"/>
      <point x="100" y="580" type="line"/>
      <point x="119" y="629"/>
      <point x="142" y="634"/>
      <point x="164" y="634" type="curve" smooth="yes"/>
      <point x="204" y="634"/>
      <point x="277" y="580"/>
      <point x="337" y="580" type="curve" smooth="yes"/>
      <point x="394" y="580"/>
      <point x="420" y="652"/>
      <point x="420" y="720" type="curve"/>
      <point x="404" y="720" type="line"/>
      <point x="385" y="671"/>
      <point x="362" y="666"/>
    </contour>
  </outline>
</glyph>
<glyph name="adieresis" format="2">
  <advance width="536"/>
  <unicode hex="00E4"/>
  <outline>
    <contour>
      <point x="346" y="85" type="line"/>
      <point x="320" y="73"/>
      <point x="269" y="58"/>
      <point x="229" y="58" type="curve" smooth="yes"/>
      <point x="169" y="58"/>
      <point x="153" y="98"/>
      <point x="153" y="142" type="curve" smooth="yes"/>
      <point x="153" y="151"/>
      <point x="154" y="165"/>
      <point x="156" y="175" type="curve"/>
      <point x="346" y="220" type="line"/>
    </contour>
    <contour>
      <point x="523" y="50" type="line"/>
      <point x="523" y="64" type="line"/>
      <point x="494" y="71"/>
      <point x="474" y="82"/>
      <point x="461" y="95" type="curve" smooth="yes"/>
      <point x="437" y="119"/>
      <point x="436" y="156"/>
      <point x="436" y="230" type="curve" smooth="yes"/>
      <point x="436" y="396" type="line" smooth="yes"/>
      <point x="436" y="471"/>
      <point x="371" y="514"/>
      <point x="301" y="514" type="curve" smooth="yes"/>
      <point x="215" y="514"/>
      <point x="123" y="471"/>
      <point x="59" y="436" type="curve"/>
      <point x="104" y="298" type="line"/>
      <point x="120" y="298" type="line"/>
      <point x="175" y="446" type="line"/>
      <point x="261" y="446"/>
      <point x="301" y="443"/>
      <point x="328" y="416" type="curve" smooth="yes"/>
      <point x="342" y="402"/>
      <point x="346" y="383"/>
      <point x="346" y="357" type="curve" smooth="yes"/>
      <point x="346" y="282" type="line"/>
      <point x="274" y="263" type="line" smooth="yes"/>
      <point x="195" y="242"/>
      <point x="124" y="217"/>
      <point x="94" y="187" type="curve" smooth="yes"/>
      <point x="70" y="163"/>
      <point x="61" y="135"/>
      <point x="61" y="105" type="curve" smooth="yes"/>
      <point x="61" y="37"/>
      <point x="117" y="-14"/>
      <point x="194" y="-14" type="curve" smooth="yes"/>
      <point x="252" y="-14"/>
      <point x="302" y="12"/>
      <point x="346" y="39" type="curve"/>
      <point x="348" y="-15" type="line"/>
    </contour>
    <contour>
      <point x="163" y="590" type="curve" smooth="yes"/>
      <point x="204" y="590"/>
      <point x="233" y="624"/>
      <point x="233" y="665" type="curve" smooth="yes"/>
      <point x="233" y="706"/>
      <point x="204" y="740"/>
      <point x="163" y="740" type="curve" smooth="yes"/>
      <point x="123" y="740"/>
      <point x="92" y="706"/>
      <point x="92" y="665" type="curve" smooth="yes"/>
      <point x="92" y="624"/>
      <point x="123" y="590"/>
    </contour>
    <contour>
      <point x="364" y="590" type="curve" smooth="yes"/>
      <point x="405" y="590"/>
      <point x="434" y="624"/>
      <point x="434" y="665" type="curve" smooth="yes"/>
      <point x="434" y="706"/>
      <point x="405" y="740"/>
      <point x="364" y="740" type="curve" smooth="yes"/>
      <point x="323" y="740"/>
      <point x="293" y="706"/>
      <point x="293" y="665" type="curve" smooth="yes"/>
      <point x="293" y="624"/>
      <point x="323" y="590"/>
    </contour>
  </outline>
</glyph>
<glyph name="ae" format="2">
  <advance width="760"/>
  <unicode hex="00E6"/>
  <outline>
    <contour>
      <point x="219" y="58" type="curve" smooth="yes"/>
      <point x="167" y="58"/>
      <point x="153" y="98"/>
      <point x="153" y="142" type="curve" smooth="yes"/>
      <point x="153" y="151"/>
      <point x="154" y="165"/>
      <point x="156" y="175" type="curve"/>
      <point x="336" y="220" type="line"/>
      <point x="336" y="102"/>
      <point x="278" y="58"/>
    </contour>
    <contour>
      <point x="540" y="442" type="curve" smooth="yes"/>
      <point x="611" y="442"/>
      <point x="641" y="373"/>
      <point x="641" y="311" type="curve"/>
      <point x="427" y="292" type="line"/>
      <point x="436" y="399"/>
      <point x="485" y="442"/>
    </contour>
    <contour>
      <point x="552" y="64" type="curve" smooth="yes"/>
      <point x="477" y="64"/>
      <point x="427" y="129"/>
      <point x="426" y="255" type="curve"/>
      <point x="723" y="233" type="line"/>
      <point x="728" y="264"/>
      <point x="731" y="297"/>
      <point x="731" y="317" type="curve" smooth="yes"/>
      <point x="731" y="435"/>
      <point x="672" y="514"/>
      <point x="577" y="514" type="curve" smooth="yes"/>
      <point x="523" y="514"/>
      <point x="462" y="485"/>
      <point x="415" y="429" type="curve"/>
      <point x="400" y="484"/>
      <point x="347" y="514"/>
      <point x="291" y="514" type="curve" smooth="yes"/>
      <point x="209" y="514"/>
      <point x="121" y="470"/>
      <point x="59" y="436" type="curve"/>
      <point x="104" y="298" type="line"/>
      <point x="120" y="298" type="line"/>
      <point x="175" y="446" type="line"/>
      <point x="255" y="446"/>
      <point x="292" y="442"/>
      <point x="318" y="416" type="curve" smooth="yes"/>
      <point x="332" y="402"/>
      <point x="336" y="383"/>
      <point x="336" y="357" type="curve" smooth="yes"/>
      <point x="336" y="282" type="line"/>
      <point x="264" y="263" type="line" smooth="yes"/>
      <point x="189" y="243"/>
      <point x="123" y="216"/>
      <point x="94" y="187" type="curve" smooth="yes"/>
      <point x="70" y="163"/>
      <point x="61" y="135"/>
      <point x="61" y="105" type="curve" smooth="yes"/>
      <point x="61" y="37"/>
      <point x="117" y="-14"/>
      <point x="194" y="-14" type="curve" smooth="yes"/>
      <point x="237" y="-14"/>
      <point x="327" y="11"/>
      <point x="369" y="98" type="curve"/>
      <point x="405" y="21"/>
      <point x="473" y="-14"/>
      <point x="528" y="-14" type="curve" smooth="yes"/>
      <point x="634" y="-14"/>
      <point x="708" y="66"/>
      <point x="734" y="158" type="curve"/>
      <point x="717" y="165" type="line"/>
      <point x="683" y="123"/>
      <point x="637" y="64"/>
    </contour>
  </outline>
</glyph>
<glyph name="ccedilla" format="2">
  <advance width="512"/>
  <unicode hex="00E7"/>
  <outline>
    <contour>
      <point x="407" y="-143" type="curve" smooth="yes"/>
      <point x="407" y="-94"/>
      <point x="356" y="-67"/>
      <point x="316" y="-65" type="curve"/>
      <point x="296" y="-12" type="line"/>
      <point x="388" y="2"/>
      <point x="457" y="77"/>
      <point x="480" y="178" type="curve"/>
      <point x="463" y="185" type="line"/>
      <point x="427" y="122"/>
      <point x="367" y="67"/>
      <point x="281" y="67" type="curve" smooth="yes"/>
      <point x="201" y="67"/>
      <point x="146" y="126"/>
      <point x="146" y="254" type="curve" smooth="yes"/>
      <point x="146" y="319"/>
      <point x="158" y="373"/>
      <point x="191" y="406" type="curve" smooth="yes"/>
      <point x="214" y="429"/>
      <point x="245" y="443"/>
      <point x="285" y="443" type="curve" smooth="yes"/>
      <point x="309" y="443"/>
      <point x="334" y="439"/>
      <point x="358" y="432" type="curve"/>
      <point x="408" y="306" type="line"/>
      <point x="424" y="306" type="line"/>
      <point x="490" y="488" type="line"/>
      <point x="429" y="510"/>
      <point x="384" y="514"/>
      <point x="337" y="514" type="curve" smooth="yes"/>
      <point x="188" y="514"/>
      <point x="52" y="386"/>
      <point x="52" y="220" type="curve" smooth="yes"/>
      <point x="52" y="70"/>
      <point x="140" y="-12"/>
      <point x="262" y="-14" type="curve"/>
      <point x="225" y="-134" type="line"/>
      <point x="268" y="-134"/>
      <point x="324" y="-141"/>
      <point x="324" y="-175" type="curve" smooth="yes"/>
      <point x="324" y="-207"/>
      <point x="306" y="-224"/>
      <point x="268" y="-259" type="curve"/>
      <point x="279" y="-276" type="line"/>
      <point x="374" y="-234"/>
      <point x="407" y="-194"/>
    </contour>
    <contour>
      <point x="266" y="0" type="line"/>
      <point x="292" y="0" type="line"/>
      <point x="296" y="-12" type="line"/>
      <point x="286" y="-13"/>
      <point x="276" y="-14"/>
      <point x="266" y="-14" type="curve" smooth="yes"/>
      <point x="262" y="-14" type="line"/>
    </contour>
  </outline>
</glyph>
<glyph name="egrave" format="2">
  <advance width="532"/>
  <unicode hex="00E8"/>
  <outline>
    <contour>
      <point x="186" y="410" type="curve" smooth="yes"/>
      <point x="209" y="433"/>
      <point x="237" y="439"/>
      <point x="267" y="439" type="curve" smooth="yes"/>
      <point x="361" y="439"/>
      <point x="387" y="372"/>
      <point x="387" y="311" type="curve"/>
      <point x="143" y="291" type="line"/>
      <point x="148" y="346"/>
      <point x="162" y="386"/>
    </contour>
    <contour>
      <point x="283" y="67" type="curve" smooth="yes"/>
      <point x="200" y="67"/>
      <point x="143" y="131"/>
      <point x="142" y="255" type="curve"/>
      <point x="469" y="233" type="line"/>
      <point x="474" y="264"/>
      <point x="477" y="297"/>
      <point x="477" y="317" type="curve" smooth="yes"/>
      <point x="477" y="435"/>
      <point x="412" y="514"/>
      <point x="308" y="514" type="curve" smooth="yes"/>
      <point x="200" y="514"/>
      <point x="52" y="412"/>
      <point x="52" y="217" type="curve" smooth="yes"/>
      <point x="52" y="55"/>
      <point x="171" y="-14"/>
      <point x="259" y="-14" type="curve" smooth="yes"/>
      <point x="373" y="-14"/>
      <point x="454" y="66"/>
      <point x="480" y="158" type="curve"/>
      <point x="463" y="165" type="line"/>
      <point x="428" y="122"/>
      <point x="376" y="67"/>
    </contour>
    <contour>
      <point x="331" y="568" type="line"/>
      <point x="343" y="578" type="line"/>
      <point x="253" y="770" type="line"/>
      <point x="237" y="770" type="line"/>
      <point x="142" y="678" type="line"/>
    </contour>
  </outline>
</glyph>
<glyph name="eacute" format="2">
  <advance width="532"/>
  <unicode hex="00E9"/>
  <outline>
    <contour>
      <point x="186" y="410" type="curve" smooth="yes"/>
      <point x="209" y="433"/>
      <point x="237" y="439"/>
      <point x="267" y="439" type="curve" smooth="yes"/>
      <point x="361" y="439"/>
      <point x="387" y="372"/>
      <point x="387" y="311" type="curve"/>
      <point x="143" y="291" type="line"/>
      <point x="148" y="346"/>
      <point x="162" y="386"/>
    </contour>
    <contour>
      <point x="283" y="67" type="curve" smooth="yes"/>
      <point x="200" y="67"/>
      <point x="143" y="131"/>
      <point x="142" y="255" type="curve"/>
      <point x="469" y="233" type="line"/>
      <point x="474" y="264"/>
      <point x="477" y="297"/>
      <point x="477" y="317" type="curve" smooth="yes"/>
      <point x="477" y="435"/>
      <point x="412" y="514"/>
      <point x="308" y="514" type="curve" smooth="yes"/>
      <point x="200" y="514"/>
      <point x="52" y="412"/>
      <point x="52" y="217" type="curve" smooth="yes"/>
      <point x="52" y="55"/>
      <point x="171" y="-14"/>
      <point x="259" y="-14" type="curve" smooth="yes"/>
      <point x="373" y="-14"/>
      <point x="454" y="66"/>
      <point x="480" y="158" type="curve"/>
      <point x="463" y="165" type="line"/>
      <point x="428" y="122"/>
      <point x="376" y="67"/>
    </contour>
    <contour>
      <point x="256" y="566" type="line"/>
      <point x="403" y="724" type="line"/>
      <point x="295" y="776" type="line"/>
      <point x="282" y="768" type="line"/>
      <point x="245" y="572" type="line"/>
    </contour>
  </outline>
</glyph>
<glyph name="idieresis" format="2">
  <advance width="305"/>
  <unicode hex="00EF"/>
  <outline>
    <contour>
      <point x="115" y="53" type="line"/>
      <point x="34" y="22" type="line"/>
      <point x="34" y="0" type="line"/>
      <point x="286" y="0" type="line"/>
      <point x="286" y="25" type="line"/>
      <point x="259" y="30"/>
      <point x="241" y="39"/>
      <point x="228" y="52" type="curve" smooth="yes"/>
      <point x="211" y="69"/>
      <point x="205" y="97"/>
      <point x="205" y="227" type="curve" smooth="yes"/>
      <point x="205" y="342" type="line"/>
      <point x="215" y="514" type="line"/>
      <point x="37" y="449" type="line"/>
      <point x="37" y="434" type="line"/>
      <point x="62" y="427"/>
      <point x="79" y="416"/>
      <point x="90" y="403" type="curve" smooth="yes"/>
      <point x="113" y="377"/>
      <point x="115" y="342"/>
      <point x="115" y="288" type="curve" smooth="yes"/>
    </contour>
    <contour>
      <point x="52" y="590" type="curve" smooth="yes"/>
      <point x="93" y="590"/>
      <point x="122" y="624"/>
      <point x="122" y="665" type="curve" smooth="yes"/>
      <point x="122" y="706"/>
      <point x="93" y="740"/>
      <point x="52" y="740" type="curve" smooth="yes"/>
      <point x="12" y="740"/>
      <point x="-19" y="706"/>
      <point x="-19" y="665" type="curve" smooth="yes"/>
      <point x="-19" y="624"/>
      <point x="12" y="590"/>
    </contour>
    <contour>
      <point x="253" y="590" type="curve" smooth="yes"/>
      <point x="294" y="590"/>
      <point x="323" y="624"/>
      <point x="323" y="665" type="curve" smooth="yes"/>
      <point x="323" y="706"/>
      <point x="294" y="740"/>
      <point x="253" y="740" type="curve" smooth="yes"/>
      <point x="212" y="740"/>
      <point x="182" y="706"/>
      <point x="182" y="665" type="curve" smooth="yes"/>
      <point x="182" y="624"/>
      <point x="212" y="590"/>
    </contour>
  </outline>
</glyph>
<glyph name="eth" format="2">
  <advance width="581"/>
  <unicode hex="00F0"/>
  <outline>
    <contour>
      <point x="192" y="102" type="curve" smooth="yes"/>
      <point x="160" y="134"/>
      <point x="144" y="194"/>
      <point x="144" y="265" type="curve" smooth="yes"/>
      <point x="144" y="324"/>
      <point x="162" y="370"/>
      <point x="189" y="397" type="curve" smooth="yes"/>
      <point x="211" y="419"/>
      <point x="241" y="432"/>
      <point x="292" y="432" type="curve" smooth="yes"/>
      <point x="319" y="432"/>
      <point x="370" y="426"/>
      <point x="419" y="413" type="curve"/>
      <point x="431" y="377"/>
      <point x="437" y="335"/>
      <point x="437" y="286" type="curve" smooth="yes"/>
      <point x="437" y="176"/>
      <point x="419" y="120"/>
      <point x="392" y="93" type="curve" smooth="yes"/>
      <point x="370" y="71"/>
      <point x="340" y="61"/>
      <point x="299" y="61" type="curve" smooth="yes"/>
      <point x="261" y="61"/>
      <point x="223" y="71"/>
    </contour>
    <contour>
      <point x="130" y="727" type="line"/>
      <point x="167" y="697"/>
      <point x="201" y="669"/>
      <point x="232" y="644" type="curve"/>
      <point x="79" y="616" type="line"/>
      <point x="88" y="562" type="line"/>
      <point x="285" y="597" type="line"/>
      <point x="297" y="587"/>
      <point x="307" y="577"/>
      <point x="317" y="567" type="curve" smooth="yes"/>
      <point x="343" y="541"/>
      <point x="365" y="515"/>
      <point x="383" y="488" type="curve"/>
      <point x="363" y="497"/>
      <point x="339" y="504"/>
      <point x="311" y="504" type="curve" smooth="yes"/>
      <point x="173" y="504"/>
      <point x="52" y="377"/>
      <point x="52" y="218" type="curve" smooth="yes"/>
      <point x="52" y="97"/>
      <point x="127" y="-14"/>
      <point x="261" y="-14" type="curve" smooth="yes"/>
      <point x="404" y="-14"/>
      <point x="529" y="77"/>
      <point x="529" y="317" type="curve" smooth="yes"/>
      <point x="529" y="439"/>
      <point x="472" y="535"/>
      <point x="392" y="615" type="curve" smooth="yes"/>
      <point x="391" y="616" type="line"/>
      <point x="499" y="635" type="line"/>
      <point x="489" y="690" type="line"/>
      <point x="340" y="663" type="line"/>
      <point x="306" y="693"/>
      <point x="272" y="718"/>
      <point x="240" y="740" type="curve"/>
      <point x="140" y="740" type="line"/>
    </contour>
  </outline>
</glyph>
<glyph name="otilde" format="2">
  <advance width="581"/>
  <unicode hex="00F5"/>
  <outline>
    <contour>
      <point x="52" y="223" type="curve" smooth="yes"/>
      <point x="52" y="385"/>
      <point x="176" y="514"/>
      <point x="320" y="514" type="curve" smooth="yes"/>
      <point x="454" y="514"/>
      <point x="529" y="401"/>
      <point x="529" y="277" type="curve" smooth="yes"/>
      <point x="529" y="115"/>
      <point x="405" y="-14"/>
      <point x="261" y="-14" type="curve" smooth="yes"/>
      <point x="127" y="-14"/>
      <point x="52" y="99"/>
    </contour>
    <contour>
      <point x="437" y="230" type="curve" smooth="yes"/>
      <point x="437" y="303"/>
      <point x="423" y="364"/>
      <point x="389" y="398" type="curve" smooth="yes"/>
      <point x="357" y="430"/>
      <point x="320" y="442"/>
      <point x="282" y="442" type="curve" smooth="yes"/>
      <point x="238" y="442"/>
      <point x="210" y="431"/>
      <point x="188" y="409" type="curve" smooth="yes"/>
      <point x="159" y="380"/>
      <point x="144" y="333"/>
      <point x="144" y="270" type="curve" smooth="yes"/>
      <point x="144" y="197"/>
      <point x="158" y="136"/>
      <point x="192" y="102" type="curve" smooth="yes"/>
      <point x="224" y="70"/>
      <point x="261" y="58"/>
      <point x="299" y="58" type="curve" smooth="yes"/>
      <point x="343" y="58"/>
      <point x="371" y="69"/>
      <point x="393" y="91" type="curve" smooth="yes"/>
      <point x="422" y="120"/>
      <point x="437" y="167"/>
    </contour>
    <contour>
      <point x="364" y="666" type="curve" smooth="yes"/>
      <point x="324" y="666"/>
      <point x="251" y="720"/>
      <point x="191" y="720" type="curve" smooth="yes"/>
      <point x="134" y="720"/>
      <point x="108" y="648"/>
      <point x="108" y="580" type="curve"/>
      <point x="124" y="580" type="line"/>
      <point x="143" y="629"/>
      <point x="166" y="634"/>
      <point x="188" y="634" type="curve" smooth="yes"/>
      <point x="228" y="634"/>
      <point x="301" y="580"/>
      <point x="361" y="580" type="curve" smooth="yes"/>
      <point x="418" y="580"/>
      <point x="444" y="652"/>
      <point x="444" y="720" type="curve"/>
      <point x="428" y="720" type="line"/>
      <point x="409" y="671"/>
      <point x="386" y="666"/>
    </contour>
  </outline>
</glyph>
<glyph name="oslash" format="2">
  <advance width="581"/>
  <unicode hex="00F8"/>
  <outline>
    <contour>
      <point x="144" y="270" type="curve" smooth="yes"/>
      <point x="144" y="333"/>
      <point x="159" y="380"/>
      <point x="188" y="409" type="curve" smooth="yes"/>
      <point x="210" y="431"/>
      <point x="238" y="442"/>
      <point x="282" y="442" type="curve" smooth="yes"/>
      <point x="312" y="442"/>
      <point x="341" y="435"/>
      <point x="368" y="415" type="curve"/>
      <point x="172" y="129" type="line"/>
      <point x="153" y="164"/>
      <point x="144" y="214"/>
    </contour>
    <contour>
      <point x="97" y="-80" type="line"/>
      <point x="160" y="12" type="line"/>
      <point x="188" y="-5"/>
      <point x="222" y="-14"/>
      <point x="261" y="-14" type="curve" smooth="yes"/>
      <point x="405" y="-14"/>
      <point x="529" y="115"/>
      <point x="529" y="277" type="curve" smooth="yes"/>
      <point x="529" y="345"/>
      <point x="506" y="410"/>
      <point x="464" y="455" type="curve"/>
      <point x="533" y="556" type="line"/>
      <point x="488" y="590" type="line"/>
      <point x="419" y="489" type="line"/>
      <point x="391" y="505"/>
      <point x="358" y="514"/>
      <point x="320" y="514" type="curve" smooth="yes"/>
      <point x="176" y="514"/>
      <point x="52" y="385"/>
      <point x="52" y="223" type="curve" smooth="yes"/>
      <point x="52" y="156"/>
      <point x="74" y="92"/>
      <point x="116" y="47" type="curve"/>
      <point x="52" y="-46" type="line"/>
    </contour>
    <contour>
      <point x="437" y="230" type="curve" smooth="yes"/>
      <point x="437" y="167"/>
      <point x="422" y="120"/>
      <point x="393" y="91" type="curve" smooth="yes"/>
      <point x="371" y="69"/>
      <point x="343" y="58"/>
      <point x="299" y="58" type="curve" smooth="yes"/>
      <point x="268" y="58"/>
      <point x="238" y="66"/>
      <point x="211" y="86" type="curve"/>
      <point x="408" y="373" type="line"/>
      <point x="428" y="338"/>
      <point x="437" y="287"/>
    </contour>
  </outline>
</glyph>
<glyph name="thorn" format="2">
  <advance width="604"/>
  <unicode hex="00FE"/>
  <outline>
    <contour>
      <point x="205" y="77" type="curve"/>
      <point x="205" y="410" type="line"/>
      <point x="239" y="427"/>
      <point x="283" y="439"/>
      <point x="329" y="439" type="curve" smooth="yes"/>
      <point x="363" y="439"/>
      <point x="392" y="430"/>
      <point x="414" y="408" type="curve" smooth="yes"/>
      <point x="444" y="378"/>
      <point x="460" y="330"/>
      <point x="460" y="265" type="curve" smooth="yes"/>
      <point x="460" y="184"/>
      <point x="440" y="131"/>
      <point x="410" y="101" type="curve" smooth="yes"/>
      <point x="384" y="75"/>
      <point x="350" y="63"/>
      <point x="313" y="63" type="curve" smooth="yes"/>
      <point x="277" y="63"/>
      <point x="239" y="69"/>
    </contour>
    <contour>
      <point x="115" y="-207" type="line"/>
      <point x="34" y="-238" type="line"/>
      <point x="34" y="-260" type="line"/>
      <point x="286" y="-260" type="line"/>
      <point x="286" y="-235" type="line"/>
      <point x="259" y="-230"/>
      <point x="241" y="-221"/>
      <point x="228" y="-208" type="curve" smooth="yes"/>
      <point x="211" y="-191"/>
      <point x="205" y="-163"/>
      <point x="205" y="-33" type="curve" smooth="yes"/>
      <point x="205" y="-13" type="line"/>
      <point x="214" y="-14"/>
      <point x="222" y="-14"/>
      <point x="231" y="-14" type="curve" smooth="yes"/>
      <point x="309" y="-14"/>
      <point x="400" y="13"/>
      <point x="466" y="79" type="curve" smooth="yes"/>
      <point x="516" y="129"/>
      <point x="552" y="202"/>
      <point x="552" y="303" type="curve" smooth="yes"/>
      <point x="552" y="429"/>
      <point x="474" y="514"/>
      <point x="362" y="514" type="curve" smooth="yes"/>
      <point x="293" y="514"/>
      <point x="242" y="487"/>
      <point x="203" y="459" type="curve"/>
      <point x="203" y="535" type="line"/>
      <point x="212" y="748" type="line"/>
      <point x="202" y="758" type="line"/>
      <point x="37" y="691" type="line"/>
      <point x="37" y="676" type="line"/>
      <point x="62" y="669"/>
      <point x="78" y="659"/>
      <point x="90" y="647" type="curve" smooth="yes"/>
      <point x="111" y="626"/>
      <point x="115" y="594"/>
      <point x="115" y="540" type="curve" smooth="yes"/>
    </contour>
  </outline>
</glyph>
<glyph name="amacron" format="2">
  <advance width="536"/>
  <unicode hex="0101"/>
  <outline>
    <contour>
      <point x="346" y="85" type="line"/>
      <point x="320" y="73"/>
      <point x="269" y="58"/>
      <point x="229" y="58" type="curve" smooth="yes"/>
      <point x="169" y="58"/>
      <point x="153" y="98"/>
      <point x="153" y="142" type="curve" smooth="yes"/>
      <point x="153" y="151"/>
      <point x="154" y="165"/>
      <point x="156" y="175" type="curve"/>
      <point x="346" y="220" type="line"/>
    </contour>
    <contour>
      <point x="523" y="50" type="line"/>
      <point x="523" y="64" type="line"/>
      <point x="494" y="71"/>
      <point x="474" y="82"/>
      <point x="461" y="95" type="curve" smooth="yes"/>
      <point x="437" y="119"/>
      <point x="436" y="156"/>
      <point x="436" y="230" type="curve" smooth="yes"/>
      <point x="436" y="396" type="line" smooth="yes"/>
      <point x="436" y="471"/>
      <point x="371" y="514"/>
      <point x="301" y="514" type="curve" smooth="yes"/>
      <point x="215" y="514"/>
      <point x="123" y="471"/>
      <point x="59" y="436" type="curve"/>
      <point x="104" y="298" type="line"/>
      <point x="120" y="298" type="line"/>
      <point x="175" y="446" type="line"/>
      <point x="261" y="446"/>
      <point x="301" y="443"/>
      <point x="328" y="416" type="curve" smooth="yes"/>
      <point x="342" y="402"/>
      <point x="346" y="383"/>
      <point x="346" y="357" type="curve" smooth="yes"/>
      <point x="346" y="282" type="line"/>
      <point x="274" y="263" type="line" smooth="yes"/>
      <point x="195" y="242"/>
      <point x="124" y="217"/>
      <point x="94" y="187" type="curve" smooth="yes"/>
      <point x="70" y="163"/>
      <point x="61" y="135"/>
      <point x="61" y="105" type="curve" smooth="yes"/>
      <point x="61" y="37"/>
      <point x="117" y="-14"/>
      <point x="194" y="-14" type="curve" smooth="yes"/>
      <point x="252" y="-14"/>
      <point x="302" y="12"/>
      <point x="346" y="39" type="curve"/>
      <point x="348" y="-15" type="line"/>
    </contour>
    <contour>
      <point x="114" y="649" type="line"/>
      <point x="412" y="649" type="line"/>
      <point x="412" y="589" type="line"/>
      <point x="114" y="589" type="line"/>
    </contour>
  </outline>
</glyph>
<glyph name="Abreve" format="2">
  <advance width="733"/>
  <unicode hex="0102"/>
  <outline>
    <contour>
      <point x="540" y="141" type="line"/>
      <point x="573" y="0" type="line"/>
      <point x="722" y="0" type="line"/>
      <point x="722" y="22" type="line"/>
      <point x="684" y="61"/>
      <point x="659" y="104"/>
      <point x="623" y="182" type="curve" smooth="yes"/>
      <point x="376" y="724" type="line"/>
      <point x="360" y="724" type="line"/>
      <point x="86" y="109" type="line"/>
      <point x="12" y="22" type="line"/>
      <point x="12" y="0" type="line"/>
      <point x="134" y="0" type="line"/>
      <point x="154" y="67"/>
      <point x="178" y="136"/>
      <point x="208" y="215" type="curve"/>
      <point x="506" y="215" type="line"/>
    </contour>
    <contour>
      <point x="382" y="771" type="curve" smooth="yes"/>
      <point x="489" y="771"/>
      <point x="542" y="840"/>
      <point x="566" y="924" type="curve"/>
      <point x="551" y="932" type="line"/>
      <point x="496" y="892"/>
      <point x="459" y="870"/>
      <point x="382" y="870" type="curve" smooth="yes"/>
      <point x="305" y="870"/>
      <point x="268" y="892"/>
      <point x="213" y="932" type="curve"/>
      <point x="198" y="924" type="line"/>
      <point x="226" y="840"/>
      <point x="275" y="771"/>
    </contour>
    <contour>
      <point x="263" y="355" type="curve" smooth="yes"/>
      <point x="348" y="562" type="line"/>
      <point x="479" y="275" type="line"/>
      <point x="231" y="275" type="line"/>
      <point x="241" y="301"/>
      <point x="252" y="327"/>
    </contour>
  </outline>
</glyph>
<glyph name="Aogonek" format="2">
  <advance width="733"/>
  <unicode hex="0104"/>
  <outline>
    <contour>
      <point x="751" y="-118" type="curve"/>
      <point x="742" y="-112" type="line"/>
      <point x="715" y="-139"/>
      <point x="684" y="-161"/>
      <point x="654" y="-161" type="curve" smooth="yes"/>
      <point x="621" y="-161"/>
      <point x="608" y="-140"/>
      <point x="608" y="-117" type="curve" smooth="yes"/>
      <point x="608" y="-78"/>
      <point x="651" y="-24"/>
      <point x="722" y="0" type="curve"/>
      <point x="722" y="22" type="line"/>
      <point x="684" y="61"/>
      <point x="659" y="104"/>
      <point x="623" y="182" type="curve" smooth="yes"/>
      <point x="376" y="724" type="line"/>
      <point x="360" y="724" type="line"/>
      <point x="86" y="109" type="line"/>
      <point x="12" y="22" type="line"/>
      <point x="12" y="0" type="line"/>
      <point x="134" y="0" type="line"/>
      <point x="154" y="67"/>
      <point x="178" y="136"/>
      <point x="208" y="215" type="curve"/>
      <point x="506" y="215" type="line"/>
      <point x="540" y="141" type="line"/>
      <point x="573" y="0" type="line"/>
      <point x="641" y="0" type="line"/>
      <point x="561" y="-40"/>
      <point x="531" y="-103"/>
      <point x="531" y="-144" type="curve" smooth="yes"/>
      <point x="531" y="-204"/>
      <point x="575" y="-230"/>
      <point x="622" y="-230" type="curve" smooth="yes"/>
      <point x="688" y="-230"/>
      <point x="731" y="-169"/>
    </contour>
    <contour>
      <point x="263" y="355" type="curve" smooth="yes"/>
      <point x="348" y="562" type="line"/>
      <point x="479" y="275" type="line"/>
      <point x="231" y="275" type="line"/>
      <point x="241" y="301"/>
      <point x="252" y="327"/>
    </contour>
  </outline>
</glyph>
<glyph name="ccircumflex" format="2">
  <advance width="512"/>
  <unicode hex="0109"/>
  <outline>
    <contour>
      <point x="266" y="-14" type="curve" smooth="yes"/>
      <point x="142" y="-14"/>
      <point x="52" y="68"/>
      <point x="52" y="220" type="curve" smooth="yes"/>
      <point x="52" y="386"/>
      <point x="188" y="514"/>
      <point x="337" y="514" type="curve" smooth="yes"/>
      <point x="384" y="514"/>
      <point x="429" y="510"/>
      <point x="490" y="488" type="curve"/>
      <point x="424" y="306" type="line"/>
      <point x="408" y="306" type="line"/>
      <point x="358" y="432" type="line"/>
      <point x="334" y="439"/>
      <point x="309" y="443"/>
      <point x="285" y="443" type="curve" smooth="yes"/>
      <point x="245" y="443"/>
      <point x="214" y="429"/>
      <point x="191" y="406" type="curve" smooth="yes"/>
      <point x="158" y="373"/>
      <point x="146" y="319"/>
      <point x="146" y="254" type="curve" smooth="yes"/>
      <point x="146" y="126"/>
      <point x="201" y="67"/>
      <point x="281" y="67" type="curve" smooth="yes"/>
      <point x="367" y="67"/>
      <point x="427" y="122"/>
      <point x="463" y="185" type="curve"/>
      <point x="480" y="178" type="line"/>
      <point x="454" y="66"/>
      <point x="373" y="-14"/>
    </contour>
    <contour>
      <point x="300" y="739" type="line"/>
      <point x="466" y="567" type="line"/>
      <point x="456" y="554" type="line"/>
      <point x="282" y="633" type="line"/>
      <point x="128" y="554" type="line"/>
      <point x="118" y="567" type="line"/>
      <point x="284" y="739" type="line"/>
    </contour>
  </outline>
</glyph>
<glyph name="Dcaron" format="2">
  <advance width="727"/>
  <unicode hex="010E"/>
  <outline>
    <contour>
      <point x="272" y="652" type="line" smooth="yes"/>
      <point x="478" y="652"/>
      <point x="583" y="532"/>
      <point x="583" y="350" type="curve" smooth="yes"/>
      <point x="583" y="244"/>
      <point x="558" y="166"/>
      <point x="511" y="119" type="curve" smooth="yes"/>
      <point x="469" y="77"/>
      <point x="408" y="60"/>
      <point x="340" y="60" type="curve" smooth="yes"/>
      <point x="284" y="60"/>
      <point x="248" y="69"/>
      <point x="201" y="89" type="curve"/>
      <point x="201" y="652" type="line"/>
    </contour>
    <contour>
      <point x="26" y="710" type="line"/>
      <point x="26" y="685" type="line"/>
      <point x="53" y="680"/>
      <point x="71" y="671"/>
      <point x="84" y="658" type="curve" smooth="yes"/>
      <point x="101" y="641"/>
      <point x="107" y="613"/>
      <point x="107" y="483" type="curve" smooth="yes"/>
      <point x="107" y="53" type="line"/>
      <point x="26" y="22" type="line"/>
      <point x="26" y="0" type="line"/>
      <point x="313" y="0" type="line" smooth="yes"/>
      <point x="423" y="0"/>
      <point x="506" y="36"/>
      <point x="564" y="94" type="curve" smooth="yes"/>
      <point x="640" y="170"/>
      <point x="681" y="271"/>
      <point x="681" y="400" type="curve" smooth="yes"/>
      <point x="681" y="594"/>
      <point x="539" y="710"/>
      <point x="356" y="710" type="curve" smooth="yes"/>
    </contour>
    <contour>
      <point x="347" y="754" type="line"/>
      <point x="173" y="912" type="line"/>
      <point x="181" y="927" type="line"/>
      <point x="365" y="869" type="line"/>
      <point x="539" y="927" type="line"/>
      <point x="547" y="912" type="line"/>
      <point x="363" y="754" type="line"/>
    </contour>
  </outline>
</glyph>
<glyph name="dcaron" format="2">
  <advance width="593"/>
  <unicode hex="010F"/>
  <outline>
    <contour>
      <point x="399" y="421" type="curve"/>
      <point x="399" y="90" type="line"/>
      <point x="365" y="73"/>
      <point x="321" y="61"/>
      <point x="275" y="61" type="curve" smooth="yes"/>
      <point x="241" y="61"/>
      <point x="212" y="70"/>
      <point x="190" y="92" type="curve" smooth="yes"/>
      <point x="160" y="122"/>
      <point x="144" y="170"/>
      <point x="144" y="235" type="curve" smooth="yes"/>
      <point x="144" y="316"/>
      <point x="164" y="369"/>
      <point x="194" y="399" type="curve" smooth="yes"/>
      <point x="220" y="425"/>
      <point x="254" y="437"/>
      <point x="291" y="437" type="curve" smooth="yes"/>
      <point x="327" y="437"/>
      <point x="365" y="429"/>
    </contour>
    <contour>
      <point x="564" y="51" type="line"/>
      <point x="564" y="65" type="line"/>
      <point x="499" y="74"/>
      <point x="489" y="97"/>
      <point x="489" y="211" type="curve" smooth="yes"/>
      <point x="489" y="535" type="line"/>
      <point x="498" y="748" type="line"/>
      <point x="488" y="758" type="line"/>
      <point x="321" y="691" type="line"/>
      <point x="321" y="676" type="line"/>
      <point x="346" y="669"/>
      <point x="362" y="659"/>
      <point x="374" y="647" type="curve" smooth="yes"/>
      <point x="395" y="626"/>
      <point x="399" y="594"/>
      <point x="399" y="540" type="curve" smooth="yes"/>
      <point x="399" y="513" type="line"/>
      <point x="388" y="514"/>
      <point x="376" y="514"/>
      <point x="363" y="514" type="curve" smooth="yes"/>
      <point x="243" y="514"/>
      <point x="52" y="430"/>
      <point x="52" y="197" type="curve" smooth="yes"/>
      <point x="52" y="71"/>
      <point x="130" y="-14"/>
      <point x="242" y="-14" type="curve" smooth="yes"/>
      <point x="311" y="-14"/>
      <point x="362" y="13"/>
      <point x="401" y="41" type="curve"/>
      <point x="401" y="-15" type="line"/>
    </contour>
    <contour>
      <point x="572" y="566" type="line"/>
      <point x="697" y="749" type="line"/>
      <point x="561" y="793" type="line"/>
      <point x="561" y="572" type="line"/>
    </contour>
  </outline>
</glyph>
<glyph name="dcroat" format="2">
  <advance width="599"/>
  <unicode hex="0111"/>
  <outline>
    <contour>
      <point x="405" y="417" type="curve"/>
      <point x="405" y="90" type="line"/>
      <point x="371" y="73"/>
      <point x="328" y="61"/>
      <point x="277" y="61" type="curve" smooth="yes"/>
      <point x="248" y="61"/>
      <point x="218" y="70"/>
      <point x="196" y="92" type="curve" smooth="yes"/>
      <point x="168" y="120"/>
      <point x="152" y="167"/>
      <point x="152" y="240" type="curve" smooth="yes"/>
      <point x="152" y="362"/>
      <point x="215" y="434"/>
      <point x="297" y="434" type="curve" smooth="yes"/>
      <point x="341" y="434"/>
      <point x="374" y="427"/>
    </contour>
    <contour>
      <point x="242" y="554" type="line"/>
      <point x="405" y="554" type="line"/>
      <point x="405" y="499" type="line"/>
      <point x="394" y="500"/>
      <point x="382" y="500"/>
      <point x="369" y="500" type="curve" smooth="yes"/>
      <point x="301" y="500"/>
      <point x="205" y="482"/>
      <point x="144" y="421" type="curve" smooth="yes"/>
      <point x="94" y="371"/>
      <point x="58" y="298"/>
      <point x="58" y="197" type="curve" smooth="yes"/>
      <point x="58" y="71"/>
      <point x="146" y="-14"/>
      <point x="248" y="-14" type="curve" smooth="yes"/>
      <point x="317" y="-14"/>
      <point x="368" y="13"/>
      <point x="407" y="41" type="curve"/>
      <point x="407" y="-15" type="line"/>
      <point x="570" y="51" type="line"/>
      <point x="570" y="65" type="line"/>
      <point x="505" y="74"/>
      <point x="495" y="97"/>
      <point x="495" y="211" type="curve" smooth="yes"/>
      <point x="495" y="535" type="line"/>
      <point x="496" y="554" type="line"/>
      <point x="560" y="554" type="line"/>
      <point x="560" y="609" type="line"/>
      <point x="498" y="609" type="line"/>
      <point x="504" y="742" type="line"/>
      <point x="494" y="752" type="line"/>
      <point x="327" y="711" type="line"/>
      <point x="327" y="696" type="line"/>
      <point x="352" y="685"/>
      <point x="370" y="675"/>
      <point x="383" y="662" type="curve" smooth="yes"/>
      <point x="396" y="649"/>
      <point x="403" y="632"/>
      <point x="405" y="609" type="curve"/>
      <point x="242" y="609" type="line"/>
    </contour>
  </outline>
</glyph>
<glyph name="Emacron" format="2">
  <advance width="625"/>
  <unicode hex="0112"/>
  <outline>
    <contour>
      <point x="26" y="710" type="line"/>
      <point x="587" y="710" type="line"/>
      <point x="532" y="491" type="line"/>
      <point x="516" y="491" type="line"/>
      <point x="467" y="647" type="line"/>
      <point x="201" y="660" type="line"/>
      <point x="201" y="374" type="line"/>
      <point x="422" y="422" type="line"/>
      <point x="422" y="296" type="line"/>
      <point x="201" y="344" type="line"/>
      <point x="201" y="50" type="line"/>
      <point x="467" y="63" type="line"/>
      <point x="516" y="219" type="line"/>
      <point x="532" y="219" type="line"/>
      <point x="587" y="0" type="line"/>
      <point x="26" y="0" type="line"/>
      <point x="26" y="22" type="line"/>
      <point x="107" y="53" type="line"/>
      <point x="107" y="483" type="line" smooth="yes"/>
      <point x="107" y="613"/>
      <point x="101" y="641"/>
      <point x="84" y="658" type="curve" smooth="yes"/>
      <point x="71" y="671"/>
      <point x="53" y="680"/>
      <point x="26" y="685" type="curve"/>
    </contour>
    <contour>
      <point x="177" y="854" type="line"/>
      <point x="177" y="794" type="line"/>
      <point x="495" y="794" type="line"/>
      <point x="495" y="854" type="line"/>
    </contour>
  </outline>
</glyph>
<glyph name="Ebreve" format="2">
  <advance width="625"/>
  <unicode hex="0114"/>
  <outline>
    <contour>
      <point x="26" y="710" type="line"/>
      <point x="587" y="710" type="line"/>
      <point x="532" y="491" type="line"/>
      <point x="516" y="491" type="line"/>
      <point x="467" y="647" type="line"/>
      <point x="201" y="660" type="line"/>
      <point x="201" y="374" type="line"/>
      <point x="422" y="422" type="line"/>
      <point x="422" y="296" type="line"/>
      <point x="201" y="344" type="line"/>
      <point x="201" y="50" type="line"/>
      <point x="467" y="63" type="line"/>
      <point x="516" y="219" type="line"/>
      <point x="532" y="219" type="line"/>
      <point x="587" y="0" type="line"/>
      <point x="26" y="0" type="line"/>
      <point x="26" y="22" type="line"/>
      <point x="107" y="53" type="line"/>
      <point x="107" y="483" type="line" smooth="yes"/>
      <point x="107" y="613"/>
      <point x="101" y="641"/>
      <point x="84" y="658" type="curve" smooth="yes"/>
      <point x="71" y="671"/>
      <point x="53" y="680"/>
      <point x="26" y="685" type="curve"/>
    </contour>
    <contour>
      <point x="335" y="771" type="curve" smooth="yes"/>
      <point x="228" y="771"/>
      <point x="179" y="840"/>
      <point x="151" y="924" type="curve"/>
      <point x="166" y="932" type="line"/>
      <point x="221" y="892"/>
      <point x="258" y="870"/>
      <point x="335" y="870" type="curve" smooth="yes"/>
      <point x="412" y="870"/>
      <point x="449" y="892"/>
      <point x="504" y="932" type="curve"/>
      <point x="519" y="924" type="line"/>
      <point x="495" y="840"/>
      <point x="442" y="771"/>
    </contour>
  </outline>
</glyph>
<glyph name="Edotaccent" format="2">
  <advance width="625"/>
  <unicode hex="0116"/>
  <outline>
    <contour>
      <point x="26" y="710" type="line"/>
      <point x="587" y="710" type="line"/>
      <point x="532" y="491" type="line"/>
      <point x="516" y="491" type="line"/>
      <point x="467" y="647" type="line"/>
      <point x="201" y="660" type="line"/>
      <point x="201" y="374" type="line"/>
      <point x="422" y="422" type="line"/>
      <point x="422" y="296" type="line"/>
      <point x="201" y="344" type="line"/>
      <point x="201" y="50" type="line"/>
      <point x="467" y="63" type="line"/>
      <point x="516" y="219" type="line"/>
      <point x="532" y="219" type="line"/>
      <point x="587" y="0" type="line"/>
      <point x="26" y="0" type="line"/>
      <point x="26" y="22" type="line"/>
      <point x="107" y="53" type="line"/>
      <point x="107" y="483" type="line" smooth="yes"/>
      <point x="107" y="613"/>
      <point x="101" y="641"/>
      <point x="84" y="658" type="curve" smooth="yes"/>
      <point x="71" y="671"/>
      <point x="53" y="680"/>
      <point x="26" y="685" type="curve"/>
    </contour>
    <contour>
      <point x="336" y="758" type="curve" smooth="yes"/>
      <point x="378" y="758"/>
      <point x="411" y="792"/>
      <point x="411" y="833" type="curve" smooth="yes"/>
      <point x="411" y="874"/>
      <point x="378" y="908"/>
      <point x="336" y="908" type="curve" smooth="yes"/>
      <point x="295" y="908"/>
      <point x="260" y="874"/>
      <point x="260" y="833" type="curve" smooth="yes"/>
      <point x="260" y="792"/>
      <point x="295" y="758"/>
    </contour>
  </outline>
</glyph>
<glyph name="edotaccent" format="2">
  <advance width="532"/>
  <unicode hex="0117"/>
  <outline>
    <contour>
      <point x="186" y="410" type="curve" smooth="yes"/>
      <point x="209" y="433"/>
      <point x="237" y="439"/>
      <point x="267" y="439" type="curve" smooth="yes"/>
      <point x="361" y="439"/>
      <point x="387" y="372"/>
      <point x="387" y="311" type="curve"/>
      <point x="143" y="291" type="line"/>
      <point x="148" y="346"/>
      <point x="162" y="386"/>
    </contour>
    <contour>
      <point x="283" y="67" type="curve" smooth="yes"/>
      <point x="200" y="67"/>
      <point x="143" y="131"/>
      <point x="142" y="255" type="curve"/>
      <point x="469" y="233" type="line"/>
      <point x="474" y="264"/>
      <point x="477" y="297"/>
      <point x="477" y="317" type="curve" smooth="yes"/>
      <point x="477" y="435"/>
      <point x="412" y="514"/>
      <point x="308" y="514" type="curve" smooth="yes"/>
      <point x="200" y="514"/>
      <point x="52" y="412"/>
      <point x="52" y="217" type="curve" smooth="yes"/>
      <point x="52" y="55"/>
      <point x="171" y="-14"/>
      <point x="259" y="-14" type="curve" smooth="yes"/>
      <point x="373" y="-14"/>
      <point x="454" y="66"/>
      <point x="480" y="158" type="curve"/>
      <point x="463" y="165" type="line"/>
      <point x="428" y="122"/>
      <point x="376" y="67"/>
    </contour>
    <contour>
      <point x="281" y="600" type="curve" smooth="yes"/>
      <point x="323" y="600"/>
      <point x="356" y="634"/>
      <point x="356" y="675" type="curve" smooth="yes"/>
      <point x="356" y="716"/>
      <point x="323" y="750"/>
      <point x="281" y="750" type="curve" smooth="yes"/>
      <point x="240" y="750"/>
      <point x="205" y="716"/>
      <point x="205" y="675" type="curve" smooth="yes"/>
      <point x="205" y="634"/>
      <point x="240" y="600"/>
    </contour>
  </outline>
</glyph>
<glyph name="Eogonek" format="2">
  <advance width="625"/>
  <unicode hex="0118"/>
  <outline>
    <contour>
      <point x="26" y="710" type="line"/>
      <point x="26" y="685" type="line"/>
      <point x="53" y="680"/>
      <point x="71" y="671"/>
      <point x="84" y="658" type="curve" smooth="yes"/>
      <point x="101" y="641"/>
      <point x="107" y="613"/>
      <point x="107" y="483" type="curve" smooth="yes"/>
      <point x="107" y="53" type="line"/>
      <point x="26" y="22" type="line"/>
      <point x="26" y="0" type="line"/>
      <point x="507" y="0" type="line"/>
      <point x="427" y="-40"/>
      <point x="397" y="-103"/>
      <point x="397" y="-144" type="curve" smooth="yes"/>
      <point x="397" y="-204"/>
      <point x="441" y="-230"/>
      <point x="488" y="-230" type="curve" smooth="yes"/>
      <point x="554" y="-230"/>
      <point x="597" y="-169"/>
      <point x="617" y="-118" type="curve"/>
      <point x="608" y="-112" type="line"/>
      <point x="581" y="-139"/>
      <point x="550" y="-161"/>
      <point x="520" y="-161" type="curve" smooth="yes"/>
      <point x="487" y="-161"/>
      <point x="474" y="-140"/>
      <point x="474" y="-117" type="curve" smooth="yes"/>
      <point x="474" y="-78"/>
      <point x="517" y="-24"/>
      <point x="588" y="0" type="curve"/>
      <point x="587" y="0" type="line"/>
      <point x="532" y="219" type="line"/>
      <point x="516" y="219" type="line"/>
      <point x="467" y="63" type="line"/>
      <point x="201" y="50" type="line"/>
      <point x="201" y="344" type="line"/>
      <point x="422" y="296" type="line"/>
      <point x="422" y="422" type="line"/>
      <point x="201" y="374" type="line"/>
      <point x="201" y="660" type="line"/>
      <point x="467" y="647" type="line"/>
      <point x="516" y="491" type="line"/>
      <point x="532" y="491" type="line"/>
      <point x="587" y="710" type="line"/>
    </contour>
  </outline>
</glyph>
<glyph name="Ecaron" format="2">
  <advance width="625"/>
  <unicode hex="011A"/>
  <outline>
    <contour>
      <point x="26" y="710" type="line"/>
      <point x="587" y="710" type="line"/>
      <point x="532" y="491" type="line"/>
      <point x="516" y="491" type="line"/>
      <point x="467" y="647" type="line"/>
      <point x="201" y="660" type="line"/>
      <point x="201" y="374" type="line"/>
      <point x="422" y="422" type="line"/>
      <point x="422" y="296" type="line"/>
      <point x="201" y="344" type="line"/>
      <point x="201" y="50" type="line"/>
      <point x="467" y="63" type="line"/>
      <point x="516" y="219" type="line"/>
      <point x="532" y="219" type="line"/>
      <point x="587" y="0" type="line"/>
      <point x="26" y="0" type="line"/>
      <point x="26" y="22" type="line"/>
      <point x="107" y="53" type="line"/>
      <point x="107" y="483" type="line" smooth="yes"/>
      <point x="107" y="613"/>
      <point x="101" y="641"/>
      <point x="84" y="658" type="curve" smooth="yes"/>
      <point x="71" y="671"/>
      <point x="53" y="680"/>
      <point x="26" y="685" type="curve"/>
    </contour>
    <contour>
      <point x="320" y="754" type="line"/>
      <point x="146" y="912" type="line"/>
      <point x="154" y="927" type="line"/>
      <point x="338" y="869" type="line"/>
      <point x="512" y="927" type="line"/>
      <point x="520" y="912" type="line"/>
      <point x="336" y="754" type="line"/>
    </contour>
  </outline>
</glyph>
<glyph name="gbreve" format="2">
  <advance width="553"/>
  <unicode hex="011F"/>
  <outline>
    <contour>
      <point x="547" y="435" type="line"/>
      <point x="547" y="449" type="line"/>
      <point x="464" y="479" type="line" smooth="yes"/>
      <point x="414" y="497"/>
      <point x="357" y="514"/>
      <point x="294" y="514" type="curve" smooth="yes"/>
      <point x="192" y="514"/>
      <point x="55" y="435"/>
      <point x="55" y="300" type="curve" smooth="yes"/>
      <point x="55" y="231"/>
      <point x="92" y="181"/>
      <point x="149" y="156" type="curve"/>
      <point x="81" y="5" type="line"/>
      <point x="337" y="-23" type="line" smooth="yes"/>
      <point x="398" y="-30"/>
      <point x="427" y="-64"/>
      <point x="427" y="-103" type="curve" smooth="yes"/>
      <point x="427" y="-126"/>
      <point x="419" y="-147"/>
      <point x="404" y="-162" type="curve" smooth="yes"/>
      <point x="379" y="-187"/>
      <point x="331" y="-209"/>
      <point x="257" y="-209" type="curve" smooth="yes"/>
      <point x="158" y="-209"/>
      <point x="126" y="-163"/>
      <point x="126" y="-110" type="curve" smooth="yes"/>
      <point x="126" y="-49" type="line"/>
      <point x="113" y="-45" type="line"/>
      <point x="72" y="-82"/>
      <point x="42" y="-124"/>
      <point x="42" y="-166" type="curve" smooth="yes"/>
      <point x="42" y="-221"/>
      <point x="106" y="-274"/>
      <point x="221" y="-274" type="curve" smooth="yes"/>
      <point x="350" y="-274"/>
      <point x="514" y="-178"/>
      <point x="514" y="-54" type="curve" smooth="yes"/>
      <point x="514" y="-2"/>
      <point x="460" y="37"/>
      <point x="362" y="49" type="curve" smooth="yes"/>
      <point x="211" y="67" type="line"/>
      <point x="183" y="145" type="line"/>
      <point x="200" y="141"/>
      <point x="217" y="139"/>
      <point x="235" y="139" type="curve" smooth="yes"/>
      <point x="291" y="139"/>
      <point x="350" y="158"/>
      <point x="396" y="204" type="curve" smooth="yes"/>
      <point x="438" y="246"/>
      <point x="460" y="302"/>
      <point x="460" y="360" type="curve" smooth="yes"/>
      <point x="460" y="392" type="line"/>
    </contour>
    <contour>
      <point x="385" y="321" type="curve" smooth="yes"/>
      <point x="385" y="289"/>
      <point x="376" y="259"/>
      <point x="356" y="239" type="curve" smooth="yes"/>
      <point x="333" y="216"/>
      <point x="299" y="205"/>
      <point x="265" y="205" type="curve" smooth="yes"/>
      <point x="226" y="205"/>
      <point x="193" y="220"/>
      <point x="172" y="241" type="curve" smooth="yes"/>
      <point x="150" y="263"/>
      <point x="141" y="294"/>
      <point x="141" y="334" type="curve" smooth="yes"/>
      <point x="141" y="366"/>
      <point x="149" y="395"/>
      <point x="170" y="416" type="curve" smooth="yes"/>
      <point x="195" y="441"/>
      <point x="227" y="450"/>
      <point x="261" y="450" type="curve" smooth="yes"/>
      <point x="300" y="450"/>
      <point x="333" y="435"/>
      <point x="354" y="414" type="curve" smooth="yes"/>
      <point x="374" y="394"/>
      <point x="385" y="361"/>
    </contour>
    <contour>
      <point x="269" y="581" type="curve" smooth="yes"/>
      <point x="376" y="581"/>
      <point x="427" y="670"/>
      <point x="435" y="744" type="curve"/>
      <point x="419" y="749" type="line"/>
      <point x="384" y="699"/>
      <point x="346" y="666"/>
      <point x="269" y="666" type="curve" smooth="yes"/>
      <point x="192" y="666"/>
      <point x="154" y="699"/>
      <point x="119" y="749" type="curve"/>
      <point x="103" y="744" type="line"/>
      <point x="111" y="670"/>
      <point x="162" y="581"/>
    </contour>
  </outline>
</glyph>
<glyph name="hcircumflex" format="2">
  <advance width="617"/>
  <unicode hex="0125"/>
  <outline>
    <contour>
      <point x="427" y="53" type="line"/>
      <point x="346" y="22" type="line"/>
      <point x="346" y="0" type="line"/>
      <point x="598" y="0" type="line"/>
      <point x="598" y="25" type="line"/>
      <point x="571" y="30"/>
      <point x="553" y="39"/>
      <point x="540" y="52" type="curve" smooth="yes"/>
      <point x="523" y="69"/>
      <point x="517" y="97"/>
      <point x="517" y="227" type="curve" smooth="yes"/>
      <point x="517" y="350" type="line" smooth="yes"/>
      <point x="517" y="462"/>
      <point x="471" y="514"/>
      <point x="382" y="514" type="curve" smooth="yes"/>
      <point x="307" y="514"/>
      <point x="244" y="481"/>
      <point x="194" y="450" type="curve"/>
      <point x="194" y="535" type="line"/>
      <point x="203" y="748" type="line"/>
      <point x="193" y="758" type="line"/>
      <point x="26" y="691" type="line"/>
      <point x="26" y="676" type="line"/>
      <point x="51" y="669"/>
      <point x="67" y="659"/>
      <point x="79" y="647" type="curve" smooth="yes"/>
      <point x="100" y="626"/>
      <point x="104" y="594"/>
      <point x="104" y="540" type="curve" smooth="yes"/>
      <point x="104" y="53" type="line"/>
      <point x="23" y="22" type="line"/>
      <point x="23" y="0" type="line"/>
      <point x="275" y="0" type="line"/>
      <point x="275" y="25" type="line"/>
      <point x="248" y="30"/>
      <point x="230" y="39"/>
      <point x="217" y="52" type="curve" smooth="yes"/>
      <point x="200" y="69"/>
      <point x="194" y="97"/>
      <point x="194" y="227" type="curve" smooth="yes"/>
      <point x="194" y="400" type="line"/>
      <point x="230" y="419"/>
      <point x="272" y="434"/>
      <point x="331" y="434" type="curve" smooth="yes"/>
      <point x="390" y="434"/>
      <point x="427" y="395"/>
      <point x="427" y="308" type="curve" smooth="yes"/>
    </contour>
    <contour>
      <point x="148" y="919" type="line"/>
      <point x="322" y="761" type="line"/>
      <point x="314" y="746" type="line"/>
      <point x="130" y="804" type="line"/>
      <point x="-44" y="746" type="line"/>
      <point x="-52" y="761" type="line"/>
      <point x="132" y="919" type="line"/>
    </contour>
  </outline>
</glyph>
<glyph name="Hbar" format="2">
  <advance width="772"/>
  <unicode hex="0126"/>
  <outline>
    <contour>
      <point x="571" y="53" type="line"/>
      <point x="490" y="22" type="line"/>
      <point x="490" y="0" type="line"/>
      <point x="746" y="0" type="line"/>
      <point x="746" y="25" type="line"/>
      <point x="719" y="30"/>
      <point x="701" y="39"/>
      <point x="688" y="52" type="curve" smooth="yes"/>
      <point x="671" y="69"/>
      <point x="665" y="97"/>
      <point x="665" y="227" type="curve" smooth="yes"/>
      <point x="665" y="505" type="line"/>
      <point x="746" y="505" type="line"/>
      <point x="746" y="560" type="line"/>
      <point x="665" y="560" type="line"/>
      <point x="665" y="657" type="line"/>
      <point x="746" y="688" type="line"/>
      <point x="746" y="710" type="line"/>
      <point x="490" y="710" type="line"/>
      <point x="490" y="685" type="line"/>
      <point x="517" y="680"/>
      <point x="535" y="671"/>
      <point x="548" y="658" type="curve" smooth="yes"/>
      <point x="561" y="645"/>
      <point x="567" y="626"/>
      <point x="570" y="560" type="curve"/>
      <point x="201" y="560" type="line"/>
      <point x="201" y="657" type="line"/>
      <point x="282" y="688" type="line"/>
      <point x="282" y="710" type="line"/>
      <point x="26" y="710" type="line"/>
      <point x="26" y="685" type="line"/>
      <point x="53" y="680"/>
      <point x="71" y="671"/>
      <point x="84" y="658" type="curve" smooth="yes"/>
      <point x="97" y="645"/>
      <point x="103" y="626"/>
      <point x="106" y="560" type="curve"/>
      <point x="26" y="560" type="line"/>
      <point x="26" y="505" type="line"/>
      <point x="107" y="505" type="line"/>
      <point x="107" y="498"/>
      <point x="107" y="491"/>
      <point x="107" y="483" type="curve" smooth="yes"/>
      <point x="107" y="53" type="line"/>
      <point x="26" y="22" type="line"/>
      <point x="26" y="0" type="line"/>
      <point x="282" y="0" type="line"/>
      <point x="282" y="25" type="line"/>
      <point x="255" y="30"/>
      <point x="237" y="39"/>
      <point x="224" y="52" type="curve" smooth="yes"/>
      <point x="207" y="69"/>
      <point x="201" y="97"/>
      <point x="201" y="227" type="curve" smooth="yes"/>
      <point x="201" y="330" type="line"/>
      <point x="571" y="330" type="line"/>
    </contour>
    <contour>
      <point x="201" y="390" type="line"/>
      <point x="201" y="505" type="line"/>
      <point x="571" y="505" type="line"/>
      <point x="571" y="498"/>
      <point x="571" y="491"/>
      <point x="571" y="483" type="curve" smooth="yes"/>
      <point x="571" y="390" type="line"/>
    </contour>
  </outline>
</glyph>
<glyph name="hbar" format="2">
  <advance width="617"/>
  <unicode hex="0127"/>
  <outline>
    <contour>
      <point x="427" y="53" type="line"/>
      <point x="346" y="22" type="line"/>
      <point x="346" y="0" type="line"/>
      <point x="598" y="0" type="line"/>
      <point x="598" y="25" type="line"/>
      <point x="571" y="30"/>
      <point x="553" y="39"/>
      <point x="540" y="52" type="curve" smooth="yes"/>
      <point x="523" y="69"/>
      <point x="517" y="97"/>
      <point x="517" y="227" type="curve" smooth="yes"/>
      <point x="517" y="336" type="line" smooth="yes"/>
      <point x="517" y="448"/>
      <point x="471" y="500"/>
      <point x="382" y="500" type="curve" smooth="yes"/>
      <point x="307" y="500"/>
      <point x="244" y="467"/>
      <point x="194" y="436" type="curve"/>
      <point x="194" y="535" type="line"/>
      <point x="196" y="554" type="line"/>
      <point x="330" y="554" type="line"/>
      <point x="330" y="609" type="line"/>
      <point x="201" y="609" type="line"/>
      <point x="213" y="748" type="line"/>
      <point x="203" y="758" type="line"/>
      <point x="26" y="711" type="line"/>
      <point x="26" y="696" type="line"/>
      <point x="51" y="689"/>
      <point x="67" y="679"/>
      <point x="79" y="667" type="curve" smooth="yes"/>
      <point x="93" y="653"/>
      <point x="99" y="635"/>
      <point x="102" y="609" type="curve"/>
      <point x="23" y="609" type="line"/>
      <point x="23" y="554" type="line"/>
      <point x="104" y="554" type="line"/>
      <point x="104" y="53" type="line"/>
      <point x="23" y="22" type="line"/>
      <point x="23" y="0" type="line"/>
      <point x="275" y="0" type="line"/>
      <point x="275" y="25" type="line"/>
      <point x="248" y="30"/>
      <point x="230" y="39"/>
      <point x="217" y="52" type="curve" smooth="yes"/>
      <point x="200" y="69"/>
      <point x="194" y="97"/>
      <point x="194" y="227" type="curve" smooth="yes"/>
      <point x="194" y="386" type="line"/>
      <point x="230" y="405"/>
      <point x="272" y="420"/>
      <point x="331" y="420" type="curve" smooth="yes"/>
      <point x="390" y="420"/>
      <point x="427" y="381"/>
      <point x="427" y="294" type="curve" smooth="yes"/>
    </contour>
  </outline>
</glyph>
<glyph name="Itilde" format="2">
  <advance width="308"/>
  <unicode hex="0128"/>
  <outline>
    <contour>
      <point x="201" y="657" type="line"/>
      <point x="282" y="688" type="line"/>
      <point x="282" y="710" type="line"/>
      <point x="26" y="710" type="line"/>
      <point x="26" y="685" type="line"/>
      <point x="53" y="680"/>
      <point x="71" y="671"/>
      <point x="84" y="658" type="curve" smooth="yes"/>
      <point x="101" y="641"/>
      <point x="107" y="613"/>
      <point x="107" y="483" type="curve" smooth="yes"/>
      <point x="107" y="53" type="line"/>
      <point x="26" y="22" type="line"/>
      <point x="26" y="0" type="line"/>
      <point x="282" y="0" type="line"/>
      <point x="282" y="25" type="line"/>
      <point x="255" y="30"/>
      <point x="237" y="39"/>
      <point x="224" y="52" type="curve" smooth="yes"/>
      <point x="207" y="69"/>
      <point x="201" y="97"/>
      <point x="201" y="227" type="curve" smooth="yes"/>
    </contour>
    <contour>
      <point x="260" y="849" type="curve" smooth="yes"/>
      <point x="213" y="849"/>
      <point x="127" y="903"/>
      <point x="57" y="903" type="curve" smooth="yes"/>
      <point x="0" y="903"/>
      <point x="-26" y="842"/>
      <point x="-26" y="758" type="curve"/>
      <point x="-10" y="758" type="line"/>
      <point x="9" y="807"/>
      <point x="32" y="812"/>
      <point x="54" y="812" type="curve" smooth="yes"/>
      <point x="101" y="812"/>
      <point x="187" y="758"/>
      <point x="257" y="758" type="curve" smooth="yes"/>
      <point x="314" y="758"/>
      <point x="340" y="821"/>
      <point x="340" y="903" type="curve"/>
      <point x="324" y="903" type="line"/>
      <point x="305" y="854"/>
      <point x="282" y="849"/>
    </contour>
  </outline>
</glyph>
<glyph name="itilde" format="2">
  <advance width="305"/>
  <unicode hex="0129"/>
  <outline>
    <contour>
      <point x="115" y="53" type="line"/>
      <point x="34" y="22" type="line"/>
      <point x="34" y="0" type="line"/>
      <point x="286" y="0" type="line"/>
      <point x="286" y="25" type="line"/>
      <point x="259" y="30"/>
      <point x="241" y="39"/>
      <point x="228" y="52" type="curve" smooth="yes"/>
      <point x="211" y="69"/>
      <point x="205" y="97"/>
      <point x="205" y="227" type="curve" smooth="yes"/>
      <point x="205" y="342" type="line"/>
      <point x="215" y="514" type="line"/>
      <point x="37" y="449" type="line"/>
      <point x="37" y="434" type="line"/>
      <point x="62" y="427"/>
      <point x="79" y="416"/>
      <point x="90" y="403" type="curve" smooth="yes"/>
      <point x="113" y="377"/>
      <point x="115" y="342"/>
      <point x="115" y="288" type="curve" smooth="yes"/>
    </contour>
    <contour>
      <point x="229" y="666" type="curve" smooth="yes"/>
      <point x="189" y="666"/>
      <point x="116" y="720"/>
      <point x="56" y="720" type="curve" smooth="yes"/>
      <point x="-1" y="720"/>
      <point x="-27" y="648"/>
      <point x="-27" y="580" type="curve"/>
      <point x="-11" y="580" type="line"/>
      <point x="8" y="629"/>
      <point x="31" y="634"/>
      <point x="53" y="634" type="curve" smooth="yes"/>
      <point x="93" y="634"/>
      <point x="166" y="580"/>
      <point x="226" y="580" type="curve" smooth="yes"/>
      <point x="283" y="580"/>
      <point x="309" y="652"/>
      <point x="309" y="720" type="curve"/>
      <point x="293" y="720" type="line"/>
      <point x="274" y="671"/>
      <point x="251" y="666"/>
    </contour>
  </outline>
</glyph>
<glyph name="Imacron" format="2">
  <advance width="308"/>
  <unicode hex="012A"/>
  <outline>
    <contour>
      <point x="201" y="657" type="line"/>
      <point x="282" y="688" type="line"/>
      <point x="282" y="710" type="line"/>
      <point x="26" y="710" type="line"/>
      <point x="26" y="685" type="line"/>
      <point x="53" y="680"/>
      <point x="71" y="671"/>
      <point x="84" y="658" type="curve" smooth="yes"/>
      <point x="101" y="641"/>
      <point x="107" y="613"/>
      <point x="107" y="483" type="curve" smooth="yes"/>
      <point x="107" y="53" type="line"/>
      <point x="26" y="22" type="line"/>
      <point x="26" y="0" type="line"/>
      <point x="282" y="0" type="line"/>
      <point x="282" y="25" type="line"/>
      <point x="255" y="30"/>
      <point x="237" y="39"/>
      <point x="224" y="52" type="curve" smooth="yes"/>
      <point x="207" y="69"/>
      <point x="201" y="97"/>
      <point x="201" y="227" type="curve" smooth="yes"/>
    </contour>
    <contour>
      <point x="-8" y="854" type="line"/>
      <point x="-8" y="794" type="line"/>
      <point x="310" y="794" type="line"/>
      <point x="310" y="854" type="line"/>
    </contour>
  </outline>
</glyph>
